<?xml version="1.0" encoding="utf-8"?>
<!-- Generator: Adobe Illustrator 27.5.0, SVG Export Plug-In . SVG Version: 6.00 Build 0)  -->
<svg version="1.1" id="Layer_1" xmlns="http://www.w3.org/2000/svg" xmlns:xlink="http://www.w3.org/1999/xlink" x="0px" y="0px"
	 viewBox="0 0 3000 2000" style="enable-background:new 0 0 3000 2000;" xml:space="preserve">
<rect style="fill:#FFFFFF;" width="3000" height="2000"/>
<g>
	<path style="fill:#B75742;" d="M2529.303,981.991c0,0,20.74-7.516,34.143,13.494c13.403,21.011,6.158,19.02,12.679,29.525
		c6.521,10.505,9.656,40.367,11.91,56.513c22.988,164.653-251.995,177.996-144.614-31.878
		c10.071-19.686,18.592-31.518,27.648-52.529C2480.125,976.105,2518.434,976.92,2529.303,981.991z"/>
	<path style="fill:#355389;" d="M2470.473,1135.808l-27.732-9.686c0,0-11.008,14.064-14.309,49.256c-3.3,35.191,0,55.881,0,55.881
		h31.367L2470.473,1135.808z"/>
	<path style="fill:#466EB6;" d="M2526.031,1116.917c-9.405,0.972-79.39-5.679-83.291,9.205
		c-20.962,79.997,7.865,190.44,15.232,197.808c7.368,7.368,127.639-16.625,127.639-16.625S2604.479,1108.828,2526.031,1116.917z"/>
	<g>
		<path style="fill:#F7A491;" d="M2621.549,1034.913c0,0-7.726-3.681-14.753-16.698c-4.509-8.352-17.91-19.056-12.332-20.787
			c5.578-1.73,14.128,12.388,15.728,8.344c1.601-4.043-14.36-34.609-9.304-36.179c5.056-1.568,18.288,28.165,19.72,24.547
			c1.432-3.618-13.512-29.598-6.367-31.816c7.147-2.217,14.865,31.979,18.7,30.789c3.835-1.189-1.75-27.28,4.002-29.065
			c5.751-1.785,4.94,32.264,7.008,31.282c1.116-0.529,6.222-17.021,9.346-15.784c3.532,1.398-6.004,35.25-1.771,42.711
			c4.232,7.46,38.121,100.223,26.536,111.807c-12.624,12.626-92.961,41.58-109.773,36.601
			c-16.812-4.979-26.442-21.593-22.398-31.809c4.043-10.216,83.466-33.166,84.734-36.372
			C2631.893,1099.279,2621.549,1034.913,2621.549,1034.913z"/>
		<path style="fill:#F48C7F;" d="M2627.991,1005.613c2.429-0.104,4.818,0.44,7.119,1.286c0.336,0.236,7.954,2.465,11.231,10.879
			C2642.724,1013.475,2638.697,1008.711,2627.991,1005.613z"/>
	</g>
	<g>
		<g>
			<path style="fill:#F7A491;" d="M1535.763,1622.38c-1.333-9.549,1.661-25.975,9.135-51.672
				c-14.804,0.034-27.251-6.521-42.381-6.291c-4.133,24.166-10.533,63.846-10.533,63.846l-0.685,31.369l105.35,0.791
				c0,0-0.878,0.451-31.936-19.173C1562.415,1639.799,1537.05,1631.605,1535.763,1622.38z"/>
			<path style="fill:#3C8F7C;" d="M1490.794,1667.693h108.753c4.022-0.362,5.003-3.644,3.607-5.667
				c-2.871-4.164-24.081-14.164-38.343-20.799c-25.015,2.631-68.978-7.665-72.926-13.459
				C1485.025,1646.959,1488.558,1667.198,1490.794,1667.693z"/>
		</g>
		<g>
			<path style="fill:#F7A491;" d="M1404.526,1622.38c-1.332-9.549-3.599-21.507-0.276-53.348
				c-14.805,0.033-28.893-2.744-44.022-2.515c0,24.86,0.521,61.745,0.521,61.745l-0.686,31.369l105.35,0.791
				c0,0-0.877,0.451-31.937-19.173C1431.18,1639.799,1405.814,1631.605,1404.526,1622.38z"/>
			<path style="fill:#3C8F7C;" d="M1359.558,1667.693h108.753c4.023-0.362,5.003-3.644,3.608-5.667
				c-2.872-4.164-24.083-14.164-38.343-20.799c-25.014,2.631-68.978-7.665-72.926-13.459
				C1353.79,1646.959,1357.322,1667.198,1359.558,1667.693z"/>
		</g>
		<path style="fill:#F7A491;" d="M1481.086,712.648l39.626-41.808c0,0,42.418,23.327,91.864,45.615
			c13.593-23.659,35.778-101.483,36.972-105.196c1.195-3.724-25.985-50.474-19.905-51.646c6.08-1.172,13.975,24.966,20.402,22.317
			c6.426-2.648,22.952-63.289,26.82-59.98c7.237,6.193-8.692,37.717-4.878,40.014s13.491-34.943,20.859-33.355
			c7.368,1.588-12.44,33.903-10.269,37.009c2.174,3.107,22.877-27.21,27.155-20.188c2.323,3.812-19.097,26.398-14.692,28.924
			c4.407,2.527,23.711-11.698,26.016-7.09c2.305,4.608-18.014,9.41-23.654,21.072c-5.641,11.663-15.897,16.201-19.301,38.25
			c-3.396,22.027-12.707,139.89-36.731,149.353C1620.393,784.201,1481.086,712.648,1481.086,712.648z"/>
		<path style="fill:#355389;" d="M1506.688,938.144l-32.135,17.924l-65.321,99.876l116.818,274.955c0,0-13.156,41.349-17.442,62.007
			c-4.486,21.614-15.484,207.129-15.484,207.129l49.836,0.838c0,0,47.337-197.493,55.354-261.595
			c9.734-77.841-49.539-263.224-49.539-263.224c-11.054-37.823-34.885-115.634-34.885-115.634S1508.06,941.462,1506.688,938.144z"/>
		<path style="fill:#466EB6;" d="M1394.835,900.632c0,0,3.322,23.494-9.967,50.292c-8.101,16.337-22.096,29.146-32.117,49.159
			c-18.964,37.872-29.262,91.67-22.149,126.247c0,0,39.21,149.731,37.653,204.453c-0.574,20.178-7.496,56.536-11.926,81.114
			c-3.916,21.729-2.541,182.925-2.541,182.925l52.952,1.024l42.617-264.389l18.018-235.014l39.308-158.293L1394.835,900.632z"/>
		<path style="fill:#13375B;" d="M1518.559,551.343c-5.14-24.27-10.443-48.628-34.56-66.109
			c-19.516-14.147-40.488-18.19-62.722-10.126c-62.995,22.848-29.112,72.84-107.287,126.124
			c-24.291,16.557-33.511,22.33-50.944,44.394c-24.401,30.882-37.737,72.32-25.472,106.432
			c25.366,70.548,103.963,90.93,145.08,75.971c76.53-27.841,140.288-124.898,144.524-151.383
			C1531.714,648.299,1521.867,566.967,1518.559,551.343z"/>
		<path style="fill:#50BFA5;" d="M1524.396,738.913c17.732,8.197,49.85,20.505,49.85,20.505l18.273-57.792
			c-103.278-58.75-95.176-49.271-172.693-48.116c-61.925,0.883-87.879-10.942-141.205,133.014c0,0,40.594,18.238,55.129,24.092
			c6.251-17.795,17.548-53.285,24.135-33.052c9.952,30.567,17.242,61.426,22.129,93.194c3.104,18.832,9.86,42.938,6.309,62.125
			c0,0,42.174,8.684,74.388,10.097c0.091,0.004,0.185,0.011,0.276-0.005c15.566-0.396,31.507-1.769,45.702-4.83
			c0,0,6.314-133.54,9.691-139.113c3.737-6.171,19.518-26.105,6.091-55.919C1520.099,737.842,1520.738,737.222,1524.396,738.913z"/>
		<path style="fill:#F7A491;" d="M1429.531,594.068c0,0-4.932,39.826-7.839,53.651c-3.042,14.468-7.619,60.029,22.381,67.427
			c30.001,7.398,20.729-49.573,21.226-64.284c0.496-14.711,8.997-66.005,8.997-66.005L1429.531,594.068z"/>
		<path style="fill:#F47458;" d="M1427.9,606.776c0.306,0.183,0.591,0.38,0.903,0.558c16.579,9.506,31.012,8.006,41.844,0.608
			c1.934-12.731,3.649-23.086,3.649-23.086l-44.765,9.212C1429.531,594.068,1428.874,599.375,1427.9,606.776z"/>
		<path style="fill:#F7A491;" d="M1438.551,490.356c0,0-17.579,4.943-27.716,22.401c-10.137,17.458-15.194,67.597,22.121,88.991
			c37.315,21.395,63.801-12.883,62.672-44.951C1494.5,524.729,1485.565,482.309,1438.551,490.356z"/>
		<path style="fill:#F7A491;" d="M1503.872,543.036c0.415,8.335-3.151,15.29-7.964,15.533c-4.813,0.243-9.05-6.316-9.465-14.651
			c-0.414-8.335,3.152-15.289,7.966-15.533C1499.221,528.141,1503.458,534.701,1503.872,543.036z"/>
		<path style="fill:#13375B;" d="M1443.834,489.036c0,0-20.116,52.441-39.803,58.03c-19.687,5.589-18.115,31.384-18.115,31.384
			s-2.52-59.624,15.463-74.239C1419.362,489.595,1443.834,489.036,1443.834,489.036z"/>
		<path style="fill:#F7A491;" d="M1412.474,557.327c3.037,8.197,1.045,16.52-4.447,18.59c-5.492,2.07-12.406-2.896-15.442-11.093
			c-3.036-8.198-1.044-16.521,4.447-18.591C1402.525,544.163,1409.438,549.13,1412.474,557.327z"/>
		<path style="fill:#F7A491;" d="M1446.866,970.704c0.731,0.099,4.02-0.333,6.711-0.266c3.721,0.066,6.978,0.631,6.978,0.631
			s1.462-1.262,4.252-2.559c1.164-0.531,3.057-0.731,4.353-1.329c1.328-0.631,2.458-1.761,3.72-2.326
			c3.29-1.429,6.313-1.761,7.31-0.033c0.831,1.428-17.477,12.625-17.477,12.625c-16.944,0.1-34.686,8.738-73.957-16.878
			c-22.426-9.801-131.335-63.591-133.528-75.32c-1.229-6.577,15.482-57.51,29.138-96.183c10.531,4.718,32.924,14.685,45.45,19.934
			c-11.495,24.353-25.051,56.648-23.623,60.601c0.366,1.03,1.729,2.891,75.353,51.099c1.861,1.196,3.754,2.459,5.682,3.721
			c5.184,3.389,10.731,7.011,16.612,10.831l20.998-2.192c0,0,33.257,2.293,34.254,6.08c0.432,1.728-2.325,2.592-5.715,3.09h-0.1
			c-0.498,0.066-0.997,0.132-1.495,0.199c-0.034,0-0.067,0-0.067,0c-3.654,0.432-7.509,0.498-8.439,0.831
			c-1.063,0.365-3.188,1.196-5.017,2.458c20.732,8.472,19.138,5.45,26.016,5.018c1.727-0.134,3.554,0.365,5.183,0.233
			c2.791-0.233,5.017-1.894,7.176-2.027c3.157-0.166,5.715,1.295,6.28,1.893c0.73,0.732-0.632,1.795-3.29,2.991
			c-16.014,6.944-29.271,4.286-33.523,5.315c-2.858,0.698,2.359,1.761,10.498,0.897c2.027-0.199,4.685,0.532,7.376-0.099
			c1.794-0.399,3.422-1.562,5.184-1.994c1.627-0.398,3.289-0.365,4.651-0.631c1.794-0.332,4.286-1.694,5.714-1.86
			c5.316-0.599,7.908,0.331,8.505,0.83c1.229,1.097-22.924,10.366-22.924,10.366s-16.646,2.393-20.367,2.393
			C1444.74,969.043,1442.514,970.039,1446.866,970.704z"/>
	</g>
	<g>
		<path style="fill:#184655;" d="M2794.646,1667.693H205.355c-4.065,0-7.361,3.183-7.361,7.11l0,0c0,3.928,3.295,7.11,7.361,7.11
			h2589.292c4.064,0,7.359-3.182,7.359-7.11l0,0C2802.006,1670.876,2798.711,1667.693,2794.646,1667.693z"/>
	</g>
	<g>
		<path style="fill:#466EB6;" d="M348.362,1141.818c0,0-11.134,137.343-11.134,149.272c0,11.928,47.391,15.305,47.391,15.305
			l14.489-140.94L348.362,1141.818z"/>
		<path style="fill:#86B1F2;" d="M419.046,1108.387c0,0-30.748-16.465-56.098-1.376c-25.348,15.09-32.25,103.729-32.25,103.729
			l81.201,9.73L419.046,1108.387z"/>
		<path style="fill:#F47458;" d="M606.815,1560.517c0,0-15.539,63.369-27.12,73.319c-11.581,9.948-49.346,28.981-39.463,31.029
			c9.881,2.047,83.015,3.748,81.009-8.451c-2.004-12.198-4.109-19.975-4.109-19.975l19.345-45.263L606.815,1560.517z"/>
		<path style="fill:#13375B;" d="M535.315,1667.464c17.836,1.774,69.913,3.649,85.086,1.71c0,0,2.845-0.56,0.84-12.759
			c-0.49-2.981-0.986-5.699-1.456-8.104c-13.76,3.616-43.73-4.08-55.603-5.656c-12.897,6.176-27.434,15.396-32.124,16.166
			C525.267,1659.938,525.273,1666.465,535.315,1667.464z"/>
		<path style="fill:#F47458;" d="M777.354,1613.645c0,0,1.63,16.03,1.63,23.095c0,7.066-6.581,26.99-3.532,30.038
			c3.049,3.05,90.158,2.673,90.158-0.196c0-2.867-15.393-11.563-36.314-17.541c-20.92-5.978-28.033-29.147-22.599-42.459
			L777.354,1613.645z"/>
		<path style="fill:#13375B;" d="M867.015,1666.777c0-2.673-14.284-10.882-32.785-16.534c-19.715,6.66-47.093,1.164-57.357-0.798
			c-3.141,8.216-4.145,16.004-2.528,17.618C777.393,1670.113,867.015,1669.646,867.015,1666.777z"/>
		<path style="fill:#86B1F2;" d="M682.804,1345.752l-15.622,13.857c0,0-17.587,47.617-18.611,50.76
			c-1.424,4.373-58.394,187.955-58.394,187.955l39.689,14.282c0,0,39.353-76.666,45.874-103.291
			c6.521-26.627,71.728-138.023,71.728-138.023L682.804,1345.752z"/>
		<path style="fill:#86B1F2;" d="M751.815,1374.009l19.019,243.318h44.015c0,0,15.758-182.097,10.325-246.036L751.815,1374.009z"/>
		<path style="fill:#F7A491;" d="M515.981,1204.469c0,0,13.375,65.388,25.114,77.128c6.683,6.682,24.893,33.725,38.904,33.725
			c11.151,0,17.792,0.814,19.665,0.814c4.347,0-0.544,26.627-4.619,30.702c0,0-1.359,4.076-9.51,4.076
			c-8.151,0-51.351-29.615-64.392-42.657c-13.042-13.041-37.223-84.226-37.223-84.226L515.981,1204.469z"/>
		<path style="fill:#F47458;" d="M730.622,1122.415c0,0-16.845,19.563-39.124,52.71c-22.279,33.147-79.219,125.177-85.313,131.27
			c-1.475,1.475-6.093,4.443-6.093,4.443s-7.995-1.721-12.297-0.136c-4.205,1.55-9.866,9.691-7.873,11.685
			c1.992,1.991,9.678-4.664,12.026-4.593c2.35,0.071,2.555,0.064,2.555,1.331c0,1.268-9.51,6.521-12.227,7.246
			s-9.878,11.728-8.513,15.396c1.364,3.667,1.268,4.891,4.709,4.891c3.441,0,3.985,2.718,6.883,2.718
			c2.898,0,3.623-3.623,6.883-2.174c3.261,1.449,4.166,1.086,14.309-5.072c10.144-6.159,29.072-29.072,38.582-38.581
			c9.509-9.509,96.362-104.15,96.362-104.15L730.622,1122.415z"/>
		<path style="fill:#184655;" d="M767.483,976.696c0,0-20.74-7.518-34.143,13.494c-13.404,21.011-6.159,19.018-12.679,29.525
			c-6.521,10.506-23.547,8.332-23.547,24.634c0,16.301,7.607,18.837,7.607,18.837s-6.883,12.68,0.725,25.722
			c7.607,13.041,26.578,24.271,42.451,22.46c0,0,23.843,13.072,47.752,6.898c23.91-6.174,15.578-6.174,25.358-6.174
			c9.782,0,36.227-13.403,31.879-32.967c0,0,16.115-19.141,0.479-34.776c-15.635-15.636-18.592-31.518-27.648-52.529
			C816.66,970.809,778.352,971.623,767.483,976.696z"/>
		<path style="fill:#50BFA5;" d="M472.51,1115.013c3.08,1.063,15.673,10.035,23.008,24.163
			c7.336,14.128,26.712,73.172,26.712,73.172l-31.89,11.684L472.51,1115.013z"/>
		<path style="fill:#F7A491;" d="M312.027,1601.872c0,0-5.252,18.656-9.418,22.823c-4.167,4.165-17.978,20.331-14.581,28.347
			c3.396,8.015,87.555,19.494,90.747,16.302c3.192-3.193-14.536-16.71-24.588-24.997c-10.053-8.285-17.253-18.475-13.041-30.838
			c4.211-12.361,4.211-11.139,4.211-12.361C345.355,1599.924,312.027,1601.872,312.027,1601.872z"/>
		<path style="fill:#355389;" d="M378.774,1669.344c3.809-2.856-8.015-15.624-25.151-25.464c-7.173-0.011-16.739-0.496-24.841-2.521
			c-12.685-3.17-22.41-14.159-25.295-17.727c-0.262,0.366-20.663,20.015-16.682,29.41
			C290.2,1661.057,371.167,1675.049,378.774,1669.344z"/>
		<path style="fill:#F7A491;" d="M451.666,1610.929c0,0,1.554,19.162-1.602,24.137c-3.157,4.976-14.202,24.689-8.046,30.847
			c5.551,5.55,82.642,1.982,85.061-1.828c2.419-3.813-10.774-15.194-22.392-21.089c-11.619-5.895-20.868-14.267-19.455-27.251
			c1.413-12.982,1.679-11.79,1.413-12.982C486.378,1601.567,451.666,1610.929,451.666,1610.929z"/>
		<path style="fill:#355389;" d="M536.654,1667.151c4.02-2.552-13.749-18.624-32.619-24.492c-7.003,1.556-16.444,3.17-24.794,2.96
			c-13.07-0.327-24.958-8.929-28.551-11.782c-0.177,0.416-17.738,25.851-9.866,32.341
			C446.97,1671.245,530.547,1671.026,536.654,1667.151z"/>
		<path style="fill:#F47458;" d="M457.294,1339.593l-49.774,144.221l-57.093,133.514l-47.818-12.013
			c0,0,17.257-92.551,33.468-121.621c12.268-21.999,20.833-148.239,20.833-148.239L457.294,1339.593z"/>
		<path style="fill:#B75742;" d="M433.393,1363.864l17.245,253.463h40.754c0,0,17.801-265.553,11.28-290.819
			c-6.52-25.266-74.417-19.562-74.417-19.562L433.393,1363.864z"/>
		<path style="fill:#96D9C9;" d="M472.51,1115.013c0,0-52.523-15.738-60.61-14.722c-8.854,1.113-30.373,12.513-30.373,12.513
			s1.322,91.182-2.481,116.963c-3.804,25.78-30.431,108.377-30.431,108.377s37.495,21.735,100.528,14.672
			c63.034-7.064,58.687-22.279,58.687-22.279s-5.978-91.291-11.956-131.502C489.898,1158.824,472.51,1115.013,472.51,1115.013z"/>
		<path style="fill:#F7A491;" d="M828.977,1128.937c0,0-27.985-7.336-59.776-9.102c-16.459-0.914-38.579,2.58-38.579,2.58
			s-20.105,45.102-26.083,82.054c-5.977,36.95-38.581,155.41-38.581,155.41s66.294,51.081,163.019,17.39V1128.937z"/>
		<path style="fill:#F47458;" d="M753.626,1088.544c0,0,0.87,28.852-1.839,31.561c-2.71,2.709-6.493,7.202-2.508,14.086
			c3.984,6.883,21.283,2.49,29.343-1.449c7.736-3.781,12.729-10.817,12.729-10.817l-4.035-45.697L753.626,1088.544z"/>
		<path style="fill:#B75742;" d="M765.128,1100.499c5.555-1.944,15.262-5.697,22.754-17.874l-0.565-6.399l-33.691,12.318
			c0,0,0.212,7.039,0.101,14.49C758.447,1102.838,762.478,1101.427,765.128,1100.499z"/>
		<path style="fill:#F7CC7F;" d="M298.566,987.093c0,0-2.769,12.825,10.614,17.336c13.382,4.511,21.689-42.573,29.302-51.878
			c7.614-9.304,30.688-11.841,42.686,6.737c6.596,10.214,8.659,14.66,9.179,16.593c0.427,1.583-0.182,1.481-0.182,1.481
			l-3.618,6.767c0,0-11.61-7.048-15.994,5.822c-4.383,12.871,8.538,33.932-2.538,51.413c-11.076,17.481-31.379,5.116-31.379,5.116
			c-16.844,11.319-36.226-5.962-42.454-22.313C287.953,1007.813,298.566,987.093,298.566,987.093z"/>
		<path style="fill:#F7A491;" d="M430.653,1052.262l-1.828,18.924l-16.925,29.105c0,0,33.371,40.396,43.676,30.745
			c2.301-2.154,8.109-44.915,8.109-44.915L430.653,1052.262z"/>
		<path style="fill:#F48C7F;" d="M428.825,1071.186l-3.538,6.461c10.407,9.339,23.753,17.74,36.371,22.575
			c1.178-7.847,2.027-14.1,2.027-14.1l-33.031-33.859L428.825,1071.186z"/>
		<path style="fill:#F7A491;" d="M465.02,990.111c0,0,8.823,8,12.066,12.52c19.295,26.886,3.666,79.902-6.408,84.311
			c-15.253,6.675-35.104-2.302-57.476-17.469c-22.371-15.169-29.44-39.745-8.957-61.108C424.728,987,465.02,990.111,465.02,990.111z
			"/>
		<path style="fill:#F7CC7F;" d="M390.791,985.375l6.096-5.836c23.896,0,42.949-14.406,69.77,0.08
			c17.702,9.561,10.428,23.012,10.428,23.012c-65.552,0-41.904,51.662-49.937,72.222
			C419.117,1095.409,368.993,1050.95,390.791,985.375z"/>
		<path style="fill:#F7A491;" d="M436.646,1043.553c0,0-0.926-16.955-11.322-13.595c-10.398,3.359-2.296,28.907,6.335,28.011
			C440.289,1057.073,436.646,1043.553,436.646,1043.553z"/>
		<path style="fill:#F47458;" d="M793.252,1043.601c0,0,0.819-16.96,11.236-13.667c10.418,3.294,2.478,28.893-6.158,28.05
			C789.693,1057.143,793.252,1043.601,793.252,1043.601z"/>
		<path style="fill:#50BFA5;" d="M389.076,972.596c0,0,9.875,6.123,13.856,5.613c3.982-0.51-6.096,12.406-11.438,13.745
			c-5.343,1.34-3.461-3.806-4.59-5.567c-1.128-1.763-5.286-0.39-6.246-1.692C378.472,981.727,384.41,973.159,389.076,972.596z"/>
		<path style="fill:#F7A491;" d="M573.275,1345.752c0,0,9.137-14.128,12.125-14.807c2.989-0.68-0.679,9.644-0.679,11.547
			c0,1.901,5.434-14.535,8.423-14.535c2.988,0,3.396,2.174,2.173,6.384c-1.223,4.213-4.075,9.646-2.717,9.646
			c1.359,0,5.231-18.273,7.472-16.03c2.241,2.241,1.38,17.184-2.854,21.419C592.985,1353.608,580.529,1350.963,573.275,1345.752z"/>
		<path style="fill:#F7CC7F;" d="M735.722,1236.298c3.706,1.935,8.382-0.553,10.273-4.127c2.618-4.945,0.967-10.028-2.74-11.768
			c-3.87-1.816-8.325-0.073-10.689,4.629C730.374,1229.391,731.863,1234.675,735.722,1236.298z M710.273,1205.146
			c1.529-1.614,5.976-7.961,13.548-5.444c6.556,2.177,9.14,8.934,10.998,11.983c-0.532-3.074-1.774-8.374-0.322-14.382
			c3.865-15.99,23.435-14.55,23.084,0.278c-0.138,5.821-2.234,9.375-5.183,15.618c1.203-1.316,4.805-5.679,9.757-8.229
			c14.443-7.438,22.206,10.695,11.985,20.322c-5.283,4.978-12.004,5.109-16.107,5.589c3.559,0.999,5.689,1.298,9.174,3.508
			c18.05,11.445-7.065,42.33-20.634,12.592c-0.017-0.036-0.089-0.036-0.132-0.054c0.621,4.211,1.817,9.366,0.083,15.323
			c-4.697,16.135-26.164,13.299-22.441-4.967c1.164-5.71,4.959-11.766,5.189-12.229c-2.585,2.76-6.402,7.342-11.922,9.5
			c-14.214,5.558-20.992-14.515-7.896-22.976c5.861-3.789,11.679-3.238,13.735-3.787c-4.859-1.173-9.433-2.533-12.75-6.606
			c-4.49-5.509-2.079-10.943-2.222-11.687C708.903,1208.048,709.588,1206.597,710.273,1205.146z"/>
		<path style="fill:#F47458;" d="M760.509,988.198c0,0-16.301-0.362-24.634,12.317c-8.332,12.679-17.389,48.904-3.623,73.901
			c13.766,24.997,31.336,18.839,38.582,16.302c7.245-2.535,21.555-8.15,28.8-31.517
			C806.879,1035.835,801.627,983.307,760.509,988.198z"/>
		<path style="fill:#466EB6;" d="M389.951,1108.585c0,0,11.813-1.786,21.948,36.564c11.486,43.458-0.881,88.47-19.884,99.871
			c-19.002,11.401-26.831,9.205-26.831,9.205l2.983,26.801c0,0,56.141-12.567,63.787-60.555
			c12.531-78.652-24.435-119.16-24.435-119.16s-6.952,1.114-9.111,1.993C396.101,1104.244,389.951,1108.585,389.951,1108.585z"/>
		<path style="fill:#F7A491;" d="M360.932,1199.397c0,0,0,46.369,0,56.149c0,9.781,11.23,76.003,24.996,98.682
			c13.766,22.677,32.426,47.975,36.288,49.424c3.862,1.449,12.256,6.763,16.603,2.415c4.347-4.346,7.788-2.354,13.222-4.709
			c5.435-2.354-0.725-10.143-8.332-17.751c-7.608-7.607-9.238-9.418-7.97-10.687c1.268-1.267,7.426,5.797,10.687,4.709
			c3.26-1.086-1.992-12.497-10.506-16.483c-8.513-3.984-22.098-11.772-23.365-15.939c-1.269-4.166-1.269-3.079-1.269-4.166
			c0-1.087-9.599-66.837-9.599-79.698c0-12.86-3.804-54.701-3.804-54.701L360.932,1199.397z"/>
		<path style="fill:#50BFA5;" d="M386.612,1110.569c-4.94,0.617-18.344,5.507-23.054,21.447
			c-4.709,15.939-17.116,61.223-14.943,83.319c0,0,52.891,6.884,52.891,4.71c0-2.173,11.57-58.867,5.796-83.682
			C402.266,1114.716,395.199,1109.499,386.612,1110.569z"/>
		<path style="fill:#466EB6;" d="M464.286,1112.601l36.768,132.142v-0.001c-1.621-17.258-3.4-33.743-5.179-45.708
			c-5.977-40.21-23.365-84.021-23.365-84.021S469.274,1114.043,464.286,1112.601z"/>
		<g>
			<polygon style="fill:#3C8F7C;" points="678.621,1378.961 780.364,1378.961 780.364,1239.276 678.621,1244.723 			"/>
			<g>
				<path style="fill:#3C8F7C;" d="M678.621,1233.829h97.221c2.497,0,4.522,2.439,4.522,5.447l0,0c0,3.008-2.025,5.446-4.522,5.446
					h-97.221l0.083-0.036C685.422,1241.648,685.385,1236.846,678.621,1233.829z"/>
				<path style="fill:#FAE0B2;" d="M681.401,1235.441h91.095c1.758,0,3.183,1.717,3.183,3.835l0,0c0,2.117-1.425,3.834-3.183,3.834
					h-91.093C684.489,1240.736,684.484,1237.813,681.401,1235.441z"/>
			</g>
		</g>
		<path style="fill:#F47458;" d="M828.977,1128.937c0,0-7.619,7.634-15.77,36.583c-8.15,28.95-12.306,96.729-19.369,103.794
			c-7.065,7.066-53.253,43.835-61.586,42.567c-8.331-1.269-26.989-23.004-32.785-23.004c-5.796,0-5.072,5.254-2.173,8.15
			c2.897,2.899,6.429,6.25,4.709,7.971c-1.721,1.721-1.721,1.721-1.721,1.721s-25.811-6.793-30.158-4.256
			c-4.347,2.535,4.167,8.513,4.167,12.859c0,4.348-1.064,4.27-0.544,9.057c0.521,4.787,1.721,8.604,3.985,10.867
			c2.264,2.265,30.792,10.507,58.686,6.703c27.894-3.805,61.947-17.207,87.124-48.363c25.177-31.153,20.134-129.072,19.563-138.838
			C841.656,1130.023,828.977,1128.937,828.977,1128.937z"/>
	</g>
	<polygon style="fill:#50BFA5;" points="2221.605,597.941 2242.779,593.729 2247.936,572.349 2272.01,569.307 2270.467,544.821 
		2297.537,540.18 2298.897,517.466 2324.198,508.746 2327.533,518.321 2308.615,524.843 2307.18,548.81 2281.157,553.271 
		2282.727,578.167 2256.16,581.524 2251.126,602.402 2231.5,606.308 2231.067,620.718 2220.93,620.383 	"/>
	<path style="fill:#F47458;" d="M2101.019,773.956l12.619-23.098l-11.874-23.49c-1.354-2.676,0.949-5.74,3.896-5.186l25.865,4.863
		l18.672-18.552c2.127-2.112,5.752-0.87,6.137,2.104l3.367,26.103l23.414,12.024c2.666,1.371,2.604,5.203-0.104,6.486l-23.786,11.27
		l-4.199,25.982c-0.479,2.96-4.143,4.085-6.201,1.906l-18.068-19.139l-26.008,4.034
		C2101.785,779.724,2099.582,776.587,2101.019,773.956z"/>
	<path style="fill:#F7CC7F;" d="M401.717,700.251l15.509-21.266l-8.725-24.831c-0.994-2.828,1.688-5.568,4.537-4.637l25.017,8.179
		l20.92-15.971c2.383-1.819,5.817-0.117,5.812,2.881l-0.048,26.32l21.655,14.96c2.466,1.705,1.908,5.498-0.945,6.419l-25.046,8.087
		l-7.537,25.218c-0.858,2.872-4.637,3.513-6.395,1.084l-15.432-21.321l-26.314,0.625
		C401.728,706.07,399.951,702.674,401.717,700.251z"/>
	<g>
		<path style="fill:#F7CC7F;" d="M894.56,534.459c-1.013-14.599,10-27.255,24.599-28.27c14.6-1.013,27.256,10.001,28.27,24.6
			c1.013,14.6-10,27.255-24.6,28.269C908.231,560.072,895.574,549.059,894.56,534.459z"/>
		<g>
			<path style="fill:#F7CC7F;" d="M939.496,609.285c-1.582-7.688-2.539-15.916-5.161-23.324c-2.256-6.372-12.198-4.425-11.694,2.417
				c0.617,8.379,3.234,16.875,4.99,25.082c0.711,3.324,5.108,4.868,8.02,3.846C939.209,616.057,940.183,612.626,939.496,609.285
				L939.496,609.285z"/>
		</g>
		<g>
			<path style="fill:#F7CC7F;" d="M984.907,576.458c-8.783-5.177-16.437-11.594-24.541-17.717
				c-6.331-4.783-13.155,3.449-7.949,9.134c7.478,8.166,17.295,14.545,26.773,20.132c3,1.768,7.169,0.04,8.634-2.916
				C989.465,581.777,987.913,578.23,984.907,576.458L984.907,576.458z"/>
		</g>
		<g>
			<path style="fill:#F7CC7F;" d="M968.274,529.024c-1.987,1.595-2.385,3.886-1.157,6.113c2.971,5.387,10.51,5.12,15.864,4.938
				c5.586-0.19,11.174-1.326,16.457-3.129c7.808-2.666,3.576-14.785-4.261-12.109C979.849,530.07,974.046,524.39,968.274,529.024z"
				/>
		</g>
		<g>
			<path style="fill:#F7CC7F;" d="M959.836,477.5c-7.712,11.283-14.014,15.093-13.033,21.304c0.573,3.631,3.444,5.364,6.949,4.569
				c4.143-0.939,6.399-5.331,8.882-8.415c2.381-2.956,4.718-5.919,6.844-9.068c1.93-2.857,2.201-6.556-0.627-9.016
				C966.483,474.812,961.795,474.635,959.836,477.5L959.836,477.5z"/>
		</g>
		<g>
			<path style="fill:#F7CC7F;" d="M929.79,475.545c-2.466-6.839-3.006-9.327-6.205-12.504c-2.78-2.762-8.648-1-9.037,3.07
				c-0.453,4.746,0.541,6.508,3.133,13.695c1.175,3.26,4.896,5.078,8.185,3.924C929.126,482.586,930.97,478.817,929.79,475.545
				L929.79,475.545z"/>
		</g>
		<g>
			<path style="fill:#F7CC7F;" d="M897.337,492.094c-11.118-8.447-13.379-10.826-17.746-10.365c-2.561,0.27-5.436,2.729-4.876,5.604
				c1.039,5.34,4.144,6.79,14.368,14.247c2.741,2,6.507,2.101,8.87-0.616C900.07,498.53,900.052,494.156,897.337,492.094
				L897.337,492.094z"/>
		</g>
		<g>
			<path style="fill:#F7CC7F;" d="M852.679,530.81c-4.381,2.324-2.621,9.899,2.124,10.519c4.549,0.595,6.305-0.136,28.376-4.166
				c3.409-0.622,6.216-3.111,5.956-6.846c-0.22-3.169-3.413-6.576-6.845-5.957C859.368,528.496,857.074,528.478,852.679,530.81z"/>
		</g>
		<g>
			<path style="fill:#F7CC7F;" d="M887.258,566.915c-12.097,11.708-13.869,9.64-18.646,16.798c-2.185,3.274,1.419,8.492,5.222,7.794
				c4.881-0.896,6.192-1.718,12.555-6.759c3.697-2.93,7.232-6.07,10.628-9.341c2.518-2.425,1.839-6.974-0.633-9.126
				C893.559,563.823,889.776,564.479,887.258,566.915L887.258,566.915z"/>
		</g>
	</g>
	<polygon style="fill:#86B1F2;" points="687.633,540.346 708.672,526.403 700.432,509.633 720.713,495.155 715.218,477.724 
		729.048,464.9 723.62,459.64 705.123,476.792 710.33,493.31 689.232,508.372 697.337,524.866 678.27,537.5 	"/>
	<polygon style="fill:#F7CC7F;" points="2367.013,671.914 2342.42,666.233 2335.916,683.75 2311.456,678.989 2302.583,694.967 
		2283.762,693.748 2283.679,701.307 2308.852,702.936 2317.258,687.793 2342.705,692.747 2349.102,675.518 2371.388,680.667 	"/>
	<g>
		<path style="fill:#F48C7F;" d="M657.294,679.162c0,0,7.717-8.643,21.193-7.342c12.015,1.16,19.374,11.51,18.3,22.63
			c-1.244,12.873-14.001,27.015-44.582,37.424c-28.025-16.068-37.842-32.389-36.599-45.262c1.074-11.121,10.276-19.872,22.29-18.711
			C651.372,669.202,657.294,679.162,657.294,679.162z"/>
		<g>
			<path style="fill:#F48C7F;" d="M557.475,674.652c11.488,3.023,20.877,4.87,30.19,6.246c3.07,0.454,8.262,2.149,10.778-0.17
				c1.308-1.206,1.728-2.845,0.699-4.421c-1.885-2.886-6.658-2.567-9.752-3.026c-9.432-1.402-20.037-3.434-30.636-6.109
				c-1.987-0.501-4.052,1.192-4.38,3.101C554.002,672.443,555.487,674.129,557.475,674.652L557.475,674.652z"/>
		</g>
		<g>
			<path style="fill:#F48C7F;" d="M711.304,722.294c4.5,0.746,9.013,1.408,13.524,2.084c4.316,0.646,9.303,2.167,13.612,1.306
				c3.178-0.636,4.057-4.6,1.051-6.213c-3.886-2.087-9.027-2.092-13.357-2.726c-4.515-0.663-9.026-1.338-13.551-1.93
				C707.752,714.181,706.467,721.493,711.304,722.294L711.304,722.294z"/>
		</g>
		<g>
			<path style="fill:#F48C7F;" d="M590.196,739.971c7.094-8.645,14.43-10.53,20.247-13.376c3.11-1.523,2.181-5.922-1.351-5.9
				c-9.677,0.059-18.979,7.313-24.761,14.511C581.287,738.995,587.102,743.742,590.196,739.971L590.196,739.971z"/>
		</g>
		<g>
			<path style="fill:#F48C7F;" d="M638.583,771.655c0.528-4.686,1.926-9.131,4.301-13.217c1.454-2.5,7.953-9.103,2.866-11.298
				c-4.789-2.067-8.72,5.726-10.435,9.009c-2.3,4.399-3.734,9.287-4.243,14.22C630.572,775.225,638.031,776.544,638.583,771.655
				L638.583,771.655z"/>
		</g>
		<g>
			<path style="fill:#F48C7F;" d="M681.136,749.079c2.229,2.202,4.46,4.402,6.69,6.603c2.225,2.197,4.22,5.205,7.625,5.033
				c1.914-0.096,2.923-1.848,2.965-3.558c0.077-3.103-3.647-5.514-5.69-7.506c-2.242-2.187-4.483-4.374-6.725-6.56
				c-1.492-1.455-4.198-0.951-5.427,0.561C679.156,745.398,679.648,747.61,681.136,749.079L681.136,749.079z"/>
		</g>
		<g>
			<path style="fill:#F48C7F;" d="M630.486,646.8c-6.067-24.497-5.863-24.584-7.507-26.774c-1.685-2.245-5.515-1.477-5.961,1.393
				c-0.442,2.838-0.32,2.378,6.16,28.129c0.515,2.048,3.212,2.963,5.027,2.281C630.373,651.013,630.997,648.855,630.486,646.8
				L630.486,646.8z"/>
		</g>
		<g>
			<path style="fill:#F48C7F;" d="M671.663,652.813c2.083-3.6,3.759-7.379,5.031-11.339c1.182-3.68,3.489-9.162,0.385-12.322
				c-0.667-0.679-2.078-0.879-2.923-0.476c-3.534,1.686-3.65,6.922-4.754,10.311c-1.204,3.698-2.806,7.268-4.62,10.704
				c-0.953,1.806,0.1,4.194,1.88,5.002C668.673,655.605,670.636,654.583,671.663,652.813L671.663,652.813z"/>
		</g>
		<g>
			<path style="fill:#F48C7F;" d="M729.152,665.434c0.94-1.653-0.219-3.528-1.637-4.356c-2.919-1.703-7.458,0.688-10.303,1.832
				c-3.314,1.331-6.468,2.98-9.523,4.825c-1.762,1.063-1.976,3.759-0.841,5.322c1.329,1.831,3.517,1.846,5.323,0.842
				C723.958,667.343,726.833,669.514,729.152,665.434z"/>
		</g>
	</g>
	<polygon style="fill:#F7CC7F;" points="1042.846,681.461 1027.178,717.218 987.42,716.494 987.609,706.086 1020.429,706.684 
		1036.616,669.743 1081.019,677.834 1088.751,651.951 1098.477,655.761 1088.324,689.747 	"/>
	<path style="fill:#86B1F2;" d="M1260.036,421.188c-2.736,21.572,19.729,38.694,39.71,37.344
		c22.088-1.493,40.825-19.607,44.056-41.312c3.496-23.494-10.62-42.284-32.459-44.005c-21.26-1.677-34.86,17.247-28.72,36.342
		c4.403,13.691,16.899,18.794,23.194,15.017c4.906-2.944,4.61-10.368-1.33-11.679c-2.381-0.526-4.834,0.802-6.1,2.63
		c-5.2-2.064-10.148-11.532-6.79-21.753c4.29-13.056,20.796-13.804,31.048-7.714c13.049,7.751,15.1,24.441,10.314,37.741
		c-5.025,13.965-18.74,24.965-33.671,26.025c-16.914,1.2-31.799-11.765-33.15-28.614
		C1265.82,417.229,1260.526,417.326,1260.036,421.188z"/>
	<path style="fill:#86B1F2;" d="M2003.5,640.749c-2.108-21.643-27.809-33.364-46.995-27.622
		c-21.209,6.347-35.47,28.162-33.813,50.042c1.793,23.686,19.722,38.882,41.399,35.725c21.103-3.074,30.174-24.539,19.958-41.8
		c-7.325-12.376-20.643-14.586-25.944-9.507c-4.133,3.958-2.198,11.132,3.884,11.095c2.438-0.015,4.537-1.854,5.366-3.915
		c5.527,0.861,12.449,8.998,11.439,19.71c-1.291,13.681-17.223,18.066-28.57,14.398c-14.44-4.669-20.137-20.491-18.416-34.52
		c1.809-14.731,12.746-28.495,27.072-32.835c16.229-4.917,33.614,4.43,38.664,20.561
		C1998.736,645.89,2003.877,644.623,2003.5,640.749z"/>
	<g>
		<path style="fill:#F7A491;" d="M2134.668,1606.788c0,0,2.354,20.286,2.354,23.729c0,3.44,0,3.44,0,3.44l-1.686,3.501l-0.669,1.391
			l12.134,17.026c0,0,48.726,0.725,49.812,0.725c1.088,0-6.52-11.774-6.52-11.774s-16.121-12.137-19.02-20.65
			c-2.898-8.514,2.461-26.265,2.461-26.265L2134.668,1606.788z"/>
		<path style="fill:#F7A491;" d="M1899.803,1485.397c0,0-17.354,10.77-20.049,12.91c-2.695,2.139-2.695,2.139-2.695,2.139
			l-1.694,3.498l-0.673,1.387l-20.88,1.081c0,0-30.862-37.712-31.536-38.563c-0.676-0.85,8.876,1.279,8.876,1.279
			s19.479,2.634,27.949-0.39c8.47-3.023,25.605-19.898,25.605-19.898L1899.803,1485.397z"/>
		<path style="fill:#50BFA5;" d="M2057.504,1295.059l-186.928,159.214l28.802,40.755c0,0,192.089-119.275,202.143-120.632
			c10.053-1.359,18.203,3.26,20.105,10.595c1.901,7.336,6.741,227.444,6.741,227.444h49.906l26.024-277.117L2057.504,1295.059z"/>
		<g>
			<path style="fill:#F7A491;" d="M2326.813,1067.979c13.828-9.066,46.32-43.93,57.323-55.798
				c0.118-1.396,1.168-9.458,10.017-19.705c6.252-7.238,10.983-23.752,15.083-19.071c4.1,4.681-6.071,17.799-1.415,17.886
				c4.656,0.086,27.772-25.896,31.488-21.654c3.715,4.243-19.758,27.339-15.593,27.416c4.167,0.077,23.221-23.315,28.473-17.317
				c5.253,5.998-24.975,25.441-22.156,28.66c2.818,3.218,21.55-9.531,25.777-4.703c4.226,4.826-26.419,16.199-23.968,16.244
				c2.449,0.046,20.133-0.433,20.263,2.971c0.149,3.849-44.733,9.84-50.231,16.503l0,0c-11.729,18.673-32.604,52.779-53.742,67.744
				c-25.866,18.311-85.647,57.152-85.647,57.152l-29.692-38.362C2232.791,1125.944,2310.411,1078.73,2326.813,1067.979z"/>
			<path style="fill:#F48C7F;" d="M2407.822,999.546c1.148,2.268,1.645,4.73,1.806,7.212c-0.089,0.403,1.005,8.423-5.839,14.518
				C2406.455,1016.315,2409.392,1010.806,2407.822,999.546z"/>
		</g>
		<g>
			<path style="fill:#F7A491;" d="M2052.776,1026.011c-10.978-12.366-33.22-54.514-40.739-68.846
				c0.252-1.379,1.347-9.437-4.515-21.64c-4.141-8.621-4.392-25.798-9.571-22.352s1.206,18.768-3.311,17.633
				c-4.516-1.135-20.035-32.257-24.73-29.134c-4.695,3.123,11.922,31.554,7.88,30.54c-4.04-1.015-16.315-28.577-22.951-24.161
				c-6.639,4.416,17.451,31.088,13.89,33.456c-3.561,2.37-18.308-14.834-23.649-11.28c-5.343,3.554,21.263,22.544,18.886,21.947
				c-2.377-0.597-19.32-5.682-20.336-2.432c-1.15,3.675,40.604,21.196,44.169,29.063l0,0c6.437,21.091,17.667,59.47,34.156,79.443
				c20.179,24.438,67.721,77.56,67.721,77.56l38.692-29.263C2128.367,1106.545,2065.793,1040.677,2052.776,1026.011z"/>
			<path style="fill:#F48C7F;" d="M1992.479,938.773c-1.703,1.889-2.824,4.136-3.629,6.49c-0.019,0.411-3.171,7.867,1.841,15.537
				C1989.416,955.317,1988.021,949.23,1992.479,938.773z"/>
		</g>
		<path style="fill:#355389;" d="M2135.393,1113.385L2135.393,1113.385c5.63-8.409,15.323-13.172,25.419-12.485
			c29.681,2.018,89.868,6.775,95.576,12.485c7.607,7.608,30.431,57.236,8.694,126.792c-21.736,69.554-33.691,62.31-51.442,62.31
			s-101.432-39.488-101.432-39.488L2135.393,1113.385z"/>
		<path style="fill:#F7CC7F;" d="M2084.131,1054.335l-34.898,45.524l43.322,64.447c0,0-4.075,47.884-10.326,62.829
			c-6.249,14.942-42.385,76.346-42.385,76.346s87.76,53.797,173.615,45.918c0,0,24.182-124.438,30.975-136.392
			c6.791-11.956,72.271-71.186,72.271-71.186l-31.789-51.356l-54.883,30.435c0,0-100.316-16.211-105.147-21.042
			C2120.055,1095.029,2084.131,1054.335,2084.131,1054.335z"/>
		<path style="fill:#F47458;" d="M2197.338,961.233c0,0-33.871-17.932-45.463,11.774c0,0-30.43-3.079-25.178,28.438
			c0,0-30.612,15.395-11.229,55.063c0,0-8.513,37.314,35.14,39.669c0,0,6.521,13.222,26.445,10.143
			c19.924-3.079,24.995-8.332,24.995-8.332s35.32,10.323,46.008-21.555c0,0,24.272-5.797,7.971-36.951
			c0,0,21.191-40.393-16.121-52.528C2239.905,986.954,2235.558,945.657,2197.338,961.233z"/>
		<path style="fill:#F7A491;" d="M2211.021,1048.736c-2.753,7.681-0.775,15.415,4.415,17.276c5.19,1.859,11.631-2.858,14.384-10.538
			c2.752-7.681,0.774-15.415-4.416-17.276C2220.214,1036.339,2213.773,1041.058,2211.021,1048.736z"/>
		<path style="fill:#F7A491;" d="M2119.659,1029.882c-0.386,8.15,3.767,14.967,9.275,15.229c5.509,0.259,10.288-6.136,10.673-14.286
			c0.385-8.148-3.769-14.967-9.277-15.228C2124.823,1015.337,2120.045,1021.733,2119.659,1029.882z"/>
		<path style="fill:#F7A491;" d="M2158.396,1083.86c0,0.532-4.4,19.445-6.735,29.443c-0.871,3.73,1.017,7.544,4.502,9.135
			c9.313,4.253,27.628,10.187,40.282-1.282c1.152-1.046,1.772-2.558,1.721-4.113l-1.553-45.137L2158.396,1083.86z"/>
		<path style="fill:#F48C7F;" d="M2156.038,1094.45c9.854,4.967,22.251,5.067,36.155-3.083c1.76-1.032,3.416-2.13,4.977-3.287
			l-0.557-16.175l-38.217,11.955C2158.396,1084.118,2157.365,1088.678,2156.038,1094.45z"/>
		<path style="fill:#F7A491;" d="M2185.499,979.644c0,0,16.679,4.407,26.481,20.635c9.801,16.229,15.212,63.142-19.787,83.661
			c-35.002,20.521-60.468-11.26-59.806-41.319C2133.05,1012.56,2146.413,974.133,2185.499,979.644z"/>
		<path style="fill:#466EB6;" d="M2128.39,1101.427c-16.112,12.188-32.982,74.63-39.368,90.932l-5.143,29.94l65.573-115.822
			C2149.452,1106.476,2131.859,1098.804,2128.39,1101.427z"/>
		<path style="fill:#466EB6;" d="M2207.999,1117.229c0,0-1.965,76.939,3.83,103.384c5.797,26.446,20.962,35.688,20.962,35.688
			l7.457-30.767c0,0-7.457-67.952-10.215-104.632C2229.615,1115.332,2207.999,1117.229,2207.999,1117.229z"/>
		<path style="fill:#13375B;" d="M2125.791,1668.336c-7.438-0.943,5.412-26.743,9.546-30.878l54.757,7.367
			c0,0,26.354,12.226,32.604,18.475c1.483,1.484,1.678,4.078-4.755,5.036C2197.277,1671.412,2142.298,1670.427,2125.791,1668.336z"
			/>
		<path style="fill:#13375B;" d="M1856.576,1531.02c6.428,3.863,18.121-21.268,18.788-27.075l-44.213-34.816
			c0,0-34.113-9.781-40.996-2.898C1783.904,1472.478,1841.984,1522.253,1856.576,1531.02z"/>
	</g>
	<polygon style="fill:#96D9C9;" points="1197.862,513.171 1166.075,554.115 1234.539,566.15 	"/>
	<g>
		<polygon style="fill:#466EB6;" points="1616.638,318.084 1695.431,426.221 1747.597,369.163 		"/>
		<polygon style="fill:#9BC1F9;" points="1754.66,339.276 1747.597,369.163 1616.638,318.084 		"/>
		<polygon style="fill:#9BC1F9;" points="1747.597,380.575 1616.638,318.084 1738.359,426.221 		"/>
		<path style="fill:#F7CC7F;" d="M1827.141,510.159c-0.966-0.092-23.985-2.461-53.155-20.624
			c-29.285-18.234-40.245-50.057-40.245-55.164c0-1.95,1.581-3.532,3.531-3.532c1.929,0,3.496,1.545,3.531,3.464
			c0.315,3.404,9.675,32.273,36.917,49.235c27.654,17.219,49.874,19.566,50.095,19.588c1.939,0.19,3.361,1.915,3.174,3.855
			C1830.802,508.921,1829.082,510.344,1827.141,510.159z M1740.804,434.332c0,0.013,0,0.026,0,0.039
			C1740.804,434.359,1740.804,434.346,1740.804,434.332z"/>
		<path style="fill:#F7CC7F;" d="M1970.274,542.148c-40.822-8.188-79.874-23.262-116.07-44.803
			c-29.813-17.741-53.851-44.79-84.262-59.807c-1.75-0.863-2.468-2.982-1.604-4.731c0.864-1.749,2.982-2.467,4.732-1.603
			c31.477,15.544,55.328,42.565,84.746,60.07c35.509,21.131,73.812,35.917,113.849,43.948c14.713,2.951,32.151,4.031,51.829,3.212
			c1.955-0.079,3.595,1.434,3.675,3.382c0.082,1.949-1.432,3.594-3.382,3.675C2006.314,546.22,1987.499,545.604,1970.274,542.148z"
			/>
	</g>
	<g>
		<path style="fill:#F48C7F;" d="M1015.779,1114.17c1.76-0.118,15.074,21.374,23.406,54.338
			c8.332,32.967,26.082,93.826,26.082,93.826s28.801,58.145,36.589,65.933c7.789,7.789,15.342-0.264,23.185,2.174
			c2.422,0.753,9.896,7.245,9.896,7.245s13.47,29.162,11.478,31.155c-1.993,1.993-22.823,7.607-37.314,2.898
			c-14.49-4.709-81.871-83.684-81.871-83.684S972.306,1117.093,1015.779,1114.17z"/>
		<path style="fill:#F4C0B8;" d="M1279.003,1140.402l-6.521-6.762c0,0-11.955,21.465-25.721,51.893
			c-13.766,30.431-30.25,67.926-35.865,73.54c-5.615,5.616-52.89,70.632-67.2,76.973c-14.309,6.339-9.88,3.561-21.373,2.183
			c-8.629-1.034-7.685,5.211-2.069,8.107c1.513,0.782,3.235,1.302,6.677,3.745c6.834,4.852,12.688,11.742,16.975,15.756
			c1.659,1.552-1.805,4.395-3.752,2.448c-2.009-2.01-8.82-12.532-11.672-12.532c-2.852,0-0.951,7.199,0.272,9.509
			c1.222,2.309-1.495,1.63-3.939-4.075c-2.446-5.704-4.212-11.411-7.744-10.597c-2.847,0.657-1.105,8.547-0.322,11.586
			c-0.819-2.892-3.076-10.091-5.247-10.091c-2.717,0-3.94,0.272-3.94,5.639s1.902,11.116,8.151,15.848
			c6.249,4.733,23.744,1.573,30.935-1.289c4.914-1.957,9.802-9.937,14.722-12.59c21.978-11.856,44.559-26.009,72.531-63.305
			c34.233-45.646,47.586-86.401,47.586-86.401L1279.003,1140.402z"/>
		<path style="fill:#F4C0B8;" d="M1266.324,1658.29c0,0-3.623-15.215,0-33.69c3.623-18.476,23.185-112.665,23.185-132.227
			c0-19.564,9.418-48.182,9.418-48.182l-57.599-14.491l-5.796,56.151c0,0-3.08,130.959-8.333,136.211
			c-5.253,5.253-27.464,13.012-34.416,13.012c-7.78,0-20.105,0.523-20.105,4.443c0,3.919,1.087,6.456,1.087,6.456L1266.324,1658.29z
			"/>
		<path style="fill:#F4C0B8;" d="M1334.908,1435.931l7.128,48.472c0,0,16.951,142.055,13.042,145.963
			c-3.908,3.91-21.673,15.354-29.824,16.262c-8.151,0.905-19.624,6.41-19.624,10.756c0,8.786,91.652,1.654,91.652,1.654
			s2.898-6.544,0-16.145c-2.898-9.6-2.898-23.184-2.898-25.358c0-2.173,0.181-0.361,0.181-3.803c0-3.443,0-4.528,0-4.528
			s11.049-67.743-0.725-110.491l-4.166-82.958L1334.908,1435.931z"/>
		<path style="fill:#184655;" d="M953.781,961.929c0,0-21.192-0.251-35.864,8.025c-14.621,8.247-18.548,27.924-18.822,43.307
			c-0.354,19.863,6.165,39.859,18.55,55.445c12.404,15.608,34.234,22.623,34.234,22.623l61.433-39.161c0,0,7.306-18.24,2.144-42.692
			C1010.294,985.022,1011.652,958.124,953.781,961.929z"/>
		<path style="fill:#F48C7F;" d="M1057.298,1595.208c0,0,20.286,29.162,21.735,33.146c1.449,3.984,11.412,30.431,11.412,30.431
			l77.887-37.855l-59.592-18.114l-11.955-26.083L1057.298,1595.208z"/>
		<path style="fill:#355389;" d="M955.14,1388.766l63.578,132.587l41.841,83.684c0,0,37.132-14.309,46.37-23.546l-30.068-105.419
			l-34.234-122.083l-71.966-6.544L955.14,1388.766z"/>
		<path style="fill:#F48C7F;" d="M895.185,1608.659c0,0,2.898,19.562,2.898,20.83c0,1.269-4.348,20.106-5.073,25.178
			c-0.725,5.07,0,9.057,0,9.057l73.812-17.66c0,0-10.958-7.156-20.74-12.59c-9.781-5.434-11.23-31.336-11.23-31.336
			L895.185,1608.659z"/>
		<path style="fill:#86B1F2;" d="M884.86,1353.988c0,0,12.643,79.528,10.868,106.144c-2.55,38.21-12.68,52.889-5.435,153.089h51.442
			c0,0,3.623-53.829,11.592-95.489c7.97-41.66,25.358-111.577,25.358-111.577l28.619-64.504L884.86,1353.988z"/>
		<path style="fill:#F48C7F;" d="M914.625,1054.99c2.482,7.772,8.753,12.713,14.006,11.034c5.253-1.677,7.499-9.336,5.017-17.109
			c-2.482-7.772-8.753-12.711-14.006-11.034C914.388,1039.559,912.143,1047.219,914.625,1054.99z"/>
		<path style="fill:#F48C7F;" d="M1001.979,1038.398c0.69,8.131,5.705,14.342,11.2,13.876c5.495-0.468,9.389-7.436,8.698-15.566
			c-0.691-8.129-5.705-14.34-11.201-13.874C1005.182,1023.301,1001.287,1030.27,1001.979,1038.398z"/>
		<g>
			<path style="fill:#966259;" d="M1757.01,1063.272c11.625-12.583,36.102-64.957,44.378-79.837
				c-0.177-1.488-0.839-10.16,5.67-22.86c4.599-8.973,5.769-27.311,10.759-23.332c4.988,3.979-2.213,19.982,2.357,19.03
				c4.572-0.952,21.739-33.311,26.261-29.705c4.52,3.607-13.6,33.028-9.511,32.175c4.091-0.852,17.827-29.592,24.219-24.494
				c6.392,5.099-19.098,32.21-15.667,34.946c3.429,2.736,19.076-14.797,24.22-10.692c5.144,4.104-22.442,22.863-20.035,22.362
				c2.404-0.5,19.596-4.96,20.436-1.429c0.952,3.993-41.685,20.312-45.666,28.512l0,0c-7.561,22.163-20.835,62.522-38.375,82.912
				c-21.461,24.95-83.202,94.132-83.202,94.132l-25.649-48.647C1677.203,1136.345,1743.223,1078.192,1757.01,1063.272z"/>
			<path style="fill:#6B4744;" d="M1821.905,964.911c1.599,2.116,2.598,4.581,3.273,7.142c-0.002,0.441,2.746,8.587-2.671,16.494
				C1824.077,982.762,1825.796,976.339,1821.905,964.911z"/>
		</g>
		<path style="fill:#FAE0B2;" d="M889.711,1128.6c0,0,5.977,154.203,0,183.004c-5.977,28.8-8.721,47.485-8.721,47.485
			s82.623,16.091,161.958-5.101c0,0-11.955-53.796-17.389-109.767c-5.434-55.97-9.781-130.052-9.781-130.052
			s-30.082-2.243-53.253-0.118C909.856,1118.879,889.711,1128.6,889.711,1128.6z"/>
		<path style="fill:#F48C7F;" d="M938.838,1074.955l-2.327,42.192c0,0,3.957,23.287,27.051,24.646
			c23.094,1.357,16.302-48.362,16.302-48.362l-1.358-18.476H938.838z"/>
		<path style="fill:#F27A6A;" d="M979.122,1106.743c0.556,0,1.109-0.013,1.656-0.039c-0.128-7.529-0.914-13.274-0.914-13.274
			l-1.358-18.476h-39.668l-0.349,6.332C943.465,1089.759,958.109,1106.743,979.122,1106.743z"/>
		<path style="fill:#3C8F7C;" d="M894.415,1639.136c0,0,2.717-2.718,12.227-1.903c9.51,0.815,57.192,6.113,59.23,6.113
			s29.321,20.717,30.543,24.476c1.223,3.759-58.936,1.3-58.936,1.3h-45.803C891.676,1669.121,887.351,1655.437,894.415,1639.136z"/>
		<path style="fill:#3C8F7C;" d="M1083.381,1638.136c0,0-2.787,1.875-2.787,4.412c0,1.683,2.837,13.131,6.122,21.277
			c1.916,4.752,7.555,6.758,12.042,4.283l82.616-45.549c0,0,6.021-5.217-32.944-7.681L1083.381,1638.136z"/>
		<path style="fill:#F48C7F;" d="M889.711,1128.6c0,0-11.734,5.132-18.617,21.071c-6.882,15.94-28.981,88.029-14.128,131.139
			c0,0,6.691,32.775,41.107,55.237c34.415,22.46,94.425,27.858,97.821,24.462c3.396-3.396,3.532-9.285,3.532-13.064
			c0-3.781,7.88-5.683,7.88-10.846c0-5.162-13.314-6.067-28.619-6.067c0,0-2.717-0.272,0.634-2.807
			c3.351-2.537,7.607-5.707,6.883-10.506c-0.725-4.8-3.849-4.574-6.793-1.63c-2.944,2.943-12.679,10.867-20.468,8.604
			c-7.789-2.265-53.796-40.03-61.404-51.986C897.54,1272.206,900.579,1131.165,889.711,1128.6z"/>
		<path style="fill:#50BFA5;" d="M1272.483,1133.641c0,0,24.793-13.759,51.116-16.845c26.322-3.085,64.083,6.792,64.083,6.792
			l21.773,314.396c0,0-97.806,46.458-171.161,0c0,0,19.697-132.009,19.697-150.569c0-18.559,0-18.559,0-18.559L1272.483,1133.641z"
			/>
		<path style="fill:#13375B;" d="M1172.719,1642.257c-2.608-0.296-5.073,1.244-5.953,3.715c-1.015,2.848-0.567,5.394,1.566,7.527
			c3.894,3.894,71.864,15.026,95.592,14.503c2.519-0.056,6.113-7.54,2.4-9.712
			C1260.521,1654.892,1190.646,1644.284,1172.719,1642.257z"/>
		<path style="fill:#13375B;" d="M1192.784,1635.074l5.615,11.441l12.498,3.442c0,0-5.796-20.469-10.868-19.563
			C1194.958,1631.3,1192.784,1635.074,1192.784,1635.074z"/>
		<path style="fill:#13375B;" d="M1305.62,1658.116c-2.384-0.007-4.528,1.503-5.268,3.77c-0.596,1.826-0.797,3.915,0.568,5.279
			c2.898,2.898,100.23,0.905,100.23,0.905s2.353-7.239-1.882-8.694C1396.468,1658.413,1322.549,1658.161,1305.62,1658.116z"/>
		<path style="fill:#13375B;" d="M1334.952,1642.525c-0.875-1.588-7.587,0.096-9.697,4.101l8.631,12.401l10.146-0.035
			L1334.952,1642.525z"/>
		<path style="fill:#966259;" d="M1551.621,1579.678c0,0-3.924,34.054-10.295,48.906c-6.37,14.853-27.381,24.229-45.857,27.873
			c-18.476,3.644-12.321,6.551-9.613,9.259c2.707,2.707,82.791,4.535,96.918,1.977c0,0-5.434-27.879-5.434-32.226
			c0-4.348,22.099-72.816,22.099-72.816L1551.621,1579.678z"/>
		<path style="fill:#F47458;" d="M1582.774,1667.693c0,0-1.106-5.676-2.321-12.307c-15.448,2.074-50.795-1.542-68.503-3.609
			c-5.423,2.049-12.008,2.664-17.428,3.732c-18.475,3.644-17.088,8.485-12.457,11.857
			C1485.161,1669.618,1568.646,1670.251,1582.774,1667.693z"/>
		<path style="fill:#966259;" d="M1709.185,1571.701c0,0-2.167,41.848,2.316,56.883c4.619,15.486,11.234,18.147,29.378,23.193
			c17.813,4.952,11.05,12.882,8.343,15.589c-2.708,2.707-65.039,2.885-79.169,0.327c0,0,5.434-27.879,5.434-32.226
			c0-4.348-6.598-74.716-6.598-74.716L1709.185,1571.701z"/>
		<path style="fill:#F47458;" d="M1670.053,1667.693c0,0,1.107-5.676,2.322-12.307c15.449,2.074,50.795-1.542,68.504-3.609
			c6.123,1.485,11.083,2.709,16.48,4.68c17.688,6.459,16.11,8.202,13.402,10.909
			C1768.057,1670.073,1684.183,1670.251,1670.053,1667.693z"/>
		<path style="fill:#F4C0B8;" d="M1387.682,1123.588c0,0-21.192,24.995-10.325,66.838c10.869,41.841,37.132,108.498,69.556,145.602
			c5.25,6.007,17.388,18.686,22.822,22.307c5.433,3.623,28.438,6.158,28.438,6.158s10.144-31.154,7.245-34.053
			c-2.898-2.898-27.26-3.169-33.872-9.781C1464.935,1314.049,1400.724,1123.588,1387.682,1123.588z"/>
		<path style="fill:#966259;" d="M1592.667,1123.044c0,0-6.103,3.805-10.448,15.035c-4.348,11.229-26.898,103.607-30.158,117.011
			c-2.518,10.352-25.389,40.741-36.739,55.381c-3.349,4.316-5.924,7.924-7.548,7.924c-9.963,0-26.499,5.529-26.499,9.653
			c0,4.125,3.905,4.566,10.426,3.117c6.521-1.449,1.582,5.615-0.772,7.97c-2.355,2.357-12.384,15.783-8.831,19.337
			c3.553,3.552,12.09,6.021,16.076,6.021c2.164,0,6.56-0.24,14.584-6.789c6.755-5.511,16.688-16.783,23.97-23.279
			c26.201-23.365,47.756-72.452,51.74-83.683C1592.452,1239.513,1592.667,1123.044,1592.667,1123.044z"/>
		<path style="fill:#F4C0B8;" d="M1508.724,1341.762c0,0,2.718,0.271,2.718,5.569c0,5.299-4.619,13.45-7.743,16.574
			c-3.125,3.125-31.739-4.476-31.739-4.476s10.41,0.265,13.964-4.147c1.591-1.976,4.596-11.21,7.585-11.21
			c2.988,0-0.272,12.498-0.272,12.498s5.708-16.438,8.695-16.438c2.984,0,3.261,2.989,1.902,8.015
			C1502.475,1353.174,1506.885,1340.313,1508.724,1341.762z"/>
		<path style="fill:#466EB6;" d="M1531.714,1583.064c0,0,42.383,11.41,90.47,11.41c48.088,0,142.634-24.452,142.634-24.452
			s-26.081-63.03-35.046-111.391c-8.967-48.358-15.486-131.494-15.486-131.494h-143.479l-8.967,57.553L1531.714,1583.064z"/>
		<path style="fill:#FAE0B2;" d="M1592.667,1123.044c0,0-9.362,10.868-9.362,44.559c0,33.691-1.63,84.227-4.346,101.615
			c-2.719,17.389-10.87,60.589-10.87,60.589s23.909,19.834,85.857,14.4c61.947-5.434,65.208-13.767,65.208-13.767
			s-8.694-140.015-8.694-154.686c0-14.672-13.299-57.117-13.299-57.117s-35.788-3.693-52.09-2.438
			C1628.769,1117.452,1592.667,1123.044,1592.667,1123.044z"/>
		<path style="fill:#13375B;" d="M1564.515,990.805c0,0-26.069,7.396-23.909,34.151c1.991,24.677,14.127,23.426,14.127,23.426
			s-8.874,34.981,17.932,45.125c25.275,9.563,34.779,0,34.779,0s10.965,29.048,48.459,17.834
			c37.495-11.215,34.136-33.955,34.136-33.955s15.974,6.283,34.449-23.061c18.475-29.344,7.936-50.479-16.518-63.52
			c0,0,8.14-37.359-29.245-43.336c-37.386-5.978-46.554,14.536-46.554,14.536s-6.655-22.898-46.465-7.141
			C1559.623,965.188,1564.515,990.805,1564.515,990.805z"/>
		<path style="fill:#966259;" d="M1667.805,1046.808c-2.753,7.681-0.777,15.415,4.415,17.274c5.19,1.861,11.631-2.856,14.384-10.538
			c2.752-7.679,0.774-15.413-4.416-17.274C1676.997,1034.409,1670.557,1039.127,1667.805,1046.808z"/>
		<path style="fill:#966259;" d="M1582.803,1054.429c1.256,8.062,6.693,13.907,12.141,13.058c5.45-0.85,8.847-8.073,7.589-16.135
			c-1.257-8.059-6.693-13.907-12.142-13.057C1584.943,1039.143,1581.544,1046.368,1582.803,1054.429z"/>
		<path style="fill:#966259;" d="M1627.502,1089.717l1.447,31.697c0,0,0.725,12.318,13.585,13.947
			c12.861,1.63,24.634-8.316,24.634-18.295c0-1.267-6.339-44.739-6.339-44.739L1627.502,1089.717z"/>
		<path style="fill:#6B4744;" d="M1660.829,1072.327l-33.327,17.39l0.514,11.274c6.03,0.041,14.969-0.438,22.127-4.709
			c6.018-3.591,9.373-8.15,12.07-14.438C1661.406,1076.284,1660.829,1072.327,1660.829,1072.327z"/>
		<path style="fill:#F48C7F;" d="M1120.255,1337.393c0,0,8.115,5.251,12.937,4.098c4.822-1.158,2.444-3.622,0.181-5.886
			c-2.264-2.265-8.332-5.165-8.332-5.165L1120.255,1337.393z"/>
		<path style="fill:#F48C7F;" d="M959.789,984.069c-13.158,1.943-22.781,11.259-29.772,22.637
			c-13.857,22.551-2.59,55.749,1.214,63.357c3.804,7.608,19.018,27.171,41.569,27.171c22.551,0,38.31-20.649,40.212-40.755
			c2.545-26.919-4.662-60.466-30.28-69.823C975.749,984.105,967.478,982.934,959.789,984.069z"/>
		<path style="fill:#13375B;" d="M1322.746,984.751c0,0-11.139-0.544-23.637,5.434c-12.499,5.977-25.54,32.853-25.54,56.762
			c0,14.552-6.44,20.558-11.482,23.03c-2.708,1.327-3.435,4.839-1.442,7.106c4.927,5.602,10.057,11.754,16.526,15.519
			c24.514,14.263,49.206,14.695,76.761,9.643c22.167-4.064,43.084-14.044,58.808-30.401c2.96-3.081,2.153-8.164-1.61-10.186
			c-5.204-2.798-11.34-8.814-13.666-21.751C1393.116,1015.725,1384.15,973.067,1322.746,984.751z"/>
		<path style="fill:#F4C0B8;" d="M1355.962,1050.724c-1.77,7.965,1.159,15.392,6.542,16.587c5.383,1.197,11.182-4.288,12.952-12.254
			c1.77-7.964-1.159-15.39-6.542-16.587C1363.531,1037.274,1357.732,1042.76,1355.962,1050.724z"/>
		<ellipse style="fill:#F4C0B8;" cx="1286.304" cy="1040.102" rx="9.985" ry="14.772"/>
		<path style="fill:#F4C0B8;" d="M1310.158,1092.615l-2.717,37.313c0,0,1.268,8.513,11.411,10.325
			c10.143,1.81,31.699-13.224,31.699-21.193l-5.072-43.109L1310.158,1092.615z"/>
		<path style="fill:#F7A491;" d="M1308.833,1110.817c16.02,0.8,28.913-6.422,38.445-19.576l-1.798-15.291l-35.321,16.665
			L1308.833,1110.817z"/>
		<path style="fill:#F4C0B8;" d="M1285.252,1059.195c2.445,13.856,6.521,38.244,28.256,40.755
			c21.736,2.513,38.038-9.238,48.362-30.43c10.324-21.192,7.879-49.177,2.174-63.033c-4.534-11.01-24.103-10.483-33.715-10.321
			C1298.114,996.707,1279.838,1028.513,1285.252,1059.195z"/>
		<path style="fill:#13375B;" d="M1317.041,991.724c0,0-0.339,17.82,14.49,32.649c14.831,14.83,44.646,22.573,44.646,22.573
			l3.536,8.369c0,0,4.709-26.64-6.521-44.392C1361.961,993.174,1317.041,991.724,1317.041,991.724z"/>
		<path style="fill:#966259;" d="M1644.629,986.963c0,0,15.776,4.504,25.223,20.428c9.446,15.923,15.147,61.659-17.579,81.187
			c-32.725,19.526-54.604-11.825-56.896-40.989C1592.667,1013.098,1607.718,981.097,1644.629,986.963z"/>
	</g>
	<path style="fill:#F79C8D;" d="M2689.971,1565.814c0,0,15.538,63.369,27.118,73.318c11.582,9.95,49.346,28.981,39.464,31.028
		c-9.881,2.048-83.015,3.75-81.009-8.448c2.003-12.199,4.107-19.976,4.107-19.976l-19.344-45.262L2689.971,1565.814z"/>
	<path style="fill:#13375B;" d="M2761.471,1672.76c-17.836,1.774-69.914,3.649-85.088,1.71c0,0-2.845-0.56-0.839-12.758
		c0.489-2.982,0.985-5.7,1.454-8.104c13.761,3.616,43.731-4.081,55.605-5.656c12.897,6.176,27.434,15.396,32.123,16.166
		C2771.518,1665.232,2771.511,1671.761,2761.471,1672.76z"/>
	<path style="fill:#F79C8D;" d="M2519.431,1618.941c0,0-1.63,16.03-1.63,23.095c0,7.063,6.581,26.988,3.531,30.037
		c-3.048,3.05-90.158,2.672-90.158-0.195c0-2.868,15.393-11.565,36.314-17.541c20.921-5.978,28.033-29.146,22.6-42.459
		L2519.431,1618.941z"/>
	<path style="fill:#13375B;" d="M2429.77,1672.073c0-2.672,14.284-10.883,32.786-16.535c19.714,6.662,47.092,1.166,57.356-0.796
		c3.141,8.214,4.145,16.002,2.528,17.618C2519.393,1675.41,2429.77,1674.941,2429.77,1672.073z"/>
	<path style="fill:#FAE0B2;" d="M2613.981,1351.048l15.622,13.857c0,0,17.588,47.616,18.611,50.76
		c1.425,4.37,58.395,187.955,58.395,187.955l-39.689,14.282c0,0-39.354-76.666-45.875-103.293
		c-6.52-26.626-71.727-138.022-71.727-138.022L2613.981,1351.048z"/>
	<path style="fill:#FAE0B2;" d="M2544.97,1379.304l-19.019,243.318h-44.015c0,0-15.76-182.096-10.324-246.035L2544.97,1379.304z"/>
	<path style="fill:#50BFA5;" d="M2467.809,1134.233c0,0,27.984-7.337,59.775-9.102c16.46-0.914,38.579,2.58,38.579,2.58
		s20.105,45.102,26.081,82.053c5.979,36.951,38.583,155.411,38.583,155.411s-66.296,51.078-163.019,17.39V1134.233z"/>
	<path style="fill:#F79C8D;" d="M2543.159,1093.841c0,0-0.87,28.851,1.839,31.56c2.709,2.709,6.494,7.203,2.508,14.085
		c-3.985,6.883-21.282,2.491-29.344-1.448c-7.736-3.781-12.729-10.817-12.729-10.817l4.035-45.696L2543.159,1093.841z"/>
	<path style="fill:#B75742;" d="M2531.657,1105.796c-5.556-1.944-15.263-5.698-22.753-17.874l0.564-6.398l33.69,12.317
		c0,0-0.214,7.039-0.101,14.488C2538.337,1108.135,2534.306,1106.722,2531.657,1105.796z"/>
	<path style="fill:#F79C8D;" d="M2503.532,1048.897c0,0-0.818-16.96-11.234-13.667c-10.419,3.293-2.478,28.894,6.157,28.051
		C2507.092,1062.439,2503.532,1048.897,2503.532,1048.897z"/>
	<path style="fill:#F79C8D;" d="M2536.276,993.493c0,0,16.302-0.362,24.634,12.318c8.33,12.678,17.388,48.904,3.621,73.901
		c-13.766,24.995-31.334,18.837-38.58,16.302c-7.245-2.536-21.555-8.152-28.8-31.518
		C2489.907,1041.13,2495.158,988.602,2536.276,993.493z"/>
	<path style="fill:#355389;" d="M2470.924,1133.467c7.433,16.78,25.719,52.91,24.878,92.76
		c-0.882,41.741-32.273,68.833-32.273,68.833v20.633c0,0,34.646-5.458,47.89-59.392c13.245-53.932-18.623-127.2-18.623-127.2
		s-4.547-3.243-13.564-0.727C2473.22,1130.051,2470.924,1133.467,2470.924,1133.467z"/>
	<path style="fill:#355389;" d="M2547.029,1124.979c0,0,26.034,140.122,59.8,149.204l-5.875-23.889
		c0,0-34.791-113.365-34.791-122.582S2547.029,1124.979,2547.029,1124.979z"/>
	<g>
		<polygon style="fill:#F47458;" points="2617.469,1364.745 2516.454,1364.745 2516.454,1249.635 2617.469,1254.124 		"/>
		<g>
			<path style="fill:#B75742;" d="M2617.469,1245.146h-96.526c-2.479,0-4.488,2.009-4.488,4.488l0,0
				c0,2.479,2.009,4.489,4.488,4.489h96.526l-0.083-0.031C2610.717,1251.59,2610.753,1247.632,2617.469,1245.146z"/>
			<path style="fill:#FAE0B2;" d="M2614.708,1246.475h-90.442c-1.747,0-3.161,1.414-3.161,3.16l0,0c0,1.745,1.414,3.159,3.161,3.159
				h90.44C2611.643,1250.838,2611.648,1248.429,2614.708,1246.475z"/>
		</g>
		<g>
			<path style="fill:#13375B;" d="M2573.192,1247.121h-6.36c-1.367,0-2.477,1.108-2.477,2.475v0.223h8.837V1247.121z"/>
			<path style="fill:#355389;" d="M2567.093,1247.13c1.521,0,3.79,1.285,5.071,2.874l15.086,18.71l8.861-0.006l-14.349-17.794
				c-1.688-2.094-4.682-3.79-6.685-3.788L2567.093,1247.13z"/>
		</g>
	</g>
	<path style="fill:#F79C8D;" d="M2467.809,1134.233c0,0,7.618,7.634,15.77,36.582c8.15,28.951,12.305,96.73,19.369,103.794
		c7.063,7.065,53.254,43.834,61.584,42.567c8.332-1.268,26.99-23.004,32.785-23.004c5.798,0,5.073,5.251,2.175,8.151
		c-2.899,2.898-6.43,6.248-4.71,7.971c1.721,1.72,1.721,1.72,1.721,1.72s25.813-6.792,30.158-4.257
		c4.348,2.537-4.166,8.513-4.166,12.86s1.064,4.27,0.543,9.058c-0.52,4.787-1.721,8.603-3.984,10.867
		c-2.265,2.265-30.793,10.506-58.687,6.702c-27.894-3.804-61.948-17.208-87.124-48.362
		c-25.178-31.155-20.135-129.074-19.563-138.838C2455.129,1135.319,2467.809,1134.233,2467.809,1134.233z"/>
	<g>
		<g>
			<path style="fill:#F7CC7F;" d="M2449.903,816.522c9.604,25.354,37.938,38.121,63.287,28.514
				c25.349-9.606,38.113-37.947,28.509-63.302c-9.602-25.353-37.938-38.119-63.287-28.513
				C2453.064,762.828,2440.299,791.168,2449.903,816.522z"/>
			<path style="fill:#EFEFEF;" d="M2523.096,797.101c5.135,13.556-1.691,28.709-15.243,33.845
				c-13.553,5.137-28.702-1.689-33.837-15.245L2523.096,797.101z"/>
		</g>
	</g>
</g>
</svg>
