<?xml version="1.0" encoding="utf-8"?>
<!-- Generator: Adobe Illustrator 27.5.0, SVG Export Plug-In . SVG Version: 6.00 Build 0)  -->
<svg version="1.1" xmlns="http://www.w3.org/2000/svg" xmlns:xlink="http://www.w3.org/1999/xlink" x="0px" y="0px"
	 viewBox="0 0 750 500" style="enable-background:new 0 0 750 500;" xml:space="preserve">
<g id="BACKGROUND">
	<polygon style="fill:#FFFFFF;" points="0,0 0,124.501 0,235.856 0,402.725 0,500 221.024,500 750,500 750,232.207 750,140.873 
		750,81.61 750,12.454 750,0 	"/>
</g>
<g id="OBJECTS">
	<g>
		<g>
			<g>
				<path style="fill:#CE5679;" d="M148.908,416.163c-0.159-1.792-1.828-3.222-3.057-4.368c-1.399-1.304-2.933-2.427-4.543-3.453
					c-0.876-0.559-0.862-1.198-0.893-2.18c-0.036-1.155-0.068-2.311-0.102-3.466c-0.068-2.311-0.136-4.622-0.204-6.932
					c-0.03-1.011-0.06-2.022-0.089-3.033c-0.031-1.055,0.069-2.225-0.184-3.258c-0.531-2.174-3.333-2.291-5.139-2.663
					c-2.367-0.487-4.756-0.864-7.156-1.146c-4.959-0.582-9.959-0.694-14.94-0.366c-0.718,0.047-1.069,0.648-1.05,1.208
					c-0.654-0.343-1.657-0.039-1.638,0.919c0.087,4.572,0.174,9.143,0.261,13.715c0.043,2.249,0.068,4.5,0.128,6.749
					c0.05,1.858,0.464,3.341,2.026,4.469c1.535,1.109,3.391,1.899,5.108,2.678c1.799,0.816,3.636,1.553,5.505,2.196
					c3.807,1.311,7.739,2.229,11.728,2.767c2.027,0.273,4.064,0.452,6.108,0.522c1.877,0.064,3.957,0.224,5.706-0.589
					C147.915,419.266,149.054,417.803,148.908,416.163z"/>
				<path style="fill:#FF9D14;" d="M136.042,397.936c-3.637-0.384-7.324,0.635-10.243,2.839c-1.11,0.838-0.021,2.738,1.104,1.889
					c2.657-2.005,5.828-2.89,9.139-2.54C137.441,400.272,137.43,398.083,136.042,397.936z"/>
				<path style="fill:#FF9D14;" d="M137.27,402.352c-3.478,0.134-6.714,1.483-9.255,3.863c-1.029,0.965,0.52,2.509,1.547,1.547
					c2.109-1.977,4.819-3.112,7.708-3.223C138.673,404.486,138.68,402.298,137.27,402.352z"/>
				<path style="fill:#FF9D14;" d="M138.505,406.947c-2.706,0.005-5.091,1.292-6.669,3.469c-0.827,1.141,1.07,2.234,1.889,1.104
					c1.117-1.542,2.893-2.382,4.78-2.386C139.913,409.132,139.915,406.945,138.505,406.947z"/>
				<path style="fill:#FF9D14;" d="M141.52,410.392c-1.84,0.519-3.367,1.67-4.399,3.275c-0.764,1.188,1.129,2.286,1.889,1.104
					c0.724-1.127,1.805-1.907,3.091-2.27C143.454,412.12,142.88,410.008,141.52,410.392z"/>
			</g>
			<g>
				<path style="fill:#CE5679;" d="M197.333,416.163c-0.159-1.792-1.828-3.222-3.058-4.368c-1.398-1.304-2.933-2.427-4.543-3.453
					c-0.876-0.559-0.862-1.198-0.893-2.18c-0.036-1.155-0.068-2.311-0.102-3.466c-0.068-2.311-0.136-4.622-0.204-6.932
					c-0.03-1.011-0.06-2.022-0.089-3.033c-0.031-1.055,0.069-2.225-0.184-3.258c-0.531-2.174-3.333-2.291-5.139-2.663
					c-2.367-0.487-4.756-0.864-7.156-1.146c-4.959-0.582-9.959-0.694-14.94-0.366c-0.718,0.047-1.069,0.648-1.05,1.208
					c-0.654-0.343-1.657-0.039-1.639,0.919c0.087,4.572,0.174,9.143,0.261,13.715c0.043,2.249,0.068,4.5,0.129,6.749
					c0.05,1.858,0.464,3.341,2.026,4.469c1.535,1.109,3.391,1.899,5.108,2.678c1.799,0.816,3.636,1.553,5.505,2.196
					c3.807,1.311,7.738,2.229,11.728,2.767c2.027,0.273,4.064,0.452,6.108,0.522c1.877,0.064,3.957,0.224,5.706-0.589
					C196.34,419.266,197.479,417.803,197.333,416.163z"/>
				<path style="fill:#FF9D14;" d="M183.638,398.959c-3.695-1.174-7.825-0.114-10.513,2.675c-0.977,1.014,0.568,2.563,1.547,1.547
					c2.174-2.255,5.403-3.059,8.385-2.112C184.401,401.495,184.977,399.384,183.638,398.959z"/>
				<path style="fill:#FF9D14;" d="M184.404,403.152c-2.997-0.544-5.92-0.178-8.694,1.074c-1.281,0.578-0.17,2.464,1.104,1.889
					c2.195-0.99,4.641-1.283,7.008-0.853C185.199,405.511,185.79,403.403,184.404,403.152z"/>
				<path style="fill:#FF9D14;" d="M185.307,407.328c-2.079,0.153-4.085,0.591-6.02,1.371c-1.289,0.52-0.726,2.637,0.582,2.109
					c1.75-0.706,3.554-1.154,5.439-1.293C186.702,409.413,186.713,407.225,185.307,407.328z"/>
				<path style="fill:#FF9D14;" d="M189.411,411.036c-1.826,0.229-3.512,0.827-5.004,1.922c-1.124,0.824-0.033,2.723,1.104,1.889
					c1.16-0.851,2.463-1.443,3.9-1.623C190.789,413.051,190.806,410.861,189.411,411.036z"/>
			</g>
		</g>
		<g>
			<g>
				<path style="fill:#9B683F;" d="M188.485,188.778c-0.103-0.336-0.312-0.552-0.562-0.666c1.233-7.336,1.076-14.835-0.471-22.133
					c-0.233-1.101-1.628-0.948-2.028-0.14c-0.073-0.182-0.196-0.352-0.382-0.493c-1.921-1.448-3.078-3.643-4.105-5.764
					c-1.088-2.247-2.14-4.513-3.202-6.773c0.227-0.459,0.156-1.026-0.447-1.305c-2-0.926-3.787-2.198-5.268-3.794
					c0.045-0.128,0.09-0.256,0.125-0.392c0.256-0.981-0.764-1.557-1.489-1.295c-0.005-0.007-0.011-0.014-0.016-0.022
					c-0.5-0.716-1.383-0.683-1.889,0c-1.268,1.712-3.261,2.75-5.379,2.869c-0.773,0.044-1.121,0.73-1.041,1.323
					c-1.092,0.082-2.176,0.008-3.173-0.394c0.997-0.828,1.233-2.395,2.11-3.326c0.965-1.024,0.128-1.898-0.84-0.871
					c-2.804,2.973-6.197,5.514-10.203,6.568c-1.938,0.51-4.003,0.659-5.986,0.338c-1.764-0.285-4.466-0.977-5.443-2.628
					c-0.123-0.208-0.281-0.346-0.455-0.429c-0.173-0.659-0.841-1.157-1.522-0.639c-3.058,2.326-6.477,4.105-10.104,5.261
					c-0.313-0.303-0.785-0.447-1.28-0.2c-2.881,1.435-6.31,1.43-9.187-0.011c-0.639-0.32-1.391-0.054-1.607,0.654
					c-1.486,4.878-3.409,9.605-5.78,14.119c-0.645,1.227-7.125,12.704-8.142,12.02c-0.438-0.294-0.864-0.214-1.167,0.042
					c-5.837-2.666-13.039-0.203-15.738,5.837c-1.579,3.533-1.131,7.473,0.024,11.074c0.996,3.105,2.899,5.705,5.639,7.493
					c1.952,1.274,4.184,2.026,6.473,2.217c5.559,13.35,15.609,24.988,29.726,29.506c3.117,0.997,6.359,1.599,9.624,1.766
					c-0.584,1.636-0.528,3.461,0.127,5.097c0.943,2.357,2.851,3.748,5.279,4.332c5.47,1.317,12.257,1.543,16.284-3.091
					c0.594-0.684,0.161-1.573-0.469-1.83v-2.68c8.341-1.383,16.181-5.486,22.143-11.477c6.503-6.536,10.438-15.194,11.368-24.346
					C190.571,199.287,190.042,193.881,188.485,188.778z"/>
				<path style="fill:#9B683F;" d="M165.625,286.415c-0.342-0.819-1.327-0.906-1.846-0.488c-6.645-3.358-15.27-2.103-20.605,3.174
					c-0.208,0.205-0.311,0.427-0.335,0.642c-0.506-0.096-1.084,0.108-1.298,0.729c-2.185,6.341-3.513,12.934-3.993,19.622
					c-0.027,0.378,0.228,0.758,0.542,0.944c4.179,2.478,8.9,3.963,13.755,4.251c2.231,0.132,4.682-0.065,6.811-0.896
					c2.27,0.523,4.624-0.291,6.325-1.97c1.798-1.774,2.729-4.295,3.16-6.737C169.27,299.288,168.112,292.362,165.625,286.415z"/>
			</g>
			<g>
				<path style="fill:#CE5679;" d="M130.159,202.851c-0.474-1.942-1.777-3.612-3.399-4.741c-3.964-2.759-9.303-1.412-12.39,1.999
					c-0.937,0.964-1.594,2.146-1.78,3.503c-0.578,4.231,2.458,8.768,6.33,10.317c4.063,1.625,8.505-0.225,10.255-4.192
					C130.109,207.62,130.719,205.148,130.159,202.851z"/>
				<path style="fill:#CE5679;" d="M186.554,201.992c-0.474-1.942-1.777-3.612-3.399-4.741c-3.964-2.759-9.303-1.412-12.39,1.999
					c-0.937,0.964-1.594,2.146-1.78,3.503c-0.578,4.231,2.458,8.768,6.33,10.317c4.063,1.625,8.505-0.225,10.255-4.192
					C186.504,206.761,187.114,204.289,186.554,201.992z"/>
			</g>
			<g>
				<path style="fill:#461A34;" d="M100.285,194.149c-2.214-2.694-4.989-4.863-8.136-6.365c-1.264-0.603-2.375,1.282-1.104,1.889
					c1.232,0.588,2.392,1.277,3.479,2.061c-0.881,2.957-1.472,5.976-1.798,9.047c-0.149,1.398,2.04,1.388,2.188,0
					c0.272-2.56,0.769-5.082,1.457-7.559c0.844,0.758,1.635,1.582,2.368,2.474C99.633,196.784,101.173,195.229,100.285,194.149z"/>
				<path style="fill:#461A34;" d="M127.102,179.943c-3.175-1.859-7.059-0.725-9.153,2.188c-2.143,2.981-1.56,7.099,1.208,9.483
					c2.089,1.798,4.926,2.092,7.249,0.984c0.838-0.305,1.608-0.804,2.224-1.506c0.614-0.698,1.05-1.491,1.313-2.323
					C131.588,185.569,130.142,181.723,127.102,179.943z"/>
				<path style="fill:#461A34;" d="M179.453,179.943c-3.175-1.859-7.059-0.725-9.153,2.188c-2.144,2.981-1.56,7.099,1.208,9.483
					c2.089,1.798,4.926,2.092,7.249,0.984c0.837-0.305,1.608-0.804,2.225-1.506c0.613-0.698,1.049-1.491,1.313-2.323
					C183.939,185.569,182.493,181.723,179.453,179.943z"/>
				<path style="fill:#461A34;" d="M157.954,194.419c-0.226-2.392-1.566-3.734-3.206-5.319c-1.639-1.583-2.157-4.066-1.174-6.148
					c0.598-1.266-1.288-2.378-1.889-1.104c-0.791,1.677-1.013,3.51-0.541,5.316c0.54,2.07,1.913,3.221,3.352,4.676
					c1.33,1.344,1.717,3.49,0.817,5.185c-0.915,1.723-3.005,2.565-4.874,2.148c-1.371-0.306-1.957,1.802-0.582,2.109
					C154.127,202.235,158.376,198.906,157.954,194.419z"/>
				<path style="fill:#461A34;" d="M166.204,206.715c-1.109-0.615-1.893-1.577-2.244-2.798c-0.389-1.35-2.5-0.776-2.109,0.581
					c0.131,0.455,0.307,0.891,0.523,1.304c-3.467,2.784-8.175,4.053-12.561,3.215c-4.28-0.818-8.067-3.422-10.384-7.106
					c-0.035-0.056-0.073-0.105-0.113-0.151c0.22-0.443,0.394-0.912,0.515-1.397c0.34-1.366-1.769-1.949-2.109-0.582
					c-0.355,1.424-1.26,2.513-2.573,3.158c-1.263,0.621-0.156,2.508,1.104,1.889c0.63-0.31,1.199-0.717,1.694-1.197
					c2.689,3.911,6.902,6.757,11.611,7.554c5.021,0.85,10.13-0.526,14.117-3.641c0.423,0.409,0.899,0.766,1.426,1.058
					C166.332,209.287,167.437,207.399,166.204,206.715z"/>
			</g>
		</g>
		<g>
			<path style="fill:#6F3856;" d="M178.587,132.462c0.669-0.52,1.281-1.117,1.816-1.789c1.177-1.478,1.825-3.217,2.353-5.013
				c0.602-2.05,1.191-4.106,1.768-6.163c0.547-1.949,1.035-3.954,1.02-5.993c-0.015-1.934-0.466-3.845-1.184-5.634
				c-1.365-3.403-3.548-6.792-6.245-9.297c-2.679-2.488-6.414-4.087-10.034-3.256c-0.907-3.514-3.208-6.639-6.345-8.492
				c-3.089-1.824-6.742-2.26-10.164-1.464c-2.468-3.275-6.281-5.466-10.403-5.874c-4.819-0.477-9.594,1.709-12.658,5.373
				c-4.199-3.06-9.844-4.063-14.774-2.217c-4.787,1.792-8.505,5.914-9.805,10.846c-2.693-0.215-5.433,0.238-7.953,1.357
				c-4.521,2.008-7.364,6.07-9.16,10.539c-0.948,2.359-1.359,4.896-2.286,7.245c-0.48,1.216-1.384,1.776-2.448,2.445
				c-0.974,0.613-1.867,1.346-2.604,2.233c-2.811,3.381-3.564,8.109-2.599,12.331c1.278,5.593,5.382,10.079,9.608,13.718
				c0.29,1.201,0.749,2.349,1.437,3.401c0.51,0.78,1.17,1.41,1.739,2.139c0.689,0.882,0.471,1.362-0.043,2.261
				c-1.745,3.051-3,6.346-3.629,9.809c-1.256,6.922-0.218,14.138,3.098,20.355c0.294,0.552,0.83,0.64,1.277,0.46
				c0.155,0.023,0.328,0.007,0.517-0.065c1.899-0.719,3.872-1.055,5.902-0.903c1.673,0.125,3.097,0.733,4.436-0.63
				c1.232-1.256,2.277-2.826,3.285-4.265c1.022-1.459,1.975-2.966,2.859-4.513c3.251-5.696,5.543-11.922,6.766-18.362
				c3.953,1.428,8.36,1.569,12.367,0.216c0.272,0.48,0.857,0.788,1.476,0.437l1.148-0.652c0.878-0.092,1.703-0.331,2.484-0.677
				c2.481-0.686,4.865-2.407,6.824-4.335c0.404,0.383,0.84,0.73,1.239,1.035c2.058,1.576,4.553,2.496,7.136,2.68
				c2.262,0.161,4.494-0.341,6.475-1.345c0.102,0.566,0.598,1.057,1.327,0.858c1.166-0.318,2.267-0.781,3.288-1.37
				c0.087,0.017,0.181,0.025,0.283,0.02c3.939-0.197,7.587-2.28,9.853-5.405c0.741,1.171,1.63,2.243,2.687,3.171
				c0.87,0.764,1.824,1.427,2.843,1.977c1.13,0.611,2.382,1.111,3.345,1.981c0.965,0.871,1.456,2.097,2.019,3.239
				c0.609,1.236,1.292,2.435,2.052,3.585c1.503,2.275,3.284,4.355,5.285,6.204c0.735,0.679,1.782,0.163,1.867-0.773
				C189.15,152.664,185.6,141.234,178.587,132.462z"/>
			<g>
				<path style="fill:#461A34;" d="M169.551,142.016c-1.795,3.668-5.435,6.048-9.417,6.346c2.071-2.356,3.359-5.397,3.455-8.581
					c0.042-1.408-2.145-1.407-2.188,0c-0.145,4.82-3.649,9.299-8.308,10.583c-2.561,0.706-5.555,0.533-8.165,0.15
					c-2.537-0.372-5-1.213-6.8-3.109c-0.971-1.023-2.516,0.525-1.547,1.547c2.094,2.206,4.972,3.264,7.929,3.696
					c3.048,0.446,6.481,0.649,9.459-0.26c1.395-0.426,2.692-1.086,3.855-1.925c0.08,0.027,0.166,0.046,0.258,0.056
					c5.439,0.581,10.957-2.491,13.359-7.399C172.056,141.86,170.17,140.75,169.551,142.016z"/>
				<path style="fill:#461A34;" d="M186.814,164.08c-4.039-3.011-6.919-7.358-8.213-12.215c-0.362-1.359-2.473-0.783-2.109,0.581
					c1.45,5.442,4.712,10.164,9.218,13.523C186.839,166.811,187.931,164.913,186.814,164.08z"/>
				<path style="fill:#461A34;" d="M127.696,151.535c-6.076,2.87-13.708,1.535-18.509-3.137c-1.01-0.982-2.558,0.563-1.547,1.547
					c1.528,1.487,3.292,2.667,5.189,3.53c-1.971,9.802-5.596,19.889-13.746,26.219c-1.11,0.862,0.448,2.4,1.547,1.547
					c8.355-6.489,12.215-16.904,14.265-26.967c4.507,1.445,9.53,1.216,13.905-0.85C130.072,152.823,128.963,150.937,127.696,151.535
					z"/>
				<path style="fill:#461A34;" d="M143.593,125.087c-4.632,1.394-10.123-1.026-12.009-5.552c-0.534-1.281-2.651-0.719-2.109,0.581
					c0.723,1.734,1.843,3.241,3.218,4.445c-2.13,2.144-5.113,3.341-8.167,3.028c-3.223-0.331-6.087-2.343-7.667-5.135
					c-0.693-1.225-2.584-0.124-1.889,1.104c1.913,3.383,5.365,5.724,9.232,6.183c3.799,0.451,7.695-1.082,10.275-3.874
					c2.852,1.727,6.371,2.331,9.697,1.33C145.519,126.792,144.946,124.68,143.593,125.087z"/>
				<path style="fill:#461A34;" d="M97.641,148.369c-4.283,1.483-8.656-1.085-9.473-5.528c-0.065-0.355-0.421-0.684-0.764-0.764
					c-5.57-1.3-7.809-7.066-7.84-12.262c-0.008-1.407-2.196-1.41-2.188,0c0.035,5.946,2.734,12.407,8.814,14.203
					c1.313,5.197,6.895,8.238,12.032,6.459C99.545,150.021,98.976,147.907,97.641,148.369z"/>
				<path style="fill:#461A34;" d="M92.774,126.475c-1.663,0.584-3.472-0.16-4.415-1.631c-1.116-1.74-0.857-3.93-0.15-5.765
					c0.506-1.315-1.608-1.884-2.109-0.582c-0.986,2.56-1.02,5.68,0.716,7.939c1.504,1.958,4.159,2.984,6.54,2.148
					C94.675,128.121,94.107,126.007,92.774,126.475z"/>
				<path style="fill:#461A34;" d="M151.863,97.256c-1.362-0.36-1.944,1.75-0.581,2.109c4.166,1.1,5.701,5.874,3.182,9.3
					c-0.835,1.135,1.063,2.228,1.889,1.104C159.714,105.197,157.29,98.689,151.863,97.256z"/>
				<path style="fill:#461A34;" d="M175.715,110.251c-0.686,4.157-4.204,7.575-8.458,7.886c-0.433,0.032-0.982,0.314-1.055,0.803
					c-0.609,4.104-4.304,7.25-8.473,7.078c-1.408-0.058-1.405,2.13,0,2.188c4.808,0.199,9.385-3.313,10.449-7.988
					c4.772-0.75,8.847-4.538,9.647-9.385C178.051,109.455,175.944,108.863,175.715,110.251z"/>
			</g>
		</g>
		<g>
			<g>
				<g>
					<path style="fill:#3BDF92;" d="M140.635,289.028c0.418,0.336,0.906,0.314,1.285,0.111c0.116,0.719,0.824,1.315,1.546,0.763
						c4.176-3.198,9.537-4.554,14.72-3.547c0.618,0.12,1.077-0.24,1.27-0.697c2.093,0.058,4.185,0.115,6.278,0.173
						c0.613,0.017,1.065-0.516,1.094-1.094c0.187-3.719-0.249-7.471-0.501-11.18c-0.262-3.849-0.525-7.699-0.787-11.548
						c-0.011-0.163-0.052-0.307-0.113-0.433c0.45-0.682,0.178-1.795-0.835-1.687c-8.731,0.931-17.52,1.159-26.287,0.682
						c-1.093-0.059-1.333,1.247-0.73,1.869c0.148,4.813,0.115,9.629-0.117,14.439c-0.118,2.456-1.206,5.873-1.363,8.326
						c-0.064,0.99,0.106,1.801,0.846,2.508C137.809,288.543,139.699,288.275,140.635,289.028z"/>
					<path style="fill:#3BDF92;" d="M192.661,378c-0.078-0.77-0.887-1.435-1.646-0.945c-0.775,0.5-1.545,0.718-2.417,0.708
						c-2.102-16.534-3.512-33.154-4.207-49.807c-0.199-4.753-0.337-9.507-0.422-14.263c-0.01-0.579-0.388-0.92-0.826-1.022
						c-0.04-0.101-0.093-0.205-0.163-0.312c-0.555-0.84-1.689-0.512-1.995,0.177c-0.354-0.211-1.483-0.084-1.698-0.083
						c-0.714,0.004-1.427,0.009-2.141,0.013c-1.427,0.009-2.855,0.017-4.282,0.026c-2.855,0.017-5.709,0.035-8.564,0.052
						c-0.408,0.003-0.697,0.189-0.869,0.451c-4.341,1.548-8.614,2.81-13.274,1.977c-4.557-0.815-8.971-2.364-13.078-4.491
						c-0.02-0.01-0.041-0.019-0.061-0.028c-0.167-0.246-0.455-0.4-0.865-0.349c-2.883,0.357-5.725,0.905-8.525,1.68
						c-0.651,0.18-0.856,0.761-0.742,1.275c-4.966,10.401-10.59,21.31-20.848,27.378c-0.621,0.368-0.633,1.044-0.334,1.519
						c-0.008,0.059-0.014,0.119-0.013,0.184c0.113,11.791,0.484,23.577,1.106,35.352c-0.991,0.089-1.921,0.634-2.541,1.525
						c-1.233,1.771-0.697,4.079-0.403,6.05c0.269,1.799,0.18,4.328,1.676,5.613c0.713,0.613,1.636,0.855,2.526,1.09
						c1.191,0.314,2.392,0.595,3.598,0.846c9.05,1.884,18.414,2.063,27.529,0.535c2.091-0.351,4.493-0.562,5.081-2.984
						c0.294-1.208,0.29-2.53,0.403-3.764c0.128-1.398,0.256-2.796,0.384-4.194c0.049-0.539-0.544-1.163-1.094-1.094
						c-0.26,0.033-0.52,0.066-0.78,0.099c-0.158-12.891,0.156-25.783,0.932-38.651c2.627,0.295,5.253,0.59,7.88,0.885l1.433,19.988
						l0.759,10.591c0.092,1.288,0.275,2.602,0.191,3.894c-0.053,0.813-0.224,2.31-1.115,2.676c-0.376,0.155-0.83,0-1.22,0.021
						c-0.561,0.03-1.109,0.233-1.483,0.666c-0.953,1.101-0.39,2.924-0.24,4.202c0.318,2.711,0.026,6.219,3.107,7.293
						c2.842,0.99,6.108,1.288,9.086,1.602c3.174,0.335,6.372,0.443,9.562,0.327c7.147-0.26,14.238-1.63,20.962-4.065
						c0.418-0.151,0.853-0.559,0.803-1.055C193.444,385.725,193.053,381.863,192.661,378z"/>
				</g>
				<g>
					<path style="fill:#FF9D14;" d="M140.427,289.513c-3.313-2.271-6.944-3.985-10.597-5.634c-1.891-0.854-3.789-1.695-5.655-2.603
						c-1.021-0.497-3.446-1.474-3.657-2.851c0.019-0.049,0.037-0.099,0.051-0.154c0.069-0.272,0.128-0.547,0.178-0.822
						c0.012-0.019,0.021-0.037,0.033-0.056c0.216-0.329,0.224-0.651,0.108-0.92c0.181-1.604,0.133-3.241,0.154-4.848
						c0.017-1.264,0.031-2.529,0.042-3.793c0.317-0.16,0.558-0.468,0.572-0.925c0.173-5.699-0.166-11.382-0.965-17.026
						c0-0.001,0-0.001,0-0.002h0c-0.007-0.05-0.013-0.1-0.02-0.15c1.152-0.392,0.559-2.302-0.757-2.063
						c-14.154,2.566-21.585,16.352-25.828,28.748c-2.368,6.919-4.351,14.197-1.082,21.172c2.754,5.876,8.268,11.063,14.342,13.35
						c5.434,2.046,11.176,1.435,16.711-0.006c0.068,0.332,0.31,0.607,0.771,0.673c2.594,0.367,5.202,0.189,7.662-0.531
						c1.016,0.201,2.085,0.11,3.052-0.278c0.266-0.107,0.493-0.282,0.638-0.505c0.57,0.363,1.438,0.259,1.629-0.585
						c1.428-6.32,2.857-12.64,4.286-18.961C142.333,289.682,141.13,289.093,140.427,289.513z"/>
					<path style="fill:#FF9D14;" d="M191.708,260.008c-4.354-5.829-9.806-10.766-16.073-14.467
						c-0.749-0.442-1.987,0.315-1.607,1.235c4.283,10.354,6.44,21.468,6.306,32.674c0,0.031,0.002,0.061,0.003,0.091
						c-0.822,1.496-2.069,2.804-3.382,3.941c-0.614,0.531-1.244,1.048-1.888,1.544c-0.722,0.556-2.266,1.498-3.17,1.449
						c-1.95-0.107-2.895-1.207-4.845-1.315c-0.549-0.03-0.882,0.285-1.002,0.684c-0.678,0.099-1.304,0.839-0.881,1.638
						c3.867,7.295,3.836,16.338-0.075,23.609c-0.306,0.569-0.072,1.479,0.654,1.607c7.172,1.262,14.87,2.515,21.791-0.496
						c5.619-2.444,9.832-7.399,12.137-12.994C205.039,286.19,199.725,270.74,191.708,260.008z"/>
					<path style="fill:#FF9D14;" d="M165.328,258.054c-0.634-2.464-1.574-4.888-2.355-7.311c-0.349-1.083-0.698-2.166-1.047-3.249
						c-0.37-1.149-0.639-2.422-1.171-3.508c-0.857-1.748-2.984-1.722-4.27-0.425c-0.703,0.71-1.046,1.723-1.895,2.286
						c-0.955,0.632-2.239,0.885-3.323,1.206c-2.63,0.778-5.438,1.414-8.143,0.625c-2.426-0.707-4.469-2.354-6.407-3.91
						c-0.152-0.122-0.313-0.195-0.474-0.232c-0.54-0.875-2.201-0.278-1.969,0.955c0.995,5.285,1.991,10.57,2.986,15.856
						c0.089,0.474,0.603,0.794,1.055,0.803c5.141,0.104,10.284,0.073,15.423-0.103c2.533-0.087,5.065-0.208,7.595-0.363
						C163.146,260.572,166.009,260.699,165.328,258.054z"/>
				</g>
			</g>
			<g>
				<path style="fill:#461A34;" d="M162.723,337.439c-1.9,0.696-3.841,1.245-5.806,1.653c1.084-7.835,1.464-15.741,1.094-23.646
					c-0.066-1.402-2.254-1.41-2.188,0c0.376,8.034,0.002,16.092-1.158,24.051c-2.162,0.325-4.346,0.478-6.53,0.457
					c0.949-7.674,1.521-15.389,1.707-23.12c0.034-1.408-2.154-1.408-2.188,0c-0.185,7.705-0.754,15.393-1.697,23.042
					c-3.027-0.19-6.04-0.715-8.982-1.58c-1.353-0.398-1.931,1.713-0.581,2.109c8.791,2.584,18.302,2.295,26.909-0.856
					C164.615,339.068,164.049,336.953,162.723,337.439z"/>
				<path style="fill:#461A34;" d="M143.297,381.387c-5.665,0.725-11.384,0.953-17.089,0.654c-2.821-0.148-5.639-0.417-8.435-0.827
					c-1.447-0.212-2.888-0.458-4.323-0.737c-0.683-0.133-1.365-0.273-2.045-0.422c-0.34-0.074-0.68-0.15-1.019-0.228
					c-0.24-0.055-0.681-0.286-0.865-0.137c-0.2-0.715-1.145-1.232-1.83-0.545c-0.826,0.829-0.308,1.939,0.632,2.392
					c1.374,0.662,3.258,0.801,4.75,1.088c3.308,0.636,6.653,1.098,10.009,1.386c6.733,0.578,13.512,0.421,20.214-0.438
					C144.674,383.398,144.692,381.208,143.297,381.387z"/>
				<path style="fill:#461A34;" d="M188.591,376.903c-5.487,1.583-11.105,2.683-16.787,3.26c-2.811,0.285-5.637,0.45-8.462,0.473
					c-1.462,0.012-2.924-0.01-4.385-0.067c-0.696-0.027-1.391-0.061-2.086-0.104c-0.348-0.021-0.695-0.044-1.042-0.069
					c-0.245-0.018-0.717-0.179-0.876-0.003c-0.307-0.676-1.32-1.042-1.891-0.259c-0.689,0.945-0.008,1.964,0.991,2.267
					c1.459,0.444,3.342,0.293,4.861,0.349c3.366,0.122,6.742,0.067,10.103-0.162c6.742-0.458,13.417-1.651,19.909-3.525
					C190.26,378.68,189.942,376.513,188.591,376.903z"/>
			</g>
		</g>
		<g>
			<g>
				<path style="fill:#00A79D;" d="M137.487,269.944c-0.227-4.026-0.513-8.052-0.995-12.057c-0.542-4.504-1.325-8.975-2.524-13.354
					c-0.124-0.453-0.577-0.816-1.055-0.803c-3.133,0.086-6.257,0.533-9.275,1.385c-1.101,0.311-2.354,0.636-3.173,1.495
					c-0.872,0.914-1.056,2.188-0.464,3.291c0.231,0.43,0.643,0.572,1.037,0.518c0.636,4.355,1.077,8.737,1.317,13.132
					c0.125,2.294,0.228,4.598,0.201,6.895c-0.026,2.28-0.26,4.574-1.32,6.629c-0.298,0.578-0.078,1.468,0.654,1.607
					c3.438,0.65,6.198,2.819,8.973,4.814c1.19,0.856,2.68,2.295,4.231,1.482c1.357-0.711,2.03-2.619,2.357-4.014
					C138.282,277.429,137.69,273.524,137.487,269.944z"/>
				<path style="fill:#00A79D;" d="M125.752,311.216c-9.962,0.926-21.442,0.182-28.582-7.795
					c-6.539-7.306-6.085-18.149-3.065-26.859c1.948-5.62,4.91-10.816,7.864-15.956c0.428,0.123,0.922,0.02,1.232-0.456l6.962-10.688
					c0.896-1.376,1.803-2.866,0.012-3.97c-1.568-0.967-3.545-1.171-5.345-1.165c-1.64,0.005-3.563-0.044-5.074,0.681
					c-1.58,0.759-2.177,2.389-2.781,3.92c-1.404,3.561-2.307,7.271-2.798,11.061c-4.469,1.852-8.324,5.219-11.338,9.028
					c-5.013,6.335-8.509,14.148-9.794,22.129c-0.418,2.599-0.593,5.212-0.515,7.82c-4.817,2.575-8.201,7.272-9.828,12.432
					c-1.999,6.341-1.421,13.289,0.182,19.649c2.782,11.037,9.838,21.861,21.379,24.957c3.451,0.926,7.122,1.112,10.605,0.424
					c3.704-0.064,7.341-0.906,10.706-2.467c0.23-0.107,0.381-0.255,0.469-0.424c0.398-0.117,0.705-0.449,0.655-0.999
					c-0.337-3.696-0.445-7.402-0.329-11.111c8.684-7.158,16.814-15.747,18.884-27.176c0.056-0.307-0.007-0.574-0.138-0.79
					c0.212-0.018,0.424-0.035,0.635-0.055C127.142,313.274,127.155,311.085,125.752,311.216z"/>
				<path style="fill:#00A79D;" d="M180.039,272.971c-0.206-1.837-0.444-3.671-0.709-5.5c-0.533-3.673-1.192-7.328-1.975-10.957
					c-0.443-2.054-0.926-4.099-1.448-6.134c-0.417-1.625-0.667-3.77-2.079-4.875c-1.387-1.085-3.522-1.176-5.186-1.508
					c-2.172-0.434-4.344-0.869-6.516-1.303c-1.369-0.274-1.958,1.815-0.598,2.105c2.229,7.063,3.85,14.322,4.76,21.674
					c0.453,3.658,0.741,7.337,0.862,11.021c0.057,1.741-0.036,3.507,0.086,5.243c0.08,1.143,0.325,2.43,1.154,3.286
					c0.97,1,2.298,0.955,3.508,0.451c1.321-0.55,2.629-1.2,3.838-1.963c2.322-1.465,4.275-3.529,4.598-6.361
					C180.53,276.436,180.23,274.674,180.039,272.971z"/>
			</g>
			<g>
				<path style="fill:#461A34;" d="M142.829,289.187l-0.854-0.681c-0.256-0.203-0.536-0.274-0.803-0.252
					c-1.541-0.817-3.082-1.635-4.623-2.454c0.083-0.107,0.149-0.23,0.192-0.365c0.216-0.693,0.432-1.386,0.649-2.079
					c0.097-0.31,0.024-0.639-0.154-0.898c2.057-12.402,1.153-25.185-2.711-37.16c-0.43-1.334-2.543-0.764-2.109,0.581
					c3.834,11.883,4.743,24.609,2.556,36.908c-0.047,0.263-0.007,0.497,0.088,0.694c-0.136,0.437-0.273,0.874-0.409,1.311
					c-3.038-1.612-6.077-3.223-9.121-4.824c-1.078-0.567-2.231-1.121-3.419-1.583c1.789-9.485,1.751-19.201-0.119-28.672
					c-0.272-1.38-2.381-0.796-2.109,0.581c1.632,8.269,1.804,16.784,0.524,25.107c-1.64-1.812-3.601-3.268-5.871-4.263
					c-1.277-0.56-2.392,1.324-1.104,1.889c2.318,1.017,4.364,2.525,5.942,4.506c-2.941-0.664-5.93-0.44-8.441,1.793
					c-1.054,0.938,0.498,2.48,1.547,1.547c4.086-3.635,9.913-0.094,13.813,1.971c5.071,2.686,10.142,5.373,15.213,8.059
					C142.542,291.456,143.845,289.997,142.829,289.187z"/>
				<path style="fill:#461A34;" d="M113.45,312.517c-2.599,5.938-7.699,10.518-13.927,12.36c-1.347,0.398-0.774,2.51,0.581,2.109
					c6.726-1.989,12.417-6.928,15.234-13.365C115.898,312.344,114.014,311.229,113.45,312.517z"/>
				<path style="fill:#461A34;" d="M125.282,312.394c-3.478,12.189-11.653,22.799-22.55,29.273c-1.209,0.718-0.11,2.61,1.104,1.889
					c11.379-6.76,19.923-17.853,23.555-30.58C127.779,311.62,125.668,311.041,125.282,312.394z"/>
				<path style="fill:#461A34;" d="M190.435,280.795c-3.236-0.132-6.471,0.241-9.58,1.092c1.699-2.318,3.883-4.223,6.454-5.609
					c1.24-0.668,0.136-2.558-1.104-1.889c-1.474,0.795-2.841,1.759-4.08,2.863c-0.479-5.385-1.247-10.745-2.329-16.042
					c-0.564-2.761-1.21-5.507-1.943-8.228c-0.66-2.452-1.436-4.913-2.975-6.971c-0.833-1.114-2.733-0.025-1.889,1.104
					c1.479,1.978,2.18,4.296,2.809,6.652c0.709,2.655,1.338,5.331,1.889,8.024c1.11,5.43,1.884,10.919,2.339,16.442
					c0.027,0.327,0.168,0.576,0.367,0.75c-1.084,1.215-2.032,2.555-2.819,3.997c-0.971,0.386-1.924,0.82-2.854,1.304
					c-1.327,0.691-2.372,1.405-3.931,1.271c-0.728-0.063-1.455-0.149-2.181-0.243c0.171-0.174,0.281-0.419,0.281-0.736
					c-0.012-13.869-1.127-28.1-7.244-40.768c-0.612-1.267-2.499-0.159-1.889,1.104c5.941,12.302,6.934,26.207,6.946,39.664
					c0,0.195,0.043,0.362,0.116,0.503c-0.149-0.019-0.298-0.039-0.446-0.057l-9.299-1.136c-1.394-0.17-1.382,2.019,0,2.188
					c3.029,0.37,6.058,0.74,9.088,1.11c2.847,0.348,5.677,1.122,8.335-0.285c5.021-2.658,10.214-4.153,15.941-3.918
					C191.843,283.041,191.84,280.853,190.435,280.795z"/>
				<path style="fill:#461A34;" d="M94.83,354.94c-4.055-4.336-6.743-9.588-8.149-15.341c-1.507-6.168-1.893-12.623-2.282-18.941
					c-0.778-12.639-0.784-25.471,0.521-38.077c0.649-6.271,1.988-12.601,5.543-17.915c0.785-1.173-1.109-2.27-1.889-1.104
					c-3.249,4.855-4.741,10.555-5.515,16.284c-0.862,6.374-1.12,12.856-1.266,19.281c-0.153,6.748-0.04,13.502,0.341,20.241
					c0.366,6.473,0.76,13.07,2.119,19.424c1.42,6.64,4.377,12.721,9.03,17.696C94.246,357.517,95.791,355.968,94.83,354.94z"/>
				<path style="fill:#461A34;" d="M79.461,351.516c-6.367-15.605-8.448-32.845-5.842-49.507c0.215-1.377-1.892-1.97-2.109-0.582
					c-2.072,13.248-1.362,26.863,2.156,39.808c1.003,3.693,2.24,7.318,3.686,10.861C77.876,353.383,79.993,352.821,79.461,351.516z"
					/>
				<path style="fill:#461A34;" d="M103.316,257.873c-2.716-0.154-5.331,0.374-7.811,1.476c-1.284,0.571-0.172,2.456,1.104,1.889
					c2.121-0.943,4.396-1.309,6.707-1.177C104.723,260.141,104.718,257.953,103.316,257.873z"/>
			</g>
		</g>
	</g>
	<g>
		<g>
			<g>
				<path style="fill:#FCBCCA;" d="M334.983,400.748c0.904-11.087,1.464-22.2,1.677-33.322c0.178-0.127,0.311-0.333,0.357-0.631
					c0.306-1.985,0.613-3.97,0.92-5.955c0.085-0.552-0.133-1.217-0.764-1.345c-9.578-1.953-19.471-1.783-28.972,0.52
					c-0.37,0.09-0.597,0.31-0.705,0.577c-0.524,0.023-1,0.369-0.938,1.045c1.283,13.879,1.947,27.81,1.993,41.749
					C317.416,404.232,326.602,403.641,334.983,400.748z"/>
				<path style="fill:#6F3856;" d="M308.551,403.386c0.001,0.314,0.004,0.628,0.004,0.941c0,0.103,0.013,0.198,0.035,0.286
					c-3.022,2.125-5.938,4.4-8.717,6.835c-1.209,1.059-2.731,2.19-3.137,3.835c-0.328,1.332,0.213,2.626,1.255,3.474
					c1.059,0.862,2.416,1.258,3.746,1.45c1.99,0.287,4.008,0.387,6.018,0.367c4.043-0.041,8.066-0.596,12.045-1.272
					c4.246-0.722,8.815-1.219,12.669-3.267c0.443-0.235,0.587-0.626,0.534-1.001c0.368-0.145,0.675-0.463,0.727-0.952
					c0.474-4.439,0.89-8.883,1.253-13.331C326.602,403.641,317.416,404.232,308.551,403.386z"/>
			</g>
			<g>
				<path style="fill:#FCBCCA;" d="M295.446,400.748c0.904-11.087,1.464-22.2,1.677-33.322c0.178-0.127,0.311-0.333,0.357-0.631
					c0.307-1.985,0.613-3.97,0.92-5.955c0.085-0.552-0.133-1.217-0.764-1.345c-9.578-1.953-19.471-1.783-28.972,0.52
					c-0.37,0.09-0.597,0.31-0.705,0.577c-0.524,0.023-1,0.369-0.938,1.045c1.283,13.879,1.947,27.81,1.993,41.749
					C277.879,404.232,287.065,403.641,295.446,400.748z"/>
				<path style="fill:#6F3856;" d="M269.014,403.386c0.001,0.314,0.004,0.628,0.004,0.941c0,0.103,0.013,0.198,0.035,0.286
					c-3.022,2.125-5.938,4.4-8.718,6.835c-1.209,1.059-2.731,2.19-3.137,3.835c-0.328,1.332,0.213,2.626,1.255,3.474
					c1.059,0.862,2.416,1.258,3.746,1.45c1.99,0.287,4.008,0.387,6.017,0.367c4.043-0.041,8.066-0.596,12.046-1.272
					c4.246-0.722,8.815-1.219,12.669-3.267c0.443-0.235,0.587-0.626,0.534-1.001c0.368-0.145,0.675-0.463,0.727-0.952
					c0.474-4.439,0.89-8.883,1.253-13.331C287.065,403.641,277.879,404.232,269.014,403.386z"/>
			</g>
		</g>
		<g>
			<path style="fill:#FF9D14;" d="M366.047,205.819c-0.278-11.386-0.752-23.132-3.667-34.197
				c-2.657-10.083-7.848-19.138-15.792-25.969c-8.001-6.881-17.928-11.211-28.322-12.866c-11.176-1.779-22.952-0.839-33.726,2.629
				c-9.942,3.2-19.207,9.055-24.905,17.989c-1.079,1.693-1.99,3.478-2.752,5.331c-0.254,0.055-0.488,0.221-0.645,0.534
				c-6.479,12.892-11.626,26.592-13.999,40.866c-1.176,7.074-1.686,14.266-1.292,21.432c0.381,6.932,1.372,14.088,4.271,20.455
				c2.473,5.429,6.748,10.258,12.314,12.491c3.973,3.463,9.038,5.809,14.125,7.017c5.683,1.349,11.559,1.586,17.376,1.662
				c6.194,0.08,12.389,0.11,18.583,0.16c11.624,0.093,23.642,0.027,34.546-4.528c4.559-1.905,8.841-4.535,12.349-8.04
				c3.579-3.576,6.164-7.979,7.921-12.702C366.225,227.884,366.31,216.554,366.047,205.819z"/>
			<path style="fill:#FCBCCA;" d="M357.018,191.427c-1.934-2.869-5.279-4.153-8.644-4.225c-3.586-0.076-7.84,0.993-10.228,3.843
				c-0.191-0.319-0.56-0.552-1.131-0.57c-0.25-0.008-0.488,0.088-0.678,0.244c-0.351-0.102-0.705-0.252-1.005-0.351
				c-0.731-0.241-1.455-0.51-2.162-0.814c-1.259-0.541-2.478-1.176-3.661-1.867c-2.503-1.461-4.842-3.187-7.101-4.998
				c-4.468-3.582-8.696-7.496-13.5-10.636c-2.698-1.763-5.58-3.231-8.652-4.221c-0.587-0.189-1.03,0.106-1.226,0.539
				c-11.585-3.627-22.569-9.005-32.556-15.936c-0.763-0.53-1.498,0.111-1.583,0.839c-0.044,0.034-0.087,0.071-0.129,0.114
				c-5.336,5.486-9.371,12.141-11.829,19.387c-1.219,3.593-2.021,7.315-2.423,11.087c-0.208,1.955-0.298,3.921-0.268,5.887
				c0.034,2.264,0.15,4.464-0.389,6.685c-0.891,3.672-1.672,7.128-1.407,10.941c0.156,2.235,0.569,4.434,1.208,6.57
				c-0.126,0.275-0.136,0.608,0.053,0.951c0.212,0.384,0.43,0.765,0.652,1.142c0.194,0.517,0.399,1.031,0.619,1.539
				c2.914,6.743,8.06,12.267,14.412,15.912c3.182,1.826,6.601,3.186,10.139,4.114c1.45,0.589,2.927,1.115,4.426,1.57
				c2.618,0.795,5.299,1.361,8.01,1.712c-0.152,2.101-0.303,4.203-0.385,6.304c-0.107,2.739,0.649,4.92,2.968,6.514
				c2.289,1.574,4.973,1.984,7.467,1.439c0.277,0.131,0.613,0.146,0.96-0.036c0.577-0.303,1.145-0.623,1.706-0.952
				c0.305-0.164,0.603-0.344,0.892-0.54c0.559-0.349,1.112-0.708,1.653-1.087c1.087-0.764,2.491-1.602,3.202-2.767
				c0.789-1.293,0.396-2.988,0.381-4.418c-0.01-0.906,0.01-1.812,0.057-2.716c0.889-0.014,1.773-0.094,2.651-0.225
				c11.265-1.034,22.011-6.958,28.961-15.887c3.305-3.583,5.772-7.907,7.171-12.583c6.133-0.649,11.345-5.284,12.82-11.518
				C359.307,198.856,359.118,194.542,357.018,191.427z"/>
			<g>
				<path style="fill:#CE5679;" d="M300.838,211.579c-0.05-1.153-1.537-1.362-2.031-0.616c-0.231,0.033-0.455,0.131-0.639,0.296
					c-4.508,4.023-8.982,8.625-9.943,14.693c-0.163,0.29-0.328,0.579-0.487,0.871c-0.281,0.514-0.115,1.113,0.301,1.427
					c0.055,0.764,0.795,1.065,1.399,0.904c0.196,0.195,0.46,0.321,0.753,0.312c1.266-0.039,2.129-0.782,3.066-1.551
					c0.09-0.074,0.178-0.149,0.268-0.223c0.299,0.153,0.663,0.182,1.014-0.007c2.66-1.429,4.589-3.786,5.539-6.646
					C301.085,218.008,300.973,214.725,300.838,211.579z"/>
				<path style="fill:#CE5679;" d="M267.699,208.318c-0.096-4.037-3.46-7.186-7.336-7.241c-4.043-1.079-8.653,3.162-8.298,7.267
					c0.374,4.335,2.936,8.857,7.691,9.016C264.52,217.521,267.806,212.8,267.699,208.318z"/>
				<path style="fill:#CE5679;" d="M325.198,211.522c-0.096-4.037-3.46-7.186-7.336-7.241c-4.043-1.079-8.653,3.162-8.298,7.267
					c0.374,4.335,2.936,8.857,7.691,9.016C322.018,220.725,325.305,216.004,325.198,211.522z"/>
			</g>
			<g>
				<path style="fill:#461A34;" d="M310.267,187.823c3.262-1.701,7.086-0.378,9.035,2.634c1.995,3.083,1.21,7.167-1.671,9.412
					c-2.174,1.694-5.023,1.848-7.288,0.627c-0.822-0.346-1.566-0.882-2.148-1.613c-0.579-0.727-0.975-1.541-1.198-2.385
					C305.51,193.222,307.143,189.452,310.267,187.823z"/>
				<path style="fill:#461A34;" d="M257.978,185.257c3.262-1.701,7.086-0.378,9.035,2.634c1.995,3.083,1.21,7.167-1.671,9.412
					c-2.174,1.694-5.023,1.848-7.288,0.628c-0.822-0.346-1.566-0.882-2.148-1.613c-0.579-0.727-0.975-1.541-1.198-2.384
					C253.221,190.656,254.855,186.885,257.978,185.257z"/>
				<path style="fill:#461A34;" d="M278.742,200.769c0.342-2.378,1.747-3.653,3.462-5.156c1.714-1.501,2.354-3.955,1.474-6.083
					c-0.535-1.294,1.403-2.312,1.941-1.01c0.708,1.713,0.839,3.556,0.28,5.336c-0.641,2.041-2.069,3.124-3.578,4.506
					c-1.394,1.277-1.886,3.401-1.07,5.139c0.83,1.766,2.876,2.71,4.763,2.384c1.385-0.238,1.866,1.896,0.477,2.135
					C282.181,208.763,278.099,205.23,278.742,200.769z"/>
				<path style="fill:#461A34;" d="M305.684,210.669c-2.74-0.783-4.878-2.699-6.045-5.287c-0.578-1.281-2.463-0.17-1.889,1.104
					c0.322,0.715,0.718,1.384,1.173,2.005c-2.761,2.715-6.043,4.971-9.844,5.911c-3.83,0.947-7.958,0.35-11.159-2.015
					c-1.133-0.837-2.225,1.06-1.104,1.889c0.92,0.68,1.916,1.224,2.959,1.645c0.043,0.183,0.149,0.364,0.339,0.525
					c2.165,1.84,1.508,5.286,1.794,7.808c0.35,3.083,1.919,5.7,5.166,6.326c6.638,1.279,13.367-4.128,15.265-10.231
					c0.887-2.851,0.86-5.911,0.028-8.748c0.851,0.502,1.769,0.9,2.734,1.176C306.458,213.166,307.037,211.056,305.684,210.669z
					 M295.527,226.213c-1.908,1.37-4.444,2.462-6.878,2.363c-0.004-0.032-0.009-0.064-0.016-0.097
					c-1.147-5.268,2.632-9.806,5.813-13.524c0.124-0.145,0.201-0.308,0.24-0.476c1.826-1.034,3.517-2.32,5.055-3.745
					C302.058,216.167,300.435,222.687,295.527,226.213z"/>
				<path style="fill:#461A34;" d="M352.446,192.887c-4.042,0.937-7.719,3.021-10.609,5.997c-0.981,1.011,0.564,2.559,1.547,1.547
					c1.485-1.53,3.177-2.784,5.029-3.743c1.108,2.602,1.12,5.477,0.156,8.134c-0.481,1.326,1.632,1.897,2.109,0.581
					c1.144-3.154,0.995-6.538-0.281-9.604c0.851-0.326,1.729-0.595,2.63-0.804C354.399,194.679,353.818,192.57,352.446,192.887z"/>
				<path style="fill:#461A34;" d="M338.637,189.156c-10.119-3.652-19.008-9.403-26.937-16.616
					c-1.887-1.717-3.859-3.426-6.182-4.527c-2.453-1.163-5.121-1.704-7.724-2.417c-5.277-1.444-10.441-3.31-15.411-5.596
					c-5.53-2.543-10.819-5.585-15.813-9.064c-1.158-0.807-2.252,1.089-1.104,1.889c9,6.271,18.993,11.105,29.507,14.24
					c2.616,0.78,5.316,1.315,7.894,2.215c2.589,0.903,4.713,2.495,6.737,4.308c3.92,3.512,7.874,6.869,12.309,9.728
					c5.057,3.259,10.488,5.907,16.145,7.949C339.382,191.745,339.953,189.631,338.637,189.156z"/>
				<path style="fill:#461A34;" d="M341.29,185.91c-11.102-14.855-24.236-28.108-39.021-39.306
					c-4.22-3.196-8.551-6.294-13.556-8.138c-1.323-0.487-1.893,1.626-0.582,2.109c4.324,1.593,8.133,4.259,11.803,6.994
					c3.627,2.702,7.155,5.538,10.581,8.491c6.799,5.861,13.194,12.19,19.125,18.928c3.413,3.877,6.669,7.889,9.761,12.026
					C340.234,188.129,342.134,187.04,341.29,185.91z"/>
				<path style="fill:#461A34;" d="M344.377,184.766c-7.93-16.329-19.944-30.56-34.611-41.243
					c-4.151-3.024-8.515-5.745-13.051-8.153c-1.243-0.66-2.349,1.228-1.104,1.889c15.746,8.361,29.347,20.622,39.296,35.419
					c2.833,4.214,5.363,8.625,7.581,13.193C343.103,187.137,344.99,186.029,344.377,184.766z"/>
			</g>
		</g>
		<g>
			<path style="fill:#00A79D;" d="M345.31,361.024c-0.049-2.167-0.303-4.327-0.738-6.45c0.129-0.214,0.188-0.48,0.132-0.784
				c-2.625-14.187-10.941-26.332-19.71-37.454c-2.259-2.865-4.492-5.802-6.931-8.517c-1.189-1.324-2.529-2.535-4.099-3.391
				c-1.606-0.876-3.369-1.423-5.126-1.903c-3.969-1.085-7.985-2.005-12.025-2.784c-2.027-0.391-4.062-0.744-6.102-1.059
				c-1.875-0.289-3.803-0.671-5.706-0.68c-2.151-0.011-3.976,0.749-5.731,1.947c-1.851,1.263-3.652,2.606-5.428,3.971
				c-3.537,2.719-6.947,5.593-10.223,8.621c-0.57,0.527-0.357,1.231,0.122,1.599c-5.449,13.283-9.726,27.026-12.771,41.057
				c-0.114,0.524,0.124,0.932,0.477,1.162c0.02,0.22,0.118,0.443,0.324,0.643c2.954,2.876,6.57,5.022,10.533,6.179
				c1.636,0.478,3.973,1.257,5.596,0.4c0.448-0.236,0.784-0.563,1.039-0.944c0.461,0.221,1.043,0.156,1.359-0.424
				c0.455-0.835,0.819-1.708,1.087-2.613c9.124,1.857,17.503,7.382,27.045,6.349c3.878,0.028,7.757,0.06,11.635,0.08
				c3.046,0.015,6.109-0.037,9.108-0.551c-0.234,1.085-0.199,2.281,0.525,3.064c0.5,0.541,1.152,0.553,1.823,0.467
				c0.916-0.117,1.829-0.269,2.74-0.421c3.011-0.504,6.005-1.232,8.716-2.634c0.159,0.036,0.336,0.035,0.529-0.017
				c0.776-0.208,1.555-0.315,2.333-0.347c-0.157,1.16-0.239,2.33-0.184,3.5c0.045,0.969,0.281,1.949,1.414,2.076
				c1.204,0.135,2.645-0.735,3.75-1.143c1.061-0.392,2.582-0.662,3.427-1.458c0.826-0.778,0.787-2.205,0.895-3.253
				C345.288,363.886,345.342,362.454,345.31,361.024z"/>
			<g>
				<path style="fill:#461A34;" d="M287.18,308.367c-1.034,5.475-1.546,11.029-1.503,16.6c0.011,1.407,2.198,1.41,2.188,0
					c-0.041-5.378,0.427-10.734,1.425-16.019C289.549,307.572,287.442,306.983,287.18,308.367z"/>
				<path style="fill:#461A34;" d="M297.778,324.697c-0.743-5.177-1.062-10.404-0.994-15.633c0.018-1.408-2.169-1.409-2.188,0
					c-0.071,5.43,0.301,10.84,1.072,16.215C295.868,326.666,297.976,326.076,297.778,324.697z"/>
				<path style="fill:#461A34;" d="M300.968,308.784c-0.276-1.379-2.385-0.795-2.109,0.582c0.698,3.482,0.948,7.011,0.781,10.558
					c-0.066,1.407,2.122,1.404,2.188,0C302.003,316.183,301.704,312.455,300.968,308.784z"/>
				<path style="fill:#461A34;" d="M282.408,361.159c-5.481-1.965-11.166-3.852-17.018-3.239c0.218-6.119,1.378-12.145,3.436-17.924
					c0.473-1.329-1.64-1.9-2.109-0.582c-2.195,6.164-3.379,12.643-3.534,19.181c-0.218,0.349-0.261,0.823-0.035,1.158
					c0.023,0.034,0.047,0.067,0.071,0.1c0.069,0.211,0.198,0.374,0.361,0.489c1.052,1.321,2.412,2.272,3.969,2.801
					c-0.659,0.067-1.437-0.025-1.725-0.061c-1.401-0.173-2.786-0.528-4.113-1.007c-2.679-0.966-5.087-2.564-7.082-4.587
					c-0.99-1.004-2.537,0.543-1.547,1.547c2.67,2.707,6.033,4.692,9.712,5.67c2.389,0.635,7.796,1.645,7.989-2.207
					c0.031-0.628-0.529-1.044-1.094-1.094c-1.262-0.111-2.445-0.609-3.406-1.394c5.323-0.405,10.588,1.479,15.543,3.256
					C283.154,363.745,283.726,361.632,282.408,361.159z"/>
				<path style="fill:#461A34;" d="M344.599,366.182c-0.444-1.729-2.236-1.904-3.721-2.075c-1.813-0.208-3.633-0.302-5.456-0.302
					c-0.459-2.961-0.919-5.922-1.378-8.882c-0.215-1.387-2.324-0.798-2.109,0.582c0.313,2.019,0.626,4.038,0.94,6.057
					c-0.175-0.075-0.355-0.139-0.539-0.19c-1.559-0.432-3.237-0.113-4.787,0.192c-1.954,0.384-3.865,0.954-5.802,1.413
					c-4.238,1.005-8.503,0.758-12.822,0.675c-4.929-0.095-9.857-0.19-14.786-0.284c-1.408-0.027-1.408,2.16,0,2.188
					c3.655,0.07,7.31,0.141,10.964,0.211c3.683,0.071,7.387,0.26,11.07,0.164c0.968-0.025,1.92-0.117,2.862-0.253
					c0.019,1.053,0.039,2.107,0.058,3.16c0.01,0.555,0.494,1.142,1.094,1.094c2.015-0.163,4.024-0.394,6.022-0.7
					c1.962-0.3,4.12-0.519,5.967-1.278c0.956-0.392,1.819-1.07,2.31-1.954c0.003,0,0.006,0,0.008,0
					c1.279-0.023,2.558-0.005,3.835,0.072c0.709,0.042,1.418,0.101,2.124,0.176c0.498,0.053,1.409,0.007,1.816,0.313
					c0.946,0.71-1.108,1.524-1.619,1.692c-1.207,0.396-2.422,0.772-3.633,1.158c-1.336,0.426-0.765,2.539,0.582,2.109
					C339.956,370.77,345.551,369.888,344.599,366.182z M332.026,365.564c-0.762,0.581-1.83,0.725-2.746,0.91
					c-0.943,0.191-1.889,0.364-2.838,0.519c-1.72,0.282-3.449,0.494-5.183,0.655c-0.014-0.78-0.029-1.561-0.043-2.341
					c0-0.005-0.001-0.009-0.001-0.013c1.661-0.343,3.307-0.777,4.974-1.185c1.519-0.372,3.161-0.842,4.737-0.753
					c0.48,0.027,1.122,0.097,1.501,0.432C333.052,364.34,332.56,365.156,332.026,365.564z"/>
			</g>
		</g>
		<g>
			<path style="fill:#FCBCCA;" d="M239.76,220.823c-0.145-2.085-0.441-4.165-0.888-6.207c-0.455-2.078-1.071-4.12-1.843-6.102
				c-0.525-1.348-1.06-3.126-2.502-3.76c-1.651-0.726-3.122,0.709-3.789,2.106c-0.45,0.941-0.635,1.964-0.705,3
				c-0.515-0.43-1.093-0.77-1.707-1.024c-0.884-2.245-1.767-4.49-2.664-6.729c-0.856-2.137-1.895-4.601-3.989-5.817
				c-2.798-1.624-3.572,2.101-3.678,4.052c-0.08,1.474,0.068,2.942,0.33,4.396c-0.85-1.036-1.705-2.069-2.576-3.087
				c-1.36-1.589-3.579-2.422-5.08-0.487c-1.53,1.972-0.341,4.409,0.58,6.364c0.422,0.896,0.871,1.778,1.343,2.646
				c-0.863-0.521-1.75-1.001-2.663-1.422c-1.76-0.811-4.477-1.237-5.395,0.988c-0.93,2.256,1.303,4.975,2.609,6.635
				c1.646,2.093,3.654,3.855,5.909,5.266c0.386,1.952,1.688,3.772,2.965,5.248c2.375,2.744,5.197,5.08,8.293,6.969
				c0.469,0.286,0.922,0.174,1.23-0.113c0.389,0.241,0.913,0.29,1.361-0.063c3.617-2.85,7.233-5.699,10.85-8.549
				c0.664-0.523,1.418-1.018,1.793-1.807C239.913,222.545,239.818,221.66,239.76,220.823z"/>
			<g>
				<path style="fill:#461A34;" d="M233.122,221.882c-1.914-1.36-2.514-4.108-1.721-6.255c0.414-1.122,1.679-1.847,1.457-3.084
					c-0.336-1.872-0.365-3.692,0.028-5.56c0.289-1.373-1.819-1.96-2.109-0.582c-0.442,2.096-0.475,4.185-0.107,6.279
					c-2.846,3.24-2.176,8.586,1.348,11.091C233.167,224.588,234.261,222.691,233.122,221.882z"/>
				<path style="fill:#461A34;" d="M225.1,206.492c-1.319,0.02-2.452,0.626-3.355,1.57c-0.977,1.021-1.519,2.374-2.498,3.385
					c-0.967,0.998-2.338,1.464-3.421,2.317c-1.099,0.865-1.809,1.964-1.914,3.374c-0.105,1.404,2.083,1.398,2.188,0
					c0.083-1.115,1.188-1.792,2.054-2.3c0.928-0.544,1.886-1.06,2.64-1.844c1.264-1.316,2.17-4.281,4.306-4.314
					C226.506,208.658,226.51,206.47,225.1,206.492z"/>
			</g>
		</g>
		<g>
			<path style="fill:#FCBCCA;" d="M354.509,227.673c0.566-2.012,1.281-3.988,2.135-5.896c0.869-1.941,1.888-3.816,3.048-5.599
				c0.788-1.213,1.675-2.844,3.215-3.171c1.764-0.374,2.911,1.33,3.28,2.834c0.248,1.013,0.222,2.053,0.08,3.081
				c0.592-0.316,1.227-0.532,1.88-0.655c1.323-2.018,2.645-4.036,3.98-6.045c1.274-1.917,2.793-4.119,5.091-4.882
				c3.07-1.02,3.069,2.785,2.776,4.716c-0.222,1.459-0.666,2.867-1.219,4.236c1.044-0.841,2.091-1.678,3.151-2.497
				c1.655-1.278,3.998-1.642,5.073,0.559c1.096,2.243-0.565,4.386-1.864,6.112c-0.596,0.791-1.214,1.563-1.854,2.317
				c0.952-0.334,1.917-0.624,2.897-0.85c1.888-0.436,4.635-0.299,5.08,2.066c0.451,2.398-2.289,4.605-3.906,5.965
				c-2.039,1.714-4.362,3.03-6.858,3.952c-0.776,1.832-2.421,3.349-3.972,4.534c-2.885,2.203-6.124,3.915-9.539,5.133
				c-0.518,0.185-0.938-0.018-1.181-0.361c-0.43,0.156-0.953,0.098-1.32-0.339c-2.96-3.527-5.92-7.053-8.88-10.58
				c-0.544-0.648-1.181-1.286-1.388-2.134C354.008,229.328,354.282,228.48,354.509,227.673z"/>
			<g>
				<path style="fill:#461A34;" d="M360.793,230.062c2.151-0.942,3.298-3.509,2.959-5.773c-0.177-1.183-1.268-2.15-0.798-3.316
					c0.71-1.764,1.11-3.54,1.105-5.449c-0.003-1.404,2.18-1.549,2.184-0.14c0.005,2.142-0.388,4.194-1.175,6.169
					c2.127,3.752,0.381,8.849-3.579,10.583C360.197,232.702,359.512,230.622,360.793,230.062z"/>
				<path style="fill:#461A34;" d="M371.782,216.63c1.287,0.289,2.273,1.113,2.965,2.22c0.748,1.198,1.004,2.634,1.756,3.823
					c0.743,1.175,1.99,1.91,2.877,2.966c0.899,1.071,1.371,2.291,1.186,3.694c-0.183,1.396-2.324,0.944-2.142-0.446
					c0.146-1.108-0.798-1.996-1.543-2.671c-0.798-0.722-1.63-1.422-2.208-2.344c-0.97-1.546-1.253-4.633-3.337-5.1
					C369.964,218.463,370.405,216.321,371.782,216.63z"/>
			</g>
		</g>
		<g>
			<path style="fill:#6F3856;" d="M282.828,275.421c-2.712-6.191-5.331-12.423-7.85-18.696c-0.079-0.196-0.195-0.349-0.333-0.464
				c-0.131-3.368-2.687-5.827-5.063-7.954c-3.28-2.937-6.564-5.871-9.846-8.806c-6.51-5.823-13.021-11.645-19.531-17.467
				c-0.635-0.568-1.455-0.223-1.768,0.345c-0.863,0.19-1.705,0.439-2.524,0.739c-5.571,1.704-10.339,5.859-12.679,11.225
				c-0.197,0.452-0.088,0.884,0.16,1.196c0.005,0.177,0.069,0.365,0.211,0.555c9.912,13.21,20.288,26.07,31.125,38.533
				c2.628,3.022,5.285,6.019,7.965,8.995c-1.351,9.791-2.87,19.559-4.551,29.298c-0.091,0.528,0.075,0.924,0.503,1.235
				c4.926,3.585,10.818,5.617,16.893,5.918c0.426,0.689,1.713,0.774,2.024-0.246c2.106-6.916,3.163-14.078,3.977-21.245
				c0.837-7.366,1.557-14.746,2.326-22.119C283.94,275.743,283.394,275.397,282.828,275.421z"/>
			<path style="fill:#6F3856;" d="M368.078,243.512c-3.842-6.58-7.242-13.412-10.143-20.458c-0.199-0.483-0.623-0.704-1.045-0.724
				c-0.268-0.12-0.592-0.109-0.92,0.123c-12.415,8.765-25.163,17.055-38.218,24.834c-3.713,2.212-7.451,4.382-11.211,6.513
				c-0.257,0.146-0.411,0.345-0.483,0.561c-0.278,0.241-0.455,0.605-0.385,1.055l6.385,40.681c0.053,0.34,0.221,0.56,0.439,0.681
				c1.415,1.839,2.839,3.671,4.27,5.497c0.225,0.333,0.452,0.665,0.682,0.995c1.164,1.749,2.328,3.499,3.492,5.248
				c0.297,0.446,0.756,0.561,1.168,0.468c0.32,0.274,0.67,0.313,0.971,0.205c0.257,0.095,0.559,0.072,0.865-0.144
				c0.687-0.484,1.376-0.964,2.068-1.441c0.302,0.268,0.733,0.353,1.174,0.044c4.4-3.082,8.862-6.074,13.382-8.976
				c0.303,0.242,0.722,0.316,1.153,0.039c1.268-0.813,2.535-1.627,3.803-2.44c0.893-0.573,1.985-1.122,2.445-2.136
				c0.02-0.044,0.036-0.089,0.053-0.133c0.129-0.079,0.257-0.159,0.387-0.238c1.035-0.631,0.36-2.125-0.619-2.052
				c-0.077-0.188-0.158-0.375-0.236-0.56c-0.495-1.164-1.05-2.298-1.64-3.416c-2.25-4.26-4.975-8.345-6.005-13.109
				c0.05-0.037,0.1-0.078,0.148-0.127c0.29-0.293,0.581-0.587,0.871-0.88c0.05-0.051,0.092-0.103,0.13-0.156l26.462-27.393
				c0.349-0.361,0.376-0.79,0.223-1.147C368.171,244.634,368.414,244.086,368.078,243.512z"/>
			<g>
				<path style="fill:#3BDF92;" d="M312.795,295.117c-1.424-7.033-2.847-14.066-4.27-21.1c-0.35-2.729-0.624-5.469-0.815-8.217
					c-0.141-2.028-0.238-4.06-0.292-6.093c-0.026-0.981-0.043-1.963-0.049-2.944c-0.007-1.019,0.147-2.148,0.014-3.155
					c-0.178-1.358-1.7-2.271-2.917-2.572c-1.643-0.407-3.256,0.027-4.828,0.517c-3.864,1.205-7.873,0.817-11.021-1.922
					c-0.332-0.289-0.928-0.472-1.326-0.171c-0.487,0.368-0.974,0.737-1.461,1.105c-0.165,0.125-0.281,0.274-0.355,0.434
					c-0.274,0.125-0.535,0.297-0.79,0.433c-0.635,0.339-1.269,0.679-1.904,1.018c-1.103,0.589-0.356,2.143,0.694,2.02
					c2.707,4.025,5.415,8.05,8.122,12.075c-0.218,0.295-0.271,0.694,0.007,1.109c3.397,5.084,6.869,10.116,10.417,15.096
					c2.961,4.379,5.887,8.781,8.774,13.209C311.484,297.015,313.042,296.337,312.795,295.117z"/>
				<path style="fill:#3BDF92;" d="M301.308,307.532c0.068-0.109-0.112-0.25-0.276-0.505c-0.19-0.294-0.379-0.589-0.568-0.884
					c-0.34-0.53-0.679-1.062-1.016-1.594c-0.675-1.064-1.345-2.132-2.01-3.203c-1.404-2.26-2.785-4.535-4.144-6.823
					c-2.682-4.516-5.271-9.085-7.775-13.702c-0.038-0.07-0.081-0.132-0.126-0.188c0.076-0.657,0.151-1.315,0.226-1.972
					c0.16-1.396-2.029-1.385-2.188,0c-0.972,8.467-1.944,16.934-2.916,25.4c-0.037,0.326,0.054,0.574,0.217,0.747
					c-0.046,0.375,0.094,0.768,0.514,1.021c3.308,1.987,6.963,3.391,10.765,4.066c1.824,0.324,3.677,0.505,5.531,0.51
					c0.991,0.002,2.572,0.118,3.418-0.584c0.628,0.084,1.239-0.23,1.463-0.948C302.681,308.046,301.982,307.51,301.308,307.532z"/>
			</g>
		</g>
		<g>
			<path style="fill:#CE5679;" d="M370.906,316.94c-2.7-8.29-7.489-15.882-11.85-23.375c-2.278-3.914-4.601-7.803-6.966-11.666
				c-1.22-1.992-2.451-3.976-3.694-5.954c-0.565-0.899-1.132-1.796-1.701-2.692c-0.486-0.764-1.017-2.144-1.91-2.471
				c-1.505-0.551-3.127,0.596-3.841,1.848c-0.905,1.586-0.536,3.403,0.219,4.966c0.243,0.503,0.516,0.994,0.802,1.479
				c0.591,2.626,2.287,4.898,3.706,7.137c0.9,1.419,1.8,2.838,2.7,4.258c0.535,1.121,1.046,2.253,1.543,3.392
				c-8.672,6.022-17.731,11.471-27.118,16.309c-0.009,0.005-0.017,0.01-0.026,0.015c-12.14-12.698-22.836-26.753-31.818-41.86
				c-2.394-4.027-4.662-8.128-6.809-12.291c-0.018-0.111-0.054-0.223-0.112-0.333l-1.452-2.749
				c-0.317-0.601-0.909-0.658-1.369-0.418c-0.085-0.047-0.172-0.079-0.26-0.096c-0.313-0.333-0.807-0.508-1.329-0.259
				c-1.678,0.8-3.462,1.02-5.297,0.781c-1.392-0.181-1.379,2.008,0,2.188c0.028,0.004,0.056,0.006,0.085,0.009
				c4.133,8.23,8.267,16.459,12.4,24.689c4.121,8.205,7.963,16.641,12.887,24.405c4.798,7.564,10.021,14.884,15.271,22.138
				c5.163,7.135,10.386,14.284,15.961,21.105c2.438,2.983,5.259,5.674,9.005,6.873c3.76,1.204,7.921,0.897,11.628-0.347
				c3.896-1.307,7.386-3.543,10.619-6.041c3.092-2.389,5.976-5.154,7.836-8.635C373.689,332.471,373.258,324.163,370.906,316.94z"/>
			<g>
				<path style="fill:#461A34;" d="M339.519,352.765c-3.42-0.396-5.854-3.438-7.902-5.911c-2.457-2.967-4.868-5.971-7.236-9.009
					c-4.799-6.156-9.409-12.461-13.833-18.892c-8.806-12.801-16.865-26.117-24.118-39.859c-4.084-7.737-7.909-15.609-11.476-23.597
					c-0.573-1.283-2.459-0.172-1.889,1.104c6.497,14.546,13.856,28.702,22.043,42.369c8.168,13.635,17.156,26.771,26.885,39.339
					c2.751,3.554,5.555,7.069,8.433,10.521c2.414,2.894,5.174,5.669,9.093,6.122C340.915,355.114,340.903,352.926,339.519,352.765z"
					/>
				<path style="fill:#461A34;" d="M358.331,314.662c2.685-4.173,2.846-9.406,1.636-14.097c-0.682-2.646-1.769-5.464-3.353-7.71
					c-0.707-1.003-1.694-1.685-2.964-1.567c-1.045,0.098-2.325,1.183-3.332,0.778c-0.258-0.104-0.486-0.102-0.677-0.032
					c-3.806-5.497-6.937-11.434-9.283-17.699c-0.489-1.306-2.604-0.741-2.109,0.582c2.524,6.743,5.884,13.129,10.05,19.003
					c-8.363,5.399-16.925,10.483-25.671,15.236c-0.174-0.023-0.352-0.001-0.52,0.059c-11.127-13.952-21.52-28.488-31.12-43.532
					c-2.734-4.284-5.402-8.61-8.009-12.973c-0.721-1.207-2.613-0.109-1.889,1.104c9.299,15.566,19.416,30.64,30.315,45.132
					c3.028,4.026,6.116,8.008,9.259,11.946c0.288,0.361,0.646,0.435,0.968,0.334c0.062,0.07,0.133,0.13,0.21,0.184
					c2.332,4.03,4.925,8.176,8.975,10.659c4.57,2.802,10.224,2.623,15.183,1.038c0.852-0.272,1.707-0.583,2.554-0.933
					c1.759,2.932,5.169,10.492,9.695,7.102c4.342-3.252,0.537-8.965-1.527-12.542C357.313,316.089,357.855,315.401,358.331,314.662z
					 M332.799,320.675c-4.006-2.069-6.524-5.992-8.743-9.807c9.065-4.938,17.935-10.224,26.587-15.856
					c0.277-0.18,0.427-0.424,0.48-0.68c0.326-0.041,0.65-0.126,0.967-0.242c0.933-0.342,1.843-1.059,2.637-0.132
					c0.638,0.745,1.077,1.815,1.497,2.692c0.514,1.073,0.947,2.182,1.301,3.318c1.282,4.117,1.541,8.808-0.561,12.709
					c-2.14,3.971-6.373,6.458-10.491,7.959C342.138,322.216,337.048,322.869,332.799,320.675z M357.127,327.373
					c-1.318,1.216-2.737-0.105-3.548-1.211c-1.128-1.538-2.043-3.265-3.022-4.904c1.622-0.817,3.169-1.798,4.542-2.962
					c0.868,1.493,1.787,2.998,2.434,4.582C358.121,324.321,358.405,326.194,357.127,327.373z"/>
			</g>
		</g>
	</g>
	<g>
		<g>
			<path style="fill:#F5BF8C;" d="M436.619,329.052c-0.083-1.13-0.191-2.259-0.322-3.384c-0.1-0.861-0.115-1.858-0.709-2.551
				c-0.74-0.863-1.759-0.68-2.754-0.49c-1.265,0.242-2.536,0.438-3.818,0.565c-1.24,0.122-2.486,0.191-3.732,0.205
				c-1.171,0.014-2.845,0.236-3.938-0.247c-0.205-0.091-0.406-0.117-0.593-0.097c-0.571-0.764-2.128-0.164-1.926,1.031
				c0.654,3.869,1.518,8.072,4.566,10.83c0.645,0.583,1.352,1.051,2.118,1.458c0.955,0.508,1.087,1.227,1.581,2.126
				c0.815,1.484,2.13,2.771,3.683,3.462c1.474,0.656,3.633,0.938,4.979-0.167c0.676-0.555,0.858-1.284,0.926-2.124
				c0.097-1.198,0.121-2.408,0.139-3.609C436.857,333.722,436.79,331.383,436.619,329.052z"/>
			<path style="fill:#F5BF8C;" d="M503.227,329.052c0.083-1.13,0.191-2.259,0.322-3.384c0.1-0.861,0.115-1.858,0.709-2.551
				c0.74-0.863,1.759-0.68,2.754-0.49c1.265,0.242,2.536,0.438,3.818,0.565c1.24,0.122,2.486,0.191,3.732,0.205
				c1.171,0.014,2.845,0.236,3.938-0.247c0.205-0.091,0.406-0.117,0.593-0.097c0.571-0.764,2.128-0.164,1.926,1.031
				c-0.654,3.869-1.518,8.072-4.566,10.83c-0.645,0.583-1.352,1.051-2.118,1.458c-0.955,0.508-1.087,1.227-1.581,2.126
				c-0.815,1.484-2.13,2.771-3.683,3.462c-1.474,0.656-3.633,0.938-4.979-0.167c-0.676-0.555-0.858-1.284-0.927-2.124
				c-0.097-1.198-0.121-2.408-0.139-3.609C502.989,333.722,503.056,331.383,503.227,329.052z"/>
		</g>
		<g>
			<path style="fill:#FF9D14;" d="M512.908,397.415c-2.507-25.007-6.559-56.644-7.588-81.751c-0.281-6.855-0.709-13.71-1.877-20.478
				c-0.081-0.469-0.609-0.8-1.055-0.803c-0.76-0.005-1.521-0.01-2.281-0.016c-0.009,0-0.017,0.001-0.026,0.001
				c-0.157-0.042-0.331-0.05-0.521-0.012c-3.281,0.656-6.596,0.986-9.94,1.014c-0.11-0.015-0.226-0.014-0.349,0.005
				c-0.007,0.001-0.013,0.002-0.02,0.003c-0.078,0.004-0.152,0.015-0.221,0.033c-13.368,2.085-27.005,2.227-40.419,0.485
				c-0.314-0.041-0.555,0.04-0.727,0.189c-1.322-0.192-2.644-0.383-3.966-0.575c-1.595-0.231-3.296-0.683-4.91-0.655
				c-1.263,0.022-2.392,0.654-2.665,1.962c-0.346,1.656-0.114,3.582-0.136,5.267c-0.098,7.477-0.191,14.954-0.257,22.432
				c-0.134,15.098-0.159,30.198,0.111,45.295c0.151,8.491,0.398,16.98,0.766,25.464c0.007,0.164,0.044,0.309,0.103,0.434
				c-0.038,0.468,0.184,0.958,0.756,1.141c4.75,1.516,9.704,2.375,14.689,2.525c2.442,0.074,4.89-0.024,7.318-0.295
				c2.198-0.246,4.654-0.426,6.469-1.82c0.014-0.011,0.027-0.023,0.04-0.034c0.609,0.148,1.408-0.191,1.495-1.011
				c1.729-16.257,2.499-32.611,2.279-48.959c-0.062-4.649-0.207-9.296-0.426-13.941c1.445,0.371,2.923,0.522,4.397,0.456
				c0.674,16.09,2.025,32.149,4.07,48.122c0.595,4.649,1.247,9.291,1.954,13.924c0.08,0.524,0.431,0.766,0.826,0.79
				c0.046,0.27,0.21,0.522,0.534,0.692c4.694,2.463,10.033,2.341,15.153,1.66c4.887-0.65,13.116,5.112,15.837,0.441
				c0.216-0.371,0.191-0.731,0.032-1.018C512.705,398.243,512.959,397.922,512.908,397.415z"/>
			<g>
				<path style="fill:#461A34;" d="M485.838,330.991c-2.694,0.22-5.391,0.395-8.089,0.533c-1.284-10.556-1.971-21.176-2.055-31.809
					c-0.011-1.407-2.199-1.41-2.188,0c0.084,10.668,0.775,21.323,2.067,31.913c-2.125,0.092-4.252,0.159-6.378,0.202
					c0.016-0.089,0.022-0.184,0.015-0.288c-0.736-10.355-1.471-20.711-2.207-31.067c-0.099-1.396-2.288-1.407-2.188,0
					c0.736,10.356,1.471,20.711,2.207,31.067c0.008,0.119,0.033,0.226,0.069,0.325c-2.021,0.025-4.042,0.027-6.064,0.006
					c-1.408-0.014-1.409,2.173,0,2.188c8.28,0.085,16.557-0.209,24.81-0.882C487.231,333.065,487.243,330.876,485.838,330.991z"/>
			</g>
		</g>
		<g>
			<path style="fill:#F5BF8C;" d="M526.155,172.152c-3.057-1.514-6.47-0.995-9.355,0.563c-0.326-2.029-0.768-4.042-1.335-6.022
				c-2.25-7.863-6.257-15.137-11.548-21.359c-0.842-0.99-2.217,0.254-1.714,1.291c-1.503,0.292-3.075,0.255-4.587,0.055
				c-1.758-0.233-3.715-0.952-4.328-2.784c-0.181-0.54-0.636-0.766-1.084-0.755c-0.373-0.038-0.767,0.09-1.042,0.466
				c-1.414,1.936-3.642,3.194-6.027,3.415c-0.549,0.051-0.882,0.423-0.999,0.847c-0.165,0.129-0.288,0.327-0.333,0.609
				c-0.72,4.539-4.709,8.153-9.342,8.236c-1.065,0.019-1.325,1.278-0.776,1.877c-0.983,1.014-2.036,1.959-3.171,2.802
				c-0.793,0.589-1.623,1.178-2.501,1.634c-0.424,0.22-2.519,0.843-2.228-0.358c0.001-0.003,0.001-0.006,0.002-0.009
				c0.141-0.086,0.269-0.213,0.37-0.392c0.538-0.949,1.003-1.932,1.391-2.942c1.395-2.85,2.423-5.859,2.26-9.092
				c-0.033-0.652-0.524-1.002-1.033-1.048c-0.172-0.367-0.507-0.622-0.968-0.633c-0.311-0.007-0.62-0.023-0.929-0.043
				c-0.176-0.218-0.447-0.363-0.815-0.358c-0.864,0.013-1.722-0.032-2.571-0.134c-2.81-0.635-5.472-1.818-7.871-3.499
				c-0.436-0.306-0.864-0.225-1.165,0.036c-0.263-0.093-0.536-0.168-0.832-0.214c-1.972-0.305-3.778-0.714-5.527-1.725
				c-1.813-1.049-3.33-2.505-4.457-4.268c-0.169-0.265-0.396-0.415-0.637-0.476c-0.479-0.36-1.196-0.377-1.542,0.308
				c-2.24,4.437-6.979,7.154-11.94,6.847c-0.404-0.025-0.69,0.138-0.862,0.384c-0.465-0.046-0.93,0.183-1.05,0.782
				c-0.808,4.038-3.387,7.352-7.394,8.575c-0.142,0.043-0.261,0.106-0.361,0.182c-0.415,0.024-0.824,0.25-1.007,0.739
				c-2.256,6.047-3.562,12.461-3.828,18.902c-2.534-2.043-6.007-3.131-9.219-2.313c-3.16,0.805-5.031,3.885-5.599,6.92
				c-1.157,6.189,1.947,12.733,7.203,16.093c3.049,1.95,7.351,3.068,10.6,0.963c0.1-0.064,0.182-0.138,0.25-0.216
				c0.492,1.346,1.041,2.675,1.647,3.983c5.737,12.366,16.391,22.206,29.443,26.321c2.303,0.726,4.65,1.282,7.022,1.692
				c0.372,3.202,0.537,6.405,0.585,9.633c0.022,1.477,0.392,2.621,1.477,3.661c1.02,0.977,2.315,1.619,3.665,2
				c2.692,0.759,5.69,0.698,8.433,0.282c2.815-0.427,5.54-1.556,7.475-3.7c0.229-0.253,0.31-0.536,0.289-0.805
				c1.746-1.216,1.301-3.634,1.327-5.502c0.027-1.902,0.053-3.804,0.08-5.706c12.182-2.11,23.172-9.461,29.931-19.867
				c2.09-3.218,3.756-6.664,5.009-10.247c0.599,0.051,1.251-0.04,1.788-0.116c1.643-0.233,3.22-0.717,4.725-1.413
				c2.967-1.371,5.502-3.645,7.183-6.448C531.356,184.765,532.488,175.289,526.155,172.152z"/>
			<path style="fill:#CE5679;" d="M446.426,195.654c-0.742-3.406-4.052-6.116-7.526-5.569c-3.207-0.506-6.587,1.133-7.995,4.131
				c-1.548,3.295-0.669,7.394,2.063,9.792c2.551,2.24,6.89,3.341,9.942,1.442C445.988,203.536,447.162,199.03,446.426,195.654z"/>
			<path style="fill:#CE5679;" d="M503.025,195.654c-0.742-3.406-4.052-6.116-7.526-5.569c-3.207-0.506-6.587,1.133-7.995,4.131
				c-1.548,3.295-0.669,7.394,2.063,9.792c2.551,2.24,6.89,3.341,9.942,1.442C502.587,203.536,503.761,199.03,503.025,195.654z"/>
			<g>
				<g>
					<path style="fill:#461A34;" d="M489.056,173.569c3.17-1.867,7.057-0.743,9.159,2.164c2.151,2.976,1.578,7.095-1.183,9.486
						c-2.084,1.804-4.921,2.105-7.246,1.003c-0.838-0.303-1.61-0.8-2.228-1.5c-0.615-0.697-1.053-1.488-1.319-2.32
						C484.584,179.206,486.021,175.356,489.056,173.569z"/>
					<path style="fill:#461A34;" d="M436.705,173.705c3.17-1.867,7.057-0.743,9.159,2.164c2.151,2.976,1.579,7.095-1.183,9.486
						c-2.084,1.804-4.921,2.105-7.246,1.003c-0.838-0.303-1.61-0.8-2.228-1.5c-0.615-0.697-1.053-1.488-1.319-2.32
						C432.233,179.343,433.67,175.493,436.705,173.705z"/>
					<path style="fill:#461A34;" d="M462.494,188.293c0.219-2.393,1.556-3.739,3.192-5.327c1.634-1.588,2.147-4.071,1.158-6.151
						c-0.601-1.265,1.282-2.381,1.886-1.109c0.796,1.674,1.022,3.508,0.555,5.315c-0.535,2.071-1.905,3.226-3.34,4.684
						c-1.327,1.348-1.708,3.494-0.803,5.187c0.92,1.721,3.012,2.557,4.88,2.135c1.371-0.31,1.962,1.797,0.587,2.108
						C466.341,196.099,462.083,192.781,462.494,188.293z"/>
					<path style="fill:#461A34;" d="M482.632,197.937c-1.495-0.318-2.627-1.384-2.996-2.874c-0.338-1.366-2.448-0.787-2.109,0.581
						c0.172,0.693,0.469,1.342,0.864,1.921c-5.915,5.685-15.276,5.827-21.341,0.301c0.615-0.881,1.052-1.889,1.26-2.959
						c0.267-1.375-1.841-1.964-2.109-0.581c-0.387,1.993-1.639,3.516-3.5,4.319c-1.289,0.556-0.176,2.441,1.104,1.889
						c0.636-0.274,1.223-0.637,1.754-1.067c3.308,3.017,7.691,4.778,12.19,4.731c4.538-0.047,8.935-1.936,12.182-5.078
						c0.632,0.441,1.348,0.764,2.119,0.928C483.423,200.339,484.01,198.23,482.632,197.937z"/>
				</g>
				<path style="fill:#461A34;" d="M412.868,183.428c-1.55-1.272-3.202-2.376-4.948-3.305c-0.207-0.426-0.72-0.658-1.19-0.6
					c-1.275-0.606-2.597-1.121-3.964-1.542c-1.349-0.415-1.925,1.696-0.582,2.109c1.165,0.358,2.3,0.794,3.401,1.3
					c-0.7,3.313-0.293,6.702,1.124,9.81c0.583,1.279,2.469,0.169,1.889-1.104c-1.103-2.418-1.416-5.079-0.984-7.667
					c1.302,0.739,2.542,1.589,3.707,2.545C412.401,185.861,413.958,184.322,412.868,183.428z"/>
				<path style="fill:#461A34;" d="M525.819,176.952c-2.966,0.863-5.779,2.146-8.366,3.836c-1.174,0.767-0.079,2.662,1.104,1.889
					c0.941-0.615,1.909-1.171,2.902-1.671c1.101,2.482,1.229,5.233,0.449,7.831c-0.406,1.351,1.705,1.929,2.109,0.581
					c0.935-3.114,0.698-6.355-0.581-9.317c0.964-0.398,1.951-0.746,2.963-1.04C527.75,178.669,527.176,176.558,525.819,176.952z"/>
			</g>
		</g>
		<g>
			<path style="fill:#00A79D;" d="M524.618,157.202c-0.628-2.785-1.664-5.497-3.062-7.987c-0.688-1.225-1.49-2.359-2.317-3.491
				c-1.05-1.437-1.704-2.783-1.888-4.574c-0.315-3.07-0.624-5.839-2.013-8.649c-1.237-2.502-3.053-4.749-5.192-6.536
				c-3.591-2.999-8.02-4.78-12.633-4.865c-2.688-4.475-6.859-8.012-11.644-10.095c-5.897-2.568-12.484-2.888-18.687-1.267
				c-3.418,0.893-6.676,2.36-9.641,4.275c-3.312-2.047-7.472-2.243-11.207-1.103c-4.827,1.473-8.7,4.946-12.371,8.255
				c-0.242,0.218-0.344,0.467-0.347,0.711c-7.306,1.052-13.56,5.435-18.031,11.231c-5.376,6.968-7.729,15.534-8.745,24.158
				c-0.588,4.996-0.742,10.027-0.854,15.053c3.544-0.455,6.754,0.014,9.063,2.472c0.02-0.604,0.28-1.214,0.318-1.816
				c0.223-3.492,0.625-7.176,1.407-10.589c0.686-2.989,1.75-5.299,3.853-7.589c1.143-1.244,2.265-2.594,3.292-3.959
				c1.013-1.346,1.783-2.855,2.384-4.424c0.086-0.225,0.221-0.393,0.382-0.512c-0.123-0.756,0.722-1.658,1.649-1.202
				c2.227,1.095,5.435-0.556,7.338-1.658c1.998-1.158,4.764-2.971,5.479-5.324c0.109-0.357,0.338-0.578,0.608-0.686
				c0.371-0.203,0.84-0.198,1.22,0.203c3.33,3.505,7.702,6.892,12.685,7.278c0.374-0.478,1.049-0.671,1.526-0.066
				c2.469,3.135,7.214,3.103,10.928,3.439c0.524-0.504,1.592-0.478,1.867,0.438c1.42,4.721-0.381,8.964-2.037,13.28
				c2.568-1.535,4.685-3.535,6.572-5.915c0.492-0.62,1.194-0.399,1.56,0.108c4.296-0.156,6.553-5.089,7.492-8.746
				c0.145-0.564,0.59-0.795,1.037-0.776c2.699-0.484,5.059-1.94,7.092-3.736c0.876-0.774,2.097,0.165,1.872,1.041
				c2.551,1.83,5.645,2.712,8.595,1.741c0.141-0.091,0.298-0.15,0.46-0.165c0.323-0.128,0.643-0.279,0.96-0.454
				c1.234-0.682,2.336,1.208,1.104,1.889c-0.085,0.047-0.17,0.09-0.255,0.134c1.135,1.417,2.161,2.895,3.094,4.421
				c0.282,0.038,0.551,0.199,0.735,0.524c3.741,6.611,7.081,13.689,8.104,21.231c0.239-0.164,0.492-0.304,0.755-0.428
				c2.375-0.195,4.935-0.925,7.031-1.156c0.113-0.012,0.201,0.089,0.284,0.147C525.649,166.819,525.672,161.872,524.618,157.202z"/>
			<g>
				<path style="fill:#461A34;" d="M504.006,144.529c-3.358,1.983-8.027,0.851-10.085-2.467c2.048-2.554,3.306-5.741,3.353-9.137
					c0.02-1.408-2.168-1.409-2.188,0c-0.08,5.737-4.398,11.115-9.974,12.445c0.067-2.491-0.435-5.02-1.284-7.345
					c-0.479-1.312-2.594-0.745-2.109,0.582c1.314,3.595,1.868,7.792,0.168,11.368c-1.091,2.295-3.08,4.218-5.498,4.968
					c1.498-2.956,2.246-6.289,2.083-9.605c-0.069-1.401-2.257-1.41-2.188,0c0.168,3.406-0.687,6.749-2.431,9.679
					c-0.855,1.436-1.902,2.737-3.124,3.877c-0.53,0.494-1.09,0.949-1.68,1.367c3.011-5.176,2.986-12.015-0.471-17.033
					c-0.794-1.152-2.69-0.059-1.889,1.104c0.547,0.794,0.996,1.639,1.353,2.519c-4.146-0.526-8.298-1.607-11.791-3.968
					c-3.349-2.264-6.004-5.882-6.384-9.985c-0.129-1.39-2.318-1.404-2.188,0c0.336,3.622,2.021,6.836,4.494,9.382
					c-7.25-1.951-12.308-9.161-11.225-16.849c0.194-1.377-1.913-1.972-2.109-0.582c-0.563,3.995,0.172,8.034,2.158,11.487
					c-3.376,6.238-11.113,7.474-17.522,8.4c-1.388,0.2-0.798,2.309,0.582,2.109c0.654-0.094,1.318-0.194,1.988-0.303
					c-0.978,2.822-2.734,5.328-5.139,7.151c-1.108,0.84-0.019,2.74,1.104,1.889c3.151-2.388,5.426-5.662,6.459-9.474
					c5.423-1.082,10.858-3.023,13.886-7.757c0.046,0.059,0.089,0.12,0.136,0.179c3.011,3.756,7.565,6.007,12.329,6.405
					c0.183,0.015,0.342-0.01,0.477-0.063c3.964,2.64,8.756,3.731,13.441,4.252c0.942,4.382-0.228,9.186-3.419,12.488
					c-0.409,0.423-0.427,1.125,0,1.547c1.551,1.534,3.929-0.322,5.265-1.316c1.661-1.236,3.094-2.719,4.294-4.403
					c3.752-0.316,7.031-2.753,8.754-6.078c0.618-1.193,1.025-2.454,1.254-3.745c2.846-0.566,5.439-1.962,7.509-3.905
					c2.822,3.904,8.514,5.189,12.713,2.708C506.321,145.703,505.222,143.811,504.006,144.529z"/>
			</g>
		</g>
		<g>
			<path style="fill:#6F3856;" d="M489.571,294.678c0.275-0.234,0.423-0.602,0.278-1.059c-4.403-13.884-8.918-28.206-7.753-42.961
				c0.323-4.086,1.126-8.114,2.439-11.998c0.183-0.541-0.211-1.221-0.764-1.345c-1.048-0.236-2.097-0.471-3.146-0.707
				c-1.06-0.238-1.65,0.968-1.228,1.67c-3.462,1.663-6.734,3.644-10.697,3.924c-4.323,0.306-8.589-0.932-12.074-3.503
				c-0.856-0.632-1.745,0.409-1.607,1.235c2.79,16.672,1.246,33.932-4.36,49.872c-0.129,0.366-0.062,0.674,0.112,0.901
				c-0.699,1.423-1.453,2.822-2.268,4.191c-0.283,0.476-0.163,0.934,0.129,1.242c-0.204,0.552-0.027,1.2,0.713,1.305
				c6.76,0.96,13.535,2.179,20.383,2.171c6.672-0.008,13.333-0.981,19.736-2.849C490.555,296.449,490.39,295.01,489.571,294.678z"/>
			<path style="fill:#6F3856;" d="M442.062,243.418c-0.107-0.709-1.059-0.981-1.607-0.654c-8.903,5.323-16.297,13.114-21.064,22.336
				c-5.263,10.181-7.242,21.941-5.677,33.287c0.755,5.471,2.585,10.788,3.216,16.268c-0.059,2.119-0.119,4.239-0.17,6.358
				c-0.022,0.921-0.046,1.968,0.671,2.666c0.749,0.728,1.789,0.683,2.751,0.61c5.202-0.391,10.401-0.812,15.601-1.218
				c0.58-0.045,1.107-0.464,1.094-1.094c-0.078-3.672-0.352-7.327-0.801-10.969c0.937-7.667,1.528-15.372,1.771-23.092
				c0.045-0.073,0.085-0.153,0.116-0.242C442.92,273.504,444.294,258.255,442.062,243.418z"/>
			<path style="fill:#6F3856;" d="M496.028,243.418c0.107-0.709,1.059-0.981,1.607-0.654c8.903,5.323,16.297,13.114,21.064,22.336
				c5.263,10.181,7.242,21.941,5.677,33.287c-0.755,5.471-2.585,10.788-3.216,16.268c0.059,2.119,0.119,4.239,0.17,6.358
				c0.022,0.921,0.046,1.968-0.671,2.666c-0.749,0.728-1.789,0.683-2.751,0.61c-5.201-0.391-10.401-0.812-15.601-1.218
				c-0.58-0.045-1.107-0.464-1.094-1.094c0.078-3.672,0.352-7.327,0.801-10.969c-0.937-7.667-1.528-15.372-1.771-23.092
				c-0.045-0.073-0.085-0.153-0.116-0.242C495.17,273.504,493.796,258.255,496.028,243.418z"/>
			<g>
				<path style="fill:#461A34;" d="M435.431,312.146c-5.945-0.008-11.888,0.128-17.826,0.409c-1.402,0.066-1.41,2.254,0,2.188
					c5.938-0.28,11.881-0.417,17.826-0.409C436.839,314.335,436.841,312.148,435.431,312.146z"/>
				<path style="fill:#461A34;" d="M433.996,322.069c-5.358,0.735-10.825,0.588-16.139-0.407c-1.376-0.258-1.966,1.85-0.582,2.109
					c5.732,1.073,11.527,1.199,17.302,0.407C435.966,323.987,435.374,321.879,433.996,322.069z"/>
				<path style="fill:#461A34;" d="M503.115,312.146c5.945-0.008,11.888,0.128,17.826,0.409c1.402,0.066,1.41,2.254,0,2.188
					c-5.938-0.28-11.881-0.417-17.826-0.409C501.707,314.335,501.705,312.148,503.115,312.146z"/>
				<path style="fill:#461A34;" d="M504.55,322.069c5.358,0.735,10.825,0.588,16.139-0.407c1.376-0.258,1.966,1.85,0.581,2.109
					c-5.732,1.073-11.527,1.199-17.302,0.407C502.58,323.987,503.171,321.879,504.55,322.069z"/>
			</g>
		</g>
		<g>
			<g>
				<path style="fill:#00A79D;" d="M468.409,397.539c-0.072-0.472-0.416-0.876-1.038-0.837c-9.856,0.621-19.746,0.335-29.55-0.853
					c-0.091-0.011-0.176-0.012-0.255-0.004c-0.631-0.184-1.443,0.151-1.457,1.006c-0.024,1.447-0.048,2.893-0.072,4.34
					c-0.022,1.35,0.099,2.801-0.1,4.139c-0.117,0.781-0.533,1.342-1.012,1.88c-3.418,1.635-6.785,4.829-7.402,8.662
					c-0.358,2.222,0.938,3.662,3.087,3.979c2.732,0.402,5.507,0.479,8.261,0.314c0.078-0.005,0.151-0.017,0.22-0.034
					c1.871,0.145,3.758,0.205,5.623,0.292c2.742,0.129,5.488,0.196,8.233,0.122c2.759-0.074,5.514-0.299,8.241-0.724
					c2.1-0.328,5.02-0.447,5.761-2.852c0.413-1.341,0.467-2.883,0.646-4.272c0.202-1.559,0.38-3.12,0.536-4.684
					c0.319-3.199,0.537-6.407,0.668-9.619C468.815,397.996,468.652,397.711,468.409,397.539z"/>
				<path style="fill:#CE5679;" d="M438.656,412.853c-0.781-2.28-2.59-4.023-4.934-4.637c-1.363-0.357-1.944,1.753-0.581,2.109
					c1.582,0.414,2.872,1.55,3.406,3.109C437,414.759,439.114,414.19,438.656,412.853z"/>
				<path style="fill:#CE5679;" d="M443.074,410.581c-1.351-2.658-3.848-4.581-6.763-5.21c-1.373-0.296-1.959,1.812-0.582,2.109
					c2.407,0.52,4.34,2.01,5.455,4.205C441.823,412.94,443.711,411.834,443.074,410.581z"/>
				<path style="fill:#CE5679;" d="M446.592,408.432c-2.111-3.67-5.861-6.013-10.057-6.426c-1.4-0.138-1.391,2.051,0,2.188
					c3.419,0.336,6.464,2.381,8.168,5.342C445.405,410.757,447.296,409.656,446.592,408.432z"/>
			</g>
			<g>
				<path style="fill:#00A79D;" d="M481.78,397.539c0.072-0.472,0.416-0.876,1.038-0.837c9.856,0.621,19.747,0.335,29.55-0.853
					c0.091-0.011,0.176-0.012,0.255-0.004c0.631-0.184,1.443,0.151,1.457,1.006c0.024,1.447,0.048,2.893,0.072,4.34
					c0.022,1.35-0.099,2.801,0.1,4.139c0.116,0.781,0.533,1.342,1.012,1.88c3.418,1.635,6.785,4.829,7.402,8.662
					c0.358,2.222-0.938,3.662-3.087,3.979c-2.732,0.402-5.507,0.479-8.261,0.314c-0.078-0.005-0.151-0.017-0.22-0.034
					c-1.871,0.145-3.758,0.205-5.623,0.292c-2.742,0.129-5.488,0.196-8.233,0.122c-2.759-0.074-5.514-0.299-8.241-0.724
					c-2.1-0.328-5.02-0.447-5.761-2.852c-0.413-1.341-0.467-2.883-0.647-4.272c-0.201-1.559-0.38-3.12-0.536-4.684
					c-0.319-3.199-0.537-6.407-0.668-9.619C481.375,397.996,481.537,397.711,481.78,397.539z"/>
				<path style="fill:#CE5679;" d="M511.534,412.853c0.781-2.28,2.59-4.023,4.934-4.637c1.363-0.357,1.945,1.753,0.582,2.109
					c-1.582,0.414-2.872,1.55-3.406,3.109C513.19,414.759,511.076,414.19,511.534,412.853z"/>
				<path style="fill:#CE5679;" d="M507.116,410.581c1.351-2.658,3.848-4.581,6.763-5.21c1.373-0.296,1.959,1.812,0.582,2.109
					c-2.407,0.52-4.34,2.01-5.455,4.205C508.366,412.94,506.478,411.834,507.116,410.581z"/>
				<path style="fill:#CE5679;" d="M503.597,408.432c2.111-3.67,5.861-6.013,10.056-6.426c1.4-0.138,1.391,2.051,0,2.188
					c-3.419,0.336-6.464,2.381-8.168,5.342C504.784,410.757,502.894,409.656,503.597,408.432z"/>
			</g>
		</g>
		<g>
			<path style="fill:#3BDF92;" d="M454.659,238.77c-0.043-0.543-0.468-1.157-1.094-1.094c-2.791,0.28-5.664,0.584-8.392,1.256
				c-2.314,0.57-3.317,2.102-3.43,4.422c-0.288,5.887-0.162,11.792-0.356,17.682c-0.192,5.825-0.688,11.61-1.822,17.332
				c-1.094,5.517-2.568,10.951-3.635,16.473c-1.193,6.172-1.814,12.424-0.887,18.676c0.13,0.879,1.024,0.964,1.61,0.557
				c0.2-0.029,0.402-0.121,0.586-0.295c3.575-3.38,6.22-7.577,8.351-11.982c2.256-4.663,4.066-9.545,5.472-14.528
				c2.833-10.035,4.037-20.493,4.208-30.901C455.366,250.497,455.126,244.624,454.659,238.77z"/>
			<path style="fill:#3BDF92;" d="M483.838,238.77c0.043-0.543,0.468-1.157,1.094-1.094c2.791,0.28,5.664,0.584,8.392,1.256
				c2.314,0.57,3.317,2.102,3.43,4.422c0.288,5.887,0.162,11.792,0.356,17.682c0.192,5.825,0.688,11.61,1.822,17.332
				c1.093,5.517,2.568,10.951,3.635,16.473c1.193,6.172,1.814,12.424,0.887,18.676c-0.13,0.879-1.024,0.964-1.61,0.557
				c-0.2-0.029-0.402-0.121-0.586-0.295c-3.575-3.38-6.22-7.577-8.351-11.982c-2.255-4.663-4.066-9.545-5.472-14.528
				c-2.833-10.035-4.037-20.493-4.208-30.901C483.131,250.497,483.371,244.624,483.838,238.77z"/>
			<g>
				<path style="fill:#461A34;" d="M442.975,243.487c-0.14-1.387-2.329-1.402-2.188,0c1.515,15.039,0.042,30.262-4.351,44.726
					c-0.41,1.35,1.701,1.927,2.109,0.582C442.989,274.163,444.508,258.701,442.975,243.487z"/>
				<path style="fill:#461A34;" d="M456.373,239.197c-0.171-1.379-2.36-1.396-2.188,0c2.411,19.496-0.393,39.551-8.052,57.645
					c-2.151,5.083-4.693,9.995-7.574,14.702c-0.737,1.204,1.154,2.304,1.889,1.104c10.392-16.978,16.168-36.666,16.733-56.557
					C457.341,250.448,457.065,244.8,456.373,239.197z"/>
			</g>
			<g>
				<path style="fill:#461A34;" d="M495.571,243.487c0.14-1.387,2.329-1.402,2.188,0c-1.515,15.039-0.041,30.262,4.351,44.726
					c0.41,1.35-1.701,1.927-2.109,0.582C495.556,274.163,494.038,258.701,495.571,243.487z"/>
				<path style="fill:#461A34;" d="M482.173,239.197c0.171-1.379,2.36-1.396,2.188,0c-2.411,19.496,0.393,39.551,8.052,57.645
					c2.151,5.083,4.693,9.995,7.574,14.702c0.737,1.204-1.154,2.304-1.889,1.104c-10.392-16.978-16.168-36.666-16.733-56.557
					C481.204,250.448,481.48,244.8,482.173,239.197z"/>
			</g>
		</g>
	</g>
	<g>
		<g>
			<path style="fill:#FF9D14;" d="M612.273,398.977c0.346-3.025-2.723-5.35-5.564-5.71c-2.104-0.267-4.256,0.109-6.348,0.335
				c-2.246,0.242-4.491,0.484-6.736,0.726c-1.785,0.192-3.807,0.238-5.054,1.726c-1.17,1.397-1.529,3.533-2.075,5.223
				c-0.671,2.078-1.199,4.286-2.045,6.299c-0.457,1.087-1.25,1.294-2.315,1.579c-0.845,0.226-1.67,0.53-2.434,0.959
				c-3.482,1.955-5.261,6.318-3.171,9.934c0.295,0.51,0.797,0.613,1.23,0.471c0.038,0.003,0.076,0.006,0.116,0.006h33.03
				c0.107,0,0.206-0.014,0.297-0.038c0.543-0.004,1.082-0.356,1.08-1.056c-0.018-6.526,0.122-13.05,0.42-19.569
				C612.723,399.44,612.54,399.146,612.273,398.977z"/>
			<path style="fill:#FF9D14;" d="M652.583,398.977c0.346-3.025-2.723-5.35-5.564-5.71c-2.104-0.267-4.256,0.109-6.348,0.335
				c-2.245,0.242-4.491,0.484-6.736,0.726c-1.785,0.192-3.807,0.238-5.054,1.726c-1.17,1.397-1.529,3.533-2.075,5.223
				c-0.671,2.078-1.199,4.286-2.045,6.299c-0.457,1.087-1.25,1.294-2.315,1.579c-0.845,0.226-1.67,0.53-2.434,0.959
				c-3.482,1.955-5.261,6.318-3.171,9.934c0.295,0.51,0.797,0.613,1.23,0.471c0.038,0.003,0.076,0.006,0.116,0.006h33.03
				c0.107,0,0.206-0.014,0.297-0.038c0.543-0.004,1.082-0.356,1.08-1.056c-0.018-6.526,0.122-13.05,0.42-19.569
				C653.034,399.44,652.85,399.146,652.583,398.977z"/>
			<g>
				<path style="fill:#B83E66;" d="M587.307,413.099c-0.888-2.075-2.542-3.772-4.586-4.728c-1.268-0.593-2.38,1.292-1.104,1.889
					c1.755,0.822,3.039,2.162,3.801,3.943c0.234,0.547,1.029,0.658,1.496,0.392C587.48,414.274,587.538,413.639,587.307,413.099z"/>
				<path style="fill:#B83E66;" d="M590.304,410.863c-0.869-2.383-2.701-4.177-5.125-4.948c-1.345-0.428-1.92,1.684-0.582,2.109
					c1.652,0.526,3.001,1.784,3.597,3.42C588.673,412.756,590.788,412.19,590.304,410.863z"/>
				<path style="fill:#B83E66;" d="M592.789,407.191c-0.718-2.826-3.169-4.789-6.044-5.032c-1.403-0.118-1.395,2.07,0,2.188
					c1.912,0.161,3.47,1.595,3.935,3.426C591.026,409.136,593.137,408.558,592.789,407.191z"/>
				<path style="fill:#B83E66;" d="M627.937,413.433c-0.907-1.816-2.387-3.3-4.2-4.212c-1.254-0.631-2.363,1.255-1.104,1.889
					c1.513,0.761,2.659,1.912,3.416,3.427C626.677,415.796,628.564,414.69,627.937,413.433z"/>
				<path style="fill:#B83E66;" d="M630.808,410.62c-0.929-2.273-2.8-3.984-5.23-4.509c-1.372-0.297-1.959,1.811-0.581,2.109
					c1.627,0.352,3.061,1.412,3.702,2.981C629.224,412.487,631.341,411.925,630.808,410.62z"/>
				<path style="fill:#B83E66;" d="M633.422,407.512c-0.485-3.386-4.251-5.637-7.475-4.624c-1.339,0.421-0.767,2.533,0.581,2.109
					c2.196-0.69,4.463,0.858,4.784,3.096C631.511,409.482,633.62,408.891,633.422,407.512z"/>
			</g>
		</g>
		<g>
			<path style="fill:#B9713D;" d="M670.218,186.757c-1.295-3.368-3.986-6.188-7.644-6.81c-4.043-0.688-8.123,0.796-11.148,3.474
				c-0.316,0.279-0.397,0.613-0.33,0.918c-0.155,0.123-0.281,0.298-0.355,0.533c-0.975,3.097-2.153,6.114-3.537,9.048
				c-0.955-1.125-1.78-2.341-2.485-3.655c-0.142-0.265-0.34-0.422-0.557-0.495c-0.139-0.375-0.306-0.739-0.531-1.078
				c-0.76-1.147-2.116-1.705-3.114-2.61c-1.068-0.967-1.903-2.097-2.568-3.372c-0.313-0.6-0.911-0.656-1.376-0.415
				c-1.598-3.517-2.6-7.307-2.914-11.154c-0.439-5.373,1.838-10.088,2.859-15.273c0.411-0.01-0.224-0.656-0.132-1.197
				c0.321-1.889,0.442-3.773,0.315-5.687c-0.052-0.784-0.763-1.131-1.361-1.037c-0.526-0.442-1.544-0.393-1.857,0.47
				c-0.197,0.543-1.534,0.816-2.045,0.985c-0.751,0.249-1.522,0.443-2.3,0.586c-1.517,0.279-3.081,0.32-4.616,0.185
				c-3.131-0.275-6.107-1.449-8.629-3.309c-0.281-0.254-0.577-0.487-0.936-0.623c-1.007-0.383-1.985-0.03-2.655,0.781
				c-0.717,0.867-1.193,1.975-1.805,2.92c-0.685,1.058-1.419,2.085-2.219,3.06c-2.411,2.938-5.337,5.45-8.763,7.027
				c-0.384-0.09-0.797,0.023-1.054,0.449c-0.653,0.256-1.322,0.482-2.01,0.666c-1.199,0.322-0.89,2.004,0.137,2.142
				c-1.063,1.261-2.334,2.338-3.784,3.177c-2.123,1.229-5.255,2.409-7.75,1.62c-0.195-0.62-0.852-1.078-1.533-0.605
				c-6.401,4.439-14.374,4.886-21.935,4.893c0.034-0.064,0.068-0.127,0.104-0.19c0.71-1.219-1.18-2.321-1.889-1.104
				c-1.582,2.716-1.491,6.295-1.638,9.343c-0.159,3.283-0.144,6.569,0.025,9.851c-4.743,11.317-1.287,24.478,6.716,33.42
				c8.609,9.62,21.339,14.288,33.874,15.849c1.803,0.225,3.611,0.388,5.421,0.502c-0.216,0.174-0.376,0.429-0.414,0.766
				c-0.12,1.056-0.24,2.112-0.36,3.168c-0.035,0.304,0.049,0.54,0.199,0.712c0.173,2.364,0.992,4.678,1.75,6.948
				c1.225,3.667,2.45,7.335,3.675,11.003c0.285,0.854,1.525,1.126,1.999,0.261c1.817-3.312,2.696-7.007,4.315-10.404
				c0.103-0.077,0.198-0.175,0.279-0.302c1.074-1.663,2.153-3.324,3.225-4.99c0.243,0.069,0.52,0.048,0.805-0.114
				c0.661-0.375,1.216-0.881,1.651-1.47c2.715,0.599,2.516-2.519,2.253-4.644c3.583-1.105,7.015-2.643,10.227-4.554
				c0.184-0.102,0.367-0.204,0.549-0.308c2.871-1.632,5.548-3.626,7.961-5.88c1.125-1.051,2.19-2.162,3.195-3.325
				c6.166-6.081,10.607-13.849,12.703-22.265c4.831-0.677,9.274-3.318,11.505-7.974C671.198,193.57,671.462,189.992,670.218,186.757
				z"/>
			<path style="fill:#B83E66;" d="M634.045,208.48c-0.407-0.966-1.074-1.747-1.87-2.388c-1.099-2.008-2.988-3.554-5.399-4.036
				c-2.34-0.468-4.526,0.119-6.486,1.431c-1.97,1.318-3.647,2.937-4.11,5.353c-0.424,2.215-0.469,5.103,0.274,7.251
				c0.754,2.181,2.677,3.46,4.765,4.203c2.258,0.803,4.756,1.123,7.029,0.214c2.236-0.894,4.007-2.705,5.018-4.875
				C634.249,213.523,634.989,210.721,634.045,208.48z"/>
			<path style="fill:#B83E66;" d="M579.228,208.48c-0.407-0.966-1.074-1.747-1.87-2.388c-1.099-2.008-2.988-3.554-5.399-4.036
				c-2.34-0.468-4.526,0.119-6.486,1.431c-1.97,1.318-3.647,2.937-4.11,5.353c-0.425,2.215-0.469,5.103,0.274,7.251
				c0.755,2.181,2.677,3.46,4.765,4.203c2.258,0.803,4.756,1.123,7.029,0.214c2.236-0.894,4.007-2.705,5.018-4.875
				C579.433,213.523,580.172,210.721,579.228,208.48z"/>
			<g>
				<path style="fill:#461A34;" d="M620.304,186.202c3.175-1.859,7.059-0.725,9.153,2.188c2.144,2.981,1.56,7.099-1.208,9.483
					c-2.089,1.798-4.926,2.092-7.249,0.984c-0.837-0.305-1.608-0.804-2.224-1.506c-0.614-0.698-1.049-1.491-1.313-2.323
					C615.818,191.828,617.264,187.982,620.304,186.202z"/>
				<path style="fill:#461A34;" d="M567.953,186.202c3.175-1.859,7.059-0.725,9.153,2.188c2.143,2.981,1.56,7.099-1.208,9.483
					c-2.089,1.798-4.926,2.092-7.249,0.984c-0.838-0.305-1.608-0.804-2.225-1.506c-0.614-0.698-1.05-1.491-1.313-2.323
					C563.466,191.828,564.913,187.982,567.953,186.202z"/>
				<path style="fill:#461A34;" d="M589.452,200.678c0.225-2.392,1.566-3.734,3.206-5.319c1.638-1.583,2.157-4.066,1.174-6.148
					c-0.598-1.266,1.288-2.378,1.889-1.104c0.791,1.676,1.013,3.51,0.541,5.316c-0.541,2.069-1.913,3.221-3.352,4.676
					c-1.33,1.344-1.717,3.49-0.817,5.185c0.916,1.723,3.005,2.565,4.874,2.148c1.371-0.306,1.957,1.802,0.582,2.109
					C593.279,208.494,589.029,205.165,589.452,200.678z"/>
				<path style="fill:#461A34;" d="M581.202,212.974c1.108-0.615,1.893-1.577,2.244-2.798c0.389-1.35,2.5-0.776,2.109,0.581
					c-0.131,0.455-0.307,0.891-0.523,1.304c3.466,2.784,8.175,4.053,12.561,3.215c4.28-0.818,8.067-3.422,10.384-7.106
					c0.035-0.056,0.073-0.105,0.113-0.151c-0.221-0.443-0.394-0.911-0.515-1.397c-0.34-1.366,1.769-1.949,2.109-0.582
					c0.355,1.424,1.26,2.513,2.573,3.158c1.263,0.621,0.156,2.508-1.104,1.889c-0.63-0.31-1.199-0.717-1.694-1.197
					c-2.689,3.911-6.902,6.757-11.611,7.554c-5.021,0.85-10.13-0.526-14.117-3.641c-0.423,0.409-0.9,0.766-1.426,1.058
					C581.074,215.546,579.969,213.658,581.202,212.974z"/>
				<path style="fill:#461A34;" d="M665.419,187.585c-4.037,1.067-7.722,3.032-10.888,5.749c-1.07,0.918,0.483,2.46,1.547,1.547
					c1.772-1.521,3.734-2.766,5.836-3.726c0.395,2.274,0.413,4.592,0.029,6.873c-0.232,1.377,1.875,1.969,2.109,0.582
					c0.468-2.775,0.449-5.531-0.071-8.292c0.662-0.234,1.336-0.442,2.019-0.623C667.361,189.335,666.784,187.224,665.419,187.585z"
					/>
			</g>
		</g>
		<g>
			<path style="fill:#6F3856;" d="M650.124,195.968c6.966,0.24,10.082-7.383,11.351-13.083c0.183-0.825,1.014-0.944,1.585-0.612
				c3.396-4.713,4.981-10.72,4.403-16.509c-0.769-7.706-5.013-14.849-11.073-19.6c-3.122-2.448-6.833-4.314-10.802-4.594
				c2.294-3.778,2.552-8.542,0.546-12.579c-0.627-1.261-2.514-0.154-1.889,1.104c1.523,3.065,1.409,6.798-0.184,9.791
				c0.155-5.427-0.703-10.862-4.005-15.332c-1.909-2.584-4.438-4.691-7.485-5.78c-3.51-1.255-7.208-0.675-10.665,0.445
				c-13.934-5.994-30.187-6.506-44.021,0.19c-7.084,3.429-13.317,8.605-17.942,14.975c-5.33,7.341-7.916,16.082-8.527,25.073
				c-0.683,10.045,0.518,20.864,6.077,29.494c0.131,0.395,0.451,0.71,0.899,0.709c0.022,0.003,0.044,0.003,0.066,0.005
				c-0.237-5.221-0.845-10.479,0.071-15.666c0.106-0.599,0.812-0.891,1.345-0.764c9.663,2.302,20.908,2.592,28.19-5.273
				c0.174-0.188,0.367-0.29,0.561-0.326c0.156-0.105,0.35-0.172,0.583-0.18c3.501-0.108,6.324-3.843,8.299-6.345
				c0.289-0.367,0.652-0.439,0.976-0.333c5.312-0.921,8.728-5.562,10.888-10.184c0.365-0.781,1.211-0.666,1.679-0.171
				c0.002,0,0.004-0.001,0.007-0.001c2.405-0.222,4.713-1.082,6.93-1.998c0.417-0.172,0.758-0.071,0.987,0.162
				c0.133,0.016,0.271,0.058,0.411,0.133c4.363,2.366,10.245,1.169,14.71-0.295c0.743-0.244,1.248,0.294,1.327,0.897
				c0.48,1.091,0.512,3.58,1.268,4.509c0.371,0.455,0.964-0.323,0.506,0.125c-0.026,0.025-0.053,0.049-0.082,0.071
				c-3.668,11.379-3.491,24.045,2.726,34.39c0.438-0.332,1.009-0.244,1.429,0.096c0.773,0.626,1.527,1.41,2.48,1.755
				c0.557,0.202,0.931,0.737,0.764,1.345c-0.025,0.09-0.064,0.176-0.113,0.257c1.042,2.157,2.654,3.778,4.764,4.682
				C649.312,196.208,649.631,195.951,650.124,195.968z"/>
			<g>
				<path style="fill:#461A34;" d="M613.729,135.701c-0.943,8.951-5.799,17.247-12.925,22.646c2.533-3.872,4.299-8.245,5.083-12.834
					c0.235-1.377-1.873-1.969-2.109-0.581c-1.674,9.814-7.934,18.487-16.748,23.129c-1.246,0.656-0.142,2.545,1.104,1.889
					c3.369-1.774,6.401-4.127,8.983-6.897c0.195,0.018,0.405-0.019,0.62-0.135c10.094-5.425,16.983-15.845,18.18-27.216
					C616.064,134.303,613.876,134.313,613.729,135.701z"/>
				<path style="fill:#461A34;" d="M586.176,148.426c-3.22,4.783-7.007,9.161-11.282,13.03c-4.194,3.795-8.908,7.455-14.363,9.19
					c2.452-9.465,7.994-18.081,15.789-24.139c1.11-0.863-0.448-2.401-1.547-1.547c-11.447,8.896-18.209,23.294-17.828,37.777
					c0.037,1.405,2.225,1.411,2.188,0c-0.088-3.343,0.223-6.67,0.892-9.915c0.207,0.102,0.46,0.131,0.75,0.043
					c5.855-1.765,10.886-5.581,15.386-9.611c4.528-4.054,8.513-8.686,11.905-13.726C588.853,148.36,586.959,147.264,586.176,148.426
					z"/>
				<path style="fill:#461A34;" d="M636.269,145.285c-5.017,3.848-12.004,4.693-17.728,1.92c-1.262-0.611-2.372,1.275-1.104,1.889
					c6.382,3.092,14.279,2.419,19.936-1.92C638.475,146.329,637.387,144.428,636.269,145.285z"/>
				<path style="fill:#461A34;" d="M626.812,121.493c-1.221-0.707-2.323,1.183-1.104,1.889c6.79,3.93,10.963,11.564,10.646,19.396
					c-0.057,1.408,2.131,1.405,2.188,0C638.888,134.198,634.238,125.791,626.812,121.493z"/>
				<path style="fill:#461A34;" d="M640.477,124.775c-0.672-1.238-2.561-0.135-1.889,1.104c2.328,4.29,3.196,9.151,2.588,13.987
					c-0.175,1.393,2.014,1.38,2.188,0C644.018,134.66,642.977,129.382,640.477,124.775z"/>
				<path style="fill:#461A34;" d="M639.46,183.59c-4.906-9.115-5.25-20.429-0.845-29.807c0.595-1.267-1.263-2.366-1.889-1.104
					c-4.975,10.03-4.478,22.157,0.845,32.015C638.24,185.934,640.127,184.831,639.46,183.59z"/>
				<path style="fill:#461A34;" d="M645.506,188.883c-2.492-5.158-3.31-11.036-2.307-16.677c0.245-1.377-1.863-1.967-2.109-0.581
					c-1.113,6.26-0.24,12.636,2.527,18.362C644.229,191.254,646.116,190.146,645.506,188.883z"/>
				<path style="fill:#461A34;" d="M653.618,169.414c-0.027-1.406-2.215-1.411-2.188,0c0.154,7.938-1.338,15.859-4.449,23.169
					c-0.545,1.281,1.339,2.397,1.889,1.104C652.138,186.009,653.78,177.763,653.618,169.414z"/>
				<path style="fill:#461A34;" d="M658.226,168.997c-0.034-1.405-2.221-1.411-2.188,0c0.062,2.579-0.203,5.112-0.813,7.62
					c-0.333,1.368,1.776,1.951,2.109,0.582C657.988,174.51,658.292,171.763,658.226,168.997z"/>
			</g>
		</g>
		<path style="fill:#3BDF92;" d="M638.012,303.606c-0.222-1.829-0.535-3.651-0.805-5.473c-0.574-3.886-1.148-7.773-1.722-11.659
			c-1.148-7.773-2.296-15.546-3.445-23.318c-0.061-0.415-0.293-0.652-0.582-0.745c-0.051-0.071-0.113-0.14-0.189-0.205
			c-3.768-3.219-8.328-5.495-13.224-6.361c-1.091-0.193-2.21-0.34-3.167,0.343c-0.888,0.633-1.225,1.768-1.698,2.7
			c-0.987,1.945-2.207,3.739-3.628,5.38c-1.289-2.276-2.202-4.711-2.735-7.293c-0.12-0.58-0.804-0.911-1.345-0.764
			c-3.822,1.042-7.278,3.078-10.037,5.922c-0.126,0.13-0.209,0.268-0.259,0.409c-0.421,0.001-0.813,0.239-0.909,0.79
			c-2.454,14.042-3.731,29.696-2.486,43.898c0.045,0.518,0.314,0.879,0.803,1.055c13.585,4.875,28.907,1.269,42.774-0.984
			c0.273-0.044,0.469-0.163,0.597-0.321c0.261,0.1,0.569,0.085,0.883-0.118C637.989,306.118,638.167,304.882,638.012,303.606z"/>
		<g>
			<g>
				<path style="fill:#6F3856;" d="M686.238,291.146c-0.604-2.011-1.433-3.971-2.829-5.566c-1.347-1.54-3.146-2.591-4.994-3.428
					c-2.323-13.128-6.728-26.53-18.909-33.518c-1.428-0.819-2.925-1.499-4.469-2.028c0.191-0.249,0.357-0.512,0.49-0.783
					c1.195-2.438,1.342-5.713,1.383-8.38c0.035-2.342-0.015-5.327-2.538-6.389c-1.091-0.459-2.34-0.475-3.508-0.471
					c-1.549,0.005-3.14,0.183-4.627,0.632c-2.665,0.805-5.16,2.534-6.408,5.082c-1.167,2.384-1.533,5.252-1.674,7.954
					c-0.554,0.042-1.107,0.097-1.659,0.164c-1.412-0.924-2.906-1.708-4.622-1.885c-1.846-0.189-3.771,0.45-4.852,2.017
					c-0.984,1.427-1.004,3.223,0.001,4.64c0.534,0.752,1.254,1.339,1.8,2.078c0.632,0.856,1.004,1.827,1.216,2.862
					c0.058,0.286,0.196,0.486,0.374,0.613c0.021,1.047,1.764,1.387,2.173,0.197c0.736-2.14,1.812-4.114,3.184-5.881
					c3.318,2.958,6.237,6.346,8.633,10.101c3.115,4.88,5.188,10.25,6.669,15.829c1.558,5.864,2.637,11.863,3.726,17.828
					c1.111,6.083,2.252,12.191,2.999,18.331c0.455,3.742,0.707,7.532,0.484,11.282c-0.617,2.352-1.446,4.627-2.483,6.819
					c-1.362,2.345-3.159,4.392-5.576,5.798c-0.056,0.032-0.105,0.068-0.151,0.105c-0.721,0.137-1.49,0.106-2.308-0.156
					c-1.032-0.33-1.668,0.896-1.188,1.659c-0.036,0.395,0.111,0.799,0.442,1.008c0.08,0.12,0.19,0.23,0.334,0.323
					c5.065,3.263,11.626,3.082,16.899,0.41c5.327-2.699,9.218-7.666,11.609-13.04c0.137-0.308,0.269-0.618,0.398-0.929
					c0.029-0.008,0.058-0.016,0.088-0.027c3.859-1.392,6.906-4.346,8.766-7.974c2.135-4.163,2.679-8.904,2.596-13.526
					C688.282,298.978,687.365,294.897,686.238,291.146z"/>
				<path style="fill:#6F3856;" d="M631.806,263.05c-0.075-0.457-0.356-0.699-0.689-0.769c-0.759-1.155-1.776-2.13-2.993-2.804
					c-1.263-0.699-3.144-1.379-4.593-0.922c-1.662,0.523-1.786,2.317-1.901,3.781c-0.156,1.978-0.218,3.965-0.173,5.949
					c0.172,7.561,1.935,15.174,5.948,21.647c2.088,3.368,4.73,6.308,7.865,8.728c0.622,0.48,1.748-0.164,1.646-0.944
					C635.402,286.134,633.701,274.576,631.806,263.05z"/>
				<path style="fill:#6F3856;" d="M600.569,258.153c-2.725,1.089-4.974,2.417-6.138,5.239c-1.129,2.737-1.139,5.831-1.336,8.741
					c-0.49,7.228-0.981,14.457-1.471,21.685c-0.011,0.159,0.009,0.298,0.05,0.421c-0.385,1.228,1.399,2.235,1.933,0.984
					c4.879-11.424,7.716-23.605,8.346-36.015C601.987,258.554,601.219,257.894,600.569,258.153z"/>
			</g>
			<g>
				<path style="fill:#461A34;" d="M687.692,296.818c-0.208-1.387-2.316-0.798-2.109,0.582c0.808,5.394,1.41,11.098-0.222,16.403
					c-1.1,3.576-3.313,7.023-6.547,8.986c0.341-1.075,0.628-2.17,0.857-3.278c0.809-3.916,0.973-7.935,0.616-11.912
					c-0.125-1.391-2.314-1.404-2.188,0c0.578,6.433-0.179,13.145-3.163,18.948c-2.067,4.02-5.206,7.426-9.094,9.64
					c3.652-11.499,5.038-23.691,4.222-35.724c-0.849-12.515-4.022-24.84-9.382-36.184c-3.034-6.421-6.794-12.462-11.179-18.046
					c-0.869-1.106-2.407,0.451-1.547,1.547c7.579,9.65,13.119,20.842,16.444,32.642c3.322,11.79,4.441,24.18,3.228,36.373
					c-0.683,6.869-2.152,13.65-4.346,20.195c-0.055,0.165-0.071,0.317-0.057,0.457c-0.495,0.197-0.999,0.377-1.513,0.537
					c-3.162,0.984-6.494,1.163-9.713,0.344c-1.365-0.347-1.947,1.762-0.582,2.109c6.208,1.578,12.828-0.15,17.919-3.921
					c3.763-2.787,6.545-6.556,8.376-10.782c0.046-0.013,0.092-0.028,0.139-0.048c4.639-1.939,7.812-5.999,9.418-10.688
					C689.273,309.15,688.589,302.802,687.692,296.818z"/>
			</g>
		</g>
		<g>
			<path style="fill:#00A79D;" d="M655.777,392.889c-2.714-17.36-5.428-34.72-8.141-52.081c-0.549-3.515-1.099-7.03-1.648-10.546
				c0.006-0.046,0.009-0.092,0.01-0.141c0.108-7.94-1.576-15.774-4.874-22.992c-0.224-0.489-0.637-0.628-1.031-0.543
				c-0.227-0.169-0.521-0.259-0.865-0.205c-15.077,2.372-30.513,2.46-45.616,0.254c-0.187-0.027-0.359-0.011-0.514,0.036
				c-0.609-0.298-1.612,0.015-1.733,0.929c-3.05,22.961-4.702,46.104-4.923,69.266c-0.062,6.474-0.01,12.948,0.149,19.42
				c0.007,0.283,0.102,0.508,0.248,0.677c0.025,0.143,0.088,0.293,0.202,0.442c1.298,1.705,3.178,2.278,5.235,2.542
				c2.74,0.352,5.517,0.512,8.278,0.592c2.773,0.08,5.55,0.043,8.32-0.111c1.795-0.1,4.286-0.027,4.858-2.019
				c0.407-0.121,0.744-0.455,0.753-1.004c0.269-16.181,0.851-32.357,1.756-48.515c0.026-0.457,0.055-0.914,0.081-1.371l4.869,35.887
				c0.606,4.467,1.212,8.934,1.818,13.4c0.018,0.135,0.055,0.25,0.106,0.349c0.008,0.076,0.023,0.154,0.049,0.236
				c0.77,2.471,5.111,2.381,7.158,2.391c3.331,0.016,6.664-0.121,9.984-0.387c3.212-0.257,6.416-0.645,9.598-1.151
				c2.336-0.371,5.794-1.156,5.32-4.178C655.595,393.838,655.861,393.423,655.777,392.889z"/>
			<g>
				<path style="fill:#461A34;" d="M629.374,331.35c-3.122,0.519-6.257,0.948-9.4,1.298c0.347-0.232,0.585-0.637,0.492-1.154
					c-1.193-6.651-2.098-13.346-2.711-20.075c-0.127-1.39-2.316-1.404-2.188,0c0.631,6.922,1.562,13.814,2.789,20.656
					c0.064,0.355,0.25,0.58,0.488,0.695c-2.306,0.242-4.617,0.441-6.932,0.593c-1.163-6.995-2.002-14.037-2.521-21.11
					c-0.102-1.396-2.291-1.407-2.188,0c0.522,7.115,1.369,14.203,2.527,21.243c-0.999,0.054-1.998,0.1-2.997,0.138
					c-1.403,0.052-1.41,2.24,0,2.188c2.215-0.083,4.427-0.211,6.635-0.375c0.458,4.24,0.915,8.48,1.372,12.721
					c0.149,1.385,2.339,1.4,2.188,0c-0.464-4.297-0.927-8.594-1.391-12.89c4.827-0.416,9.636-1.024,14.418-1.818
					C631.341,333.229,630.753,331.121,629.374,331.35z"/>
			</g>
		</g>
		<g>
			<path style="fill:#B9713D;" d="M656.716,312.221c-2.422,0.431-4.812,1.001-7.248,1.376c-1.297,0.2-2.597,0.373-3.901,0.519
				c-0.56,0.063-1.121,0.121-1.682,0.175c-0.273,0.026-0.566,0.071-0.842,0.077c-0.083,0.003-0.166,0.007-0.249,0.01
				c-0.057-0.016-0.1-0.025-0.135-0.03c-0.35-0.734-1.308-0.714-1.793-0.231c-0.623-0.143-1.373,0.197-1.37,1.024
				c0.01,2.394,0.131,4.784,0.381,7.165c0.121,1.147,0.27,2.291,0.443,3.432c0.161,1.058,0.229,2.272,0.714,3.244
				c0.769,1.54,2.664,1.798,3.576,0.223c0.087-0.15,0.167-0.304,0.246-0.46c0.034,0.223,0.065,0.446,0.1,0.669
				c0.151,0.952,0.318,1.901,0.501,2.848c0.174,0.9,0.303,1.876,0.96,2.57c2.557,2.702,6.443-0.966,7.891-3.049
				c2.205-3.172,3.62-7.079,4.378-10.846c0.401-1.991,0.701-4.09,0.66-6.125C659.315,313.209,658.481,311.908,656.716,312.221z"/>
			<path style="fill:#B9713D;" d="M591.766,315.949c-0.195-0.215-0.504-0.314-0.821-0.298c-2.744-0.727-5.696-1.363-8.528-1.39
				c-1.89-0.018-2.355,1.452-2.242,3.014c-0.508,0.857-0.217,2.002,0.042,3.007c0.416,1.613,0.923,3.203,1.516,4.759
				c0.581,1.525,1.236,3.023,1.969,4.481c0.703,1.398,1.457,3.215,2.549,4.354c0.888,0.926,2.167,0.75,2.937-0.213
				c0.914-1.143,0.888-2.776,1.072-4.16c0.522-3.927,1.044-7.853,1.566-11.78C592.305,317.307,592.316,316.371,591.766,315.949z"/>
		</g>
		<g>
			<g>
				<path style="fill:#FF9D14;" d="M603.158,246.559c-0.219-0.141-0.493-0.21-0.809-0.154c-4.275,0.756-7.612,3.661-10.167,7.025
					c-2.954,3.89-5.119,8.425-7.101,12.867c-2.114,4.74-3.906,9.621-5.333,14.611c-1.453,5.083-2.787,10.396-2.875,15.709
					c-0.048,2.89,0.371,5.756,1.36,8.476c0.768,2.113,1.894,4.329,2.058,6.608l-0.181,2.335c-0.057,0.732,0.62,1.116,1.234,1.057
					c0.086,0.319,0.319,0.598,0.734,0.714c2.803,0.784,5.671,1.258,8.576,1.437c0.453,0.028,0.759-0.181,0.919-0.479
					c0.667,0.218,1.481-0.103,1.377-0.975c-1.094-9.132-1.089-18.344-0.614-27.517c0.238-4.6,0.59-9.192,0.972-13.782
					c0.294-3.542,0.357-7.262,1.246-10.741c0.702-1.194,1.569-2.27,2.582-3.221c2.183-2.052,5.013-3.435,8.003-3.752
					c0.563-0.06,1.128-0.453,1.094-1.094c-0.154-2.88-0.698-5.704-1.661-8.424C604.335,246.6,603.687,246.413,603.158,246.559z"/>
				<path style="fill:#FF9D14;" d="M659.809,311.369c0.101-1.014-0.055-2.006-0.283-3.032c-0.344-1.554-0.711-3.103-1.066-4.654
					c-0.697-3.042-1.395-6.084-2.092-9.126c-1.362-5.942-2.724-11.885-4.087-17.827c-1.247-5.44-2.432-10.982-5.052-15.961
					c-2.124-4.036-5.122-7.638-8.666-10.504c-4.065-3.287-8.804-5.662-13.904-6.836c-0.653-0.15-1.428,0.314-1.385,1.055
					c0.027,0.463-0.061,0.725-0.401,1.046c-0.099,0.093-0.173,0.191-0.226,0.292c-0.441,0.063-0.896,0.229-1.368,0.538
					c-1.227,0.802-2.027,2.399-2.859,3.567c-1.085,1.523-2.17,3.046-3.255,4.569c-0.748,1.05,0.771,2.052,1.657,1.349
					c0.236,0.207,0.562,0.314,0.954,0.224c3.691-0.846,7.324,1.004,9.803,3.668c2.806,3.015,3.985,7.156,4.689,11.119
					c0.8,4.504,1.211,9.088,1.804,13.622c0.618,4.725,1.266,9.447,1.945,14.163c0.778,5.402,1.599,10.797,2.458,16.187
					c0.209,1.309,2.1,0.857,2.124-0.359c5.826-1.174,11.856-0.174,17.665-1.466c0.445,0.144,0.968,0.044,1.241-0.392
					C659.896,312.315,659.969,311.798,659.809,311.369z"/>
			</g>
			<g>
				<path style="fill:#461A34;" d="M627.748,247.139c-1.822-1.864-4.939-3.315-7.338-1.613c-1.258,0.893-2.106,2.443-2.949,3.7
					c-0.99,1.476-1.933,2.985-2.825,4.522c-1.66,2.859-3.13,5.818-4.44,8.85c-0.653-2.034-1.296-4.072-1.924-6.114
					c-0.006-0.178-0.055-0.349-0.153-0.494c-1.021-3.333-2.009-6.676-2.959-10.031c-0.138-0.486-0.568-0.774-1.055-0.803
					c-3.51-0.212-6.412,2.362-7.807,5.393c-1.672,3.633-2.075,7.882-2.833,11.772c-0.206,1.056,0.999,1.842,1.828,1.064
					c2.932-2.751,6.724-6.196,11.047-5.747c0.763,2.471,1.54,4.938,2.342,7.397c0.222,0.68,0.88,0.864,1.414,0.703
					c0.523,0.13,1.165-0.055,1.422-0.688c1.172-2.881,2.513-5.691,4.007-8.419c0.103,0.045,0.217,0.077,0.342,0.092
					c2.896,0.342,5.889,0.707,8.516,2.063c2.323,1.199,4.253,2.989,5.646,5.197c0.571,0.906,2.033,0.557,2.038-0.552
					C632.093,257.858,631.898,251.386,627.748,247.139z M596.152,259.693c0.41-2.34,0.847-4.694,1.601-6.915
					c0.866-2.554,2.735-5.138,5.533-5.417c0.77,2.702,1.561,5.397,2.378,8.085C602.079,255.452,598.924,257.386,596.152,259.693z
					 M625.487,256.897c-2.755-1.422-5.792-1.896-8.832-2.267c0.987-1.688,2.034-3.341,3.138-4.954
					c0.915-1.336,1.76-3.017,3.634-2.656c3.076,0.592,4.861,4.208,5.595,6.923c0.552,2.042,0.755,4.149,0.825,6.261
					C628.591,258.871,627.125,257.743,625.487,256.897z"/>
				<path style="fill:#461A34;" d="M656.27,311.431c-5.397,0.685-10.794,1.37-16.191,2.054c-1.378,0.175-1.395,2.365,0,2.188
					c5.397-0.685,10.794-1.37,16.191-2.054C657.647,313.444,657.665,311.254,656.27,311.431z"/>
			</g>
		</g>
	</g>
</g>
</svg>
